<!-- Generated by IcoMoon.io -->
<svg version="1.1" xmlns="http://www.w3.org/2000/svg" width="32" height="32" viewBox="0 0 32 32">
<title>altre_numerazioni</title>
<path fill="#464545" d="M30.704 16.571h-29.408c-0.4 0-0.725 0.325-0.725 0.725v13.061c0 0.906 0.737 1.643 1.642 1.643h27.573c0.906 0 1.642-0.737 1.642-1.643v-13.061c0-0.399-0.325-0.725-0.725-0.725zM22.286 25.714h-12.571c-1.575 0-2.857-1.282-2.857-2.857s1.282-2.857 2.857-2.857h12.571c1.575 0 2.857 1.282 2.857 2.857s-1.282 2.857-2.857 2.857z"></path>
<path fill="#464545" d="M1.258 15.429h29.483c0.215 0 0.416-0.106 0.537-0.283 0.122-0.177 0.148-0.402 0.068-0.609l-5.431-13.573c-0.234-0.586-0.793-0.965-1.424-0.965h-16.983c-0.631 0-1.19 0.379-1.423 0.964l-5.434 13.579c-0.078 0.2-0.051 0.425 0.070 0.602s0.322 0.283 0.537 0.283zM8.571 2.857h14.857c0.316 0 0.571 0.256 0.571 0.571s-0.255 0.571-0.571 0.571h-14.857c-0.316 0-0.571-0.256-0.571-0.571s0.255-0.571 0.571-0.571zM7.429 5.714h17.143c0.316 0 0.571 0.256 0.571 0.571s-0.255 0.571-0.571 0.571h-17.143c-0.316 0-0.571-0.256-0.571-0.571s0.255-0.571 0.571-0.571zM6.286 8.571h19.429c0.316 0 0.571 0.256 0.571 0.571s-0.255 0.571-0.571 0.571h-19.429c-0.316 0-0.571-0.256-0.571-0.571s0.255-0.571 0.571-0.571zM5.143 11.429h21.714c0.316 0 0.571 0.256 0.571 0.571s-0.255 0.571-0.571 0.571h-21.714c-0.316 0-0.571-0.256-0.571-0.571s0.255-0.571 0.571-0.571z"></path>
</svg>
