<?xml version="1.0" encoding="UTF-8" standalone="no"?>
<!-- Generated by IcoMoon.io -->

<svg
   xmlns:dc="http://purl.org/dc/elements/1.1/"
   xmlns:cc="http://creativecommons.org/ns#"
   xmlns:rdf="http://www.w3.org/1999/02/22-rdf-syntax-ns#"
   xmlns:svg="http://www.w3.org/2000/svg"
   xmlns="http://www.w3.org/2000/svg"
   xmlns:sodipodi="http://sodipodi.sourceforge.net/DTD/sodipodi-0.dtd"
   xmlns:inkscape="http://www.inkscape.org/namespaces/inkscape"
   version="1.1"
   width="43"
   height="43"
   viewBox="0 0 43 43"
   id="svg10"
   sodipodi:docname="amministrazione_trasparente.svg"
   inkscape:version="0.92.3 (2405546, 2018-03-11)">
  <metadata
     id="metadata16">
    <rdf:RDF>
      <cc:Work
         rdf:about="">
        <dc:format>image/svg+xml</dc:format>
        <dc:type
           rdf:resource="http://purl.org/dc/dcmitype/StillImage" />
        <dc:title>iter_autorizzativo_conto_corrente</dc:title>
      </cc:Work>
    </rdf:RDF>
  </metadata>
  <defs
     id="defs14" />
  <sodipodi:namedview
     pagecolor="#ffffff"
     bordercolor="#666666"
     borderopacity="1"
     objecttolerance="10"
     gridtolerance="10"
     guidetolerance="10"
     inkscape:pageopacity="0"
     inkscape:pageshadow="2"
     inkscape:window-width="1920"
     inkscape:window-height="1017"
     id="namedview12"
     showgrid="false"
     inkscape:zoom="5.4883721"
     inkscape:cx="21.5"
     inkscape:cy="21.5"
     inkscape:window-x="-8"
     inkscape:window-y="-8"
     inkscape:window-maximized="1"
     inkscape:current-layer="svg10" />
  <title
     id="title2">iter_autorizzativo_conto_corrente</title>
  <path
     inkscape:connector-curvature="0"
     style="fill:#1a1a1a;stroke-width:1.1100322"
     d="M 5.2359841,31.950918 H 26.384766 V 11.777221 H 19.334789 V 5.052292 H 5.2359841 Z M 1.7115852,33.632419 V 1.6903682 H 22.86034 l 7.049978,6.7249289 V 35.313926 H 1.7115852 Z"
     id="path4" />
  <path
     inkscape:connector-curvature="0"
     style="fill:#1a1a1a;stroke-width:0.81467903"
     d="m 25.482837,27.364576 -4.971534,-5.013274 c 0.670129,-1.113427 1.062779,-2.416651 1.063594,-3.813952 -8.15e-4,-4.075741 -3.273512,-7.376747 -7.313684,-7.378383 -4.040173,0.0016 -7.3144719,3.302642 -7.3144719,7.377561 0,4.073295 3.2742989,7.374298 7.3144719,7.374298 1.386472,0 2.678859,-0.39597 3.782988,-1.071708 l 4.973137,5.014101 z M 9.7359064,18.536528 c 0.00281,-2.520537 2.0257646,-4.557592 4.5236756,-4.563317 2.497124,0.0054 4.519656,2.04278 4.523704,4.563317 -0.0056,2.518914 -2.02658,4.555965 -4.523704,4.561691 -2.498726,-0.0057 -4.5196277,-2.042777 -4.5236756,-4.561691 z"
     id="path6" />
  <rect
     style="opacity:0.98999999;fill:#ffffff;fill-opacity:1;stroke-width:2.79251432"
     id="rect76"
     width="6.8236823"
     height="18.153557"
     x="24.121262"
     y="19.296297"
     ry="3.4037919" />
  <path
     inkscape:connector-curvature="0"
     style="fill:#2ab22a;stroke-width:0.68479931"
     d="m 29.741682,26.266855 -0.249341,0.0051 c -0.803964,0 -1.614619,-0.132653 -2.411134,-0.367026 l 2.191393,2.854083 -1.966479,1.614656 2.024387,10.459264 c 0.01687,0.09035 0.107664,0.155388 0.21589,0.155388 0.106258,0 0.197336,-0.06507 0.21617,-0.155388 l 2.024388,-10.459264 -1.96797,-1.614656 2.159487,-2.811756 c -0.705239,0.17561 -1.451295,0.293113 -2.235976,0.319647 z"
     id="path4-3" />
  <path
     inkscape:connector-curvature="0"
     style="fill:#666666;stroke-width:0.74120355"
     d="m 23.667959,18.193173 c 0.104571,0.537862 0.265364,0.886259 0.453312,1.103124 0.446284,3.464403 3.233509,6.416774 5.471987,6.293855 2.847551,-0.155794 4.866373,-3.58027 5.318982,-6.293855 0.187217,-0.216106 0.36839,-0.677219 0.476447,-1.218995 0.121438,-0.62242 0.251871,-1.560353 -0.08433,-2.056718 -0.01968,-0.02568 -0.148143,-0.15739 -0.169788,-0.179287 0.319983,-1.289461 1.023817,-3.588884 -0.727672,-5.656564 C 33.457486,9.0643828 32.138957,8.5022505 30.94746,8.0575545 27.429779,6.7461719 24.947105,8.585238 23.8005,11.642521 c -0.08293,0.216863 -0.617506,1.590885 0.03008,4.198776 -0.06325,0.04696 -0.120033,0.106485 -0.167821,0.179287 -0.336822,0.494802 -0.117784,1.550172 0.0056,2.172589 z"
     id="path6-1" />
  <path
     inkscape:connector-curvature="0"
     style="fill:#666666;stroke-width:0.74120355"
     d="m 41.859924,37.246979 c -0.09754,-2.384762 -0.218982,-6.163894 -2.086203,-9.254842 0,0 -0.532612,-0.809532 -1.795004,-1.347394 0,0 -2.741574,-0.931672 -4.003967,-1.938501 l -0.576802,0.440782 0.06381,4.181553 -3.461571,10.310206 c -0.0759,0.226271 -0.268738,0.375802 -0.484178,0.375802 -0.215327,0 -0.409094,-0.149523 -0.484178,-0.375802 L 25.571666,29.328577 c 0,0 0.06381,-4.169026 0.06325,-4.181553 0.0084,0.03523 -0.577505,-0.440782 -0.577505,-0.440782 -1.260283,1.006829 -4.003291,1.938501 -4.003291,1.938501 -1.262392,0.537862 -1.794976,1.347394 -1.794976,1.347394 -1.865872,3.091737 -1.989362,6.870867 -2.086906,9.254842 -0.06746,1.648039 0.242033,2.262625 0.631534,2.437997 4.82921,2.162414 18.594734,2.162414 23.42535,0 0.391553,-0.173826 0.698887,-0.789958 0.632236,-2.437997 z"
     id="path8" />
</svg>
