<!-- Generated by IcoMoon.io -->
<svg version="1.1" xmlns="http://www.w3.org/2000/svg" width="32" height="32" viewBox="0 0 32 32">
<title>anagrafiche</title>
<path fill="#464545" d="M26.172 0h-20.348c-0.964 0-1.747 0.783-1.747 1.747v28.506c0 0.964 0.783 1.747 1.747 1.747h20.352c0.964 0 1.747-0.783 1.747-1.747v-28.506c-0.003-0.968-0.783-1.747-1.75-1.747zM25.872 28.562c0 0.772-0.625 1.398-1.398 1.398h-16.952c-0.772 0-1.398-0.625-1.398-1.398v-10.268c0-0.772 0.625-1.398 1.398-1.398h16.952c0.772 0 1.398 0.625 1.398 1.398v10.268zM25.872 13.699c0 0.772-0.625 1.398-1.398 1.398h-16.952c-0.772 0-1.398-0.625-1.398-1.398v-10.268c0-0.772 0.625-1.398 1.398-1.398h16.952c0.772 0 1.398 0.625 1.398 1.398v10.268z"></path>
<path fill="#464545" d="M24.474 3.082h-16.952c-0.192 0-0.349 0.157-0.349 0.349v10.268c0 0.192 0.157 0.349 0.349 0.349h16.952c0.192 0 0.349-0.157 0.349-0.349v-10.268c0-0.192-0.157-0.349-0.349-0.349zM21.564 9.311c0 0.772-0.625 1.398-1.398 1.398h-8.336c-0.772 0-1.398-0.625-1.398-1.398v-0.549c0-0.29 0.234-0.524 0.524-0.524s0.524 0.234 0.524 0.524v0 0.549c0 0.192 0.157 0.349 0.349 0.349h8.336c0.192 0 0.349-0.157 0.349-0.349v-0.549c0-0.29 0.234-0.524 0.524-0.524s0.524 0.234 0.524 0.524v0.549z"></path>
<path fill="#464545" d="M24.474 17.944h-16.952c-0.192 0-0.349 0.157-0.349 0.349v10.268c0 0.192 0.157 0.349 0.349 0.349h16.952c0.192 0 0.349-0.157 0.349-0.349v-10.268c0-0.192-0.157-0.349-0.349-0.349zM21.564 23.884c0 0.821-0.667 1.488-1.488 1.488h-8.245c-0.772 0-1.398-0.625-1.398-1.398v-0.545c0-0.29 0.234-0.524 0.524-0.524s0.524 0.234 0.524 0.524v0 0.549c0 0.192 0.157 0.349 0.349 0.349h8.245c0.245 0 0.44-0.199 0.44-0.44v-0.458c0-0.29 0.234-0.524 0.524-0.524s0.524 0.234 0.524 0.524v0.454z"></path>
</svg>
