<!-- Generated by IcoMoon.io -->
<svg version="1.1" xmlns="http://www.w3.org/2000/svg" width="32" height="32" viewBox="0 0 32 32">
<title>archivio</title>
<path fill="#454545" d="M2 5c-1.105 0-2 0.894-2 2v16c0 1.084 0.863 1.953 1.939 1.988l4.057-10.817c0.676-1.809 2.642-3.172 4.574-3.172h17.429c0-1.106-0.894-2-2-2h-14l-2-4h-8zM10.57 13c-1.1 0-2.316 0.844-2.703 1.873l-4.547 12.127h11.855c-1.059-1.485-1.698-3.358-1.704-5.389v-0.002c0-0 0-0 0-0 0-3.994 2.447-7.384 5.845-8.59l0.061-0.019h-8.806zM24.739 13c2.72 0.967 4.796 3.254 5.568 6.121l0.015 0.064 1.564-4.307c0.377-1.033-0.217-1.879-1.316-1.879h-5.831z"></path>
<path fill="#219db0" d="M21.429 10.402c-5.868 0-10.624 4.841-10.624 10.811s4.757 10.811 10.624 10.811c5.868 0 10.624-4.84 10.624-10.811s-4.757-10.811-10.624-10.811zM20.283 13.87c3.058 0.001 5.536 2.644 5.537 5.908-0.001 1.119-0.298 2.162-0.805 3.054l3.764 4.015-1.867 1.993-3.765-4.015c-0.836 0.541-1.814 0.858-2.864 0.858-3.059 0-5.538-2.643-5.538-5.905 0-3.263 2.479-5.906 5.538-5.907zM20.282 16.124c-1.892 0.005-3.422 1.636-3.425 3.654 0.003 2.017 1.533 3.648 3.425 3.653 1.89-0.005 3.421-1.636 3.425-3.653-0.003-2.018-1.534-3.65-3.425-3.654z"></path>
</svg>
