<!-- Generated by IcoMoon.io -->
<svg version="1.1" xmlns="http://www.w3.org/2000/svg" width="32" height="32" viewBox="0 0 32 32">
<title>atti_in_lavorazione</title>
<path fill="#454545" d="M16 0.5l-0.669 3.426c-3.248-0.016-6.503-0.136-9.863-0.361-0.064-0.006-0.129-0.010-0.195-0.010-1.295 0-2.344 1.221-2.344 2.727 0 1.202 0.669 2.222 1.597 2.585l-3.566 11.506h-0.93c0 1.535 2.382 2.778 5.32 2.778 2.684 0 4.903-1.038 5.267-2.387 0.005-0.154 0.011-0.29 0.020-0.426l-0.002 0.034h-0.895l-3.584-11.565c0.857-0.406 1.462-1.384 1.462-2.526 0-0.471-0.103-0.915-0.284-1.301 2.242 1.388 4.877 2.164 7.561 2.33l0.049 4.989c0.614-0.473 1.314-0.892 2.057-1.222l0.069-0.027 0.037-3.741c2.685-0.169 5.322-0.948 7.564-2.334-0.183 0.388-0.287 0.834-0.287 1.307 0 1.143 0.605 2.12 1.462 2.526l-0.728 2.348c0.288 0.133 0.505 0.246 0.718 0.366l-0.056-0.029 0.511-1.649v1.958c0.289 0.182 0.524 0.346 0.752 0.519l-0.031-0.023v-2.455l1.044 3.367c0.436 0.432 0.832 0.897 1.189 1.394l0.019 0.027-1.787-5.767c0.928-0.363 1.597-1.383 1.597-2.585 0-1.506-1.050-2.727-2.344-2.727-0.066 0-0.132 0.004-0.197 0.010-3.361 0.229-6.615 0.347-9.861 0.361l-0.669-3.427zM4.989 9.845v10.528h-3.263l3.263-10.528zM5.711 9.845l3.263 10.528h-3.263v-10.528zM31.317 20.373c0.020 0.247 0.033 0.538 0.035 0.832l0 0.004 0 0.029c-0.005 0.176-0.013 0.335-0.024 0.493l0.002-0.036c0.408-0.393 0.64-0.843 0.64-1.322h-0.653zM12.179 27.069c-1.030 0.488-1.807 1.168-2.188 1.954h3.659c-0.546-0.577-1.031-1.217-1.446-1.909l-0.025-0.045z"></path>
<path fill="#219db0" d="M21.197 10.243c-5.868 0-10.624 4.84-10.624 10.811s4.757 10.811 10.624 10.811c5.868 0 10.624-4.84 10.624-10.811s-4.757-10.811-10.624-10.811zM20.051 13.711c3.058 0.001 5.536 2.644 5.537 5.908-0.001 1.119-0.298 2.162-0.805 3.054l3.764 4.015-1.867 1.993-3.765-4.015c-0.836 0.541-1.814 0.858-2.864 0.858-3.059 0-5.538-2.643-5.538-5.905 0-3.263 2.479-5.906 5.538-5.907zM20.050 15.965c-1.892 0.005-3.422 1.636-3.425 3.654 0.003 2.017 1.533 3.648 3.425 3.653 1.89-0.005 3.421-1.636 3.425-3.653-0.003-2.018-1.534-3.65-3.425-3.654z"></path>
</svg>
