<!-- Generated by IcoMoon.io -->
<svg version="1.1" xmlns="http://www.w3.org/2000/svg" width="32" height="32" viewBox="0 0 32 32">
<title>atti_personali</title>
<path fill="#464545" d="M16 0.226l-0.67 3.433c-3.254-0.016-6.515-0.136-9.881-0.361-0.065-0.006-0.13-0.010-0.196-0.010-1.297 0-2.349 1.223-2.349 2.732 0 1.204 0.67 2.226 1.6 2.59l-3.573 11.527h-0.932c0 1.537 2.386 2.784 5.33 2.784s5.33-1.246 5.33-2.784h-0.931l-3.591-11.586c0.859-0.406 1.464-1.386 1.464-2.531 0-0.472-0.103-0.916-0.285-1.304 2.246 1.391 4.887 2.168 7.575 2.334l0.135 13.769c-0.303 0.254-0.53 0.624-0.632 1.054-0.17 0.234-0.302 0.506-0.387 0.803 0.129-0.020 0.254-0.026 0.363 0.034 0.077 0.042 0.14 0.091 0.194 0.144 0.156-0.133 0.314-0.262 0.477-0.387 0.166-0.128 0.341-0.244 0.514-0.363 0.090-0.062 0.172-0.139 0.272-0.181 0.116-0.181 0.283-0.324 0.423-0.487 0.058 0.016 0.119 0.027 0.182 0.036 0.079-0.152 0.173-0.29 0.305-0.248 0.203 0.065 0.357 0.211 0.498 0.379 0.082 0.038 0.153 0.090 0.208 0.166 0.012-0.063 0.026-0.13 0.042-0.205 0.002-0.011 0.005-0.022 0.007-0.033-0.121-0.284-0.3-0.529-0.52-0.713l0.135-13.771c2.69-0.169 5.332-0.95 7.578-2.339-0.183 0.389-0.287 0.835-0.287 1.31 0 1.145 0.606 2.124 1.464 2.531l-1.64 5.292c0.079 0.011 0.157 0.026 0.232 0.048 0.299 0.084 0.035 0.891 0.006 1.011-0.034 0.071-0.067 0.143-0.1 0.215-0.019 0.252-0.047 0.503-0.068 0.755-0.009 0.102-0.017 0.204-0.025 0.305l2.042-6.587v5.309c0.615 0.573 0.565 0.742 0.224 1.483-0.072 0.155-0.147 0.308-0.224 0.461v2.717c0.034 0.093 0.025 0.262 0 0.447v0.131h-0.020c-0.009 0.052-0.018 0.104-0.028 0.154 0.086 0.060 0.16 0.133 0.217 0.22 0.1 0.151-0.134 0.637-0.353 1.035-0.005 0.331-0.026 0.66-0.061 0.989 0.132 0.061 0.285 0.159 0.467 0.299 0.028 0.022 0.049 0.051 0.065 0.087 0.025 0 0.049 0.001 0.074 0.001 2.944 0 5.33-1.246 5.33-2.784l-0.932-0-3.573-11.527c0.93-0.364 1.6-1.385 1.6-2.59 0-1.509-1.051-2.732-2.349-2.732-0.066 0-0.132 0.004-0.197 0.010-3.367 0.229-6.627 0.348-9.88 0.362zM4.969 9.589v10.547h-3.269zM5.692 9.589l3.269 10.547h-3.269zM27.031 9.589l3.269 10.547h-3.269zM13.603 26.334c-0.153 0.039-0.303 0.082-0.45 0.128-0.025 0.042-0.050 0.084-0.075 0.127-0.033 0.051-0.415 0.722-0.57 0.655-0.182-0.078-0.372-0.177-0.54-0.299-0.93 0.48-1.632 1.122-1.989 1.857h4.165c-0.002-0.298 0.036-0.595 0.090-0.891-0.046-0.013-0.093-0.024-0.139-0.033-0.017-0.064-0.033-0.116-0.047-0.164-0.589 0.043-0.598-0.339-0.51-1.029 0.022-0.115 0.043-0.233 0.064-0.351z"></path>
<path fill="#f2641d" d="M21.211 9.9c-5.985 0-10.836 4.889-10.836 10.92s4.851 10.92 10.836 10.92c5.985 0 10.836-4.889 10.836-10.92s-4.852-10.92-10.836-10.92zM21.69 11.85c0.518 0 1.092 0.214 1.218 0.625 0.191 0.618 0.492 1.596 0.843 2.737-0.255 0.521-1.125 0.856-2.061 0.856s-1.807-0.335-2.062-0.856c0.352-1.141 0.653-2.12 0.843-2.737 0.127-0.412 0.701-0.625 1.218-0.625zM24.515 17.689c0.317 1.031 0.641 2.080 0.937 3.042-0.101 1.023-1.769 1.806-3.762 1.806h-0c-1.993 0-3.66-0.784-3.761-1.806 0.296-0.962 0.619-2.011 0.937-3.041 0.221 0.735 1.438 1.254 2.825 1.254s2.604-0.518 2.825-1.254zM17.5 22.031l-0.36 1.164c0.018 1.234 2.088 2.217 4.55 2.217s4.532-0.983 4.55-2.217l-0.36-1.164 3.131 1.459c0.878 0.409 0.915 1.167 0.082 1.684l-5.888 3.653c-0.833 0.517-2.196 0.517-3.028 0l-5.888-3.653c-0.833-0.517-0.796-1.274 0.082-1.684z"></path>
</svg>
