<!-- Generated by IcoMoon.io -->
<svg version="1.1" xmlns="http://www.w3.org/2000/svg" width="32" height="32" viewBox="0 0 32 32">
<title>atti_autorizzazione</title>
<path fill="#464545" d="M29.187 26.375h-9.375c-1.551 0-2.812 1.262-2.812 2.812v2.812h15v-2.812c0-1.551-1.262-2.812-2.812-2.812z"></path>
<path fill="#464545" d="M6.81 10.606l10.606-10.606 2.652 2.652-10.606 10.606-2.652-2.652z"></path>
<path fill="#464545" d="M18.741 22.539l10.606-10.606 2.652 2.652-10.606 10.606-2.652-2.652z"></path>
<path fill="#464545" d="M12.112 13.258l7.955-7.955 6.629 6.629-7.955 7.955-6.629-6.629z"></path>
<path fill="#464545" d="M12.545 16.342l-1.441 1.21 3.343 3.343 1.211-1.441z"></path>
<path fill="#464545" d="M9.663 18.763l-8.436 7.166c-1.544 1.297-1.646 3.638-0.22 5.064s3.767 1.324 5.064-0.22l7.166-8.436-3.574-3.574z"></path>
</svg>
