<!-- Generated by IcoMoon.io -->
<svg version="1.1" xmlns="http://www.w3.org/2000/svg" width="32" height="32" viewBox="0 0 32 32">
<title>avvio_procedimento</title>
<path fill="#464545" d="M15.998 0.225c-0.405 0-0.8 0.031-1.198 0.061l-1.386 4.297c-1.054 0.226-2.054 0.592-2.985 1.075l-3.812-2.394c-0.649 0.468-1.266 0.976-1.837 1.533l1.69 4.156c-0.659 0.845-1.21 1.776-1.624 2.78l-4.416 0.611c-0.194 0.766-0.351 1.546-0.431 2.352l3.963 2.097c0.045 1.104 0.228 2.174 0.552 3.181l-2.99 3.306c0.348 0.721 0.735 1.421 1.183 2.077l4.401-0.945c0.722 0.785 1.544 1.473 2.451 2.042l-0.167 4.504c0.723 0.326 1.474 0.599 2.248 0.817l2.785-3.579c0.494 0.063 0.994 0.106 1.505 0.106 0.553 0 1.094-0.050 1.626-0.123l2.799 3.599c0.775-0.218 1.525-0.491 2.248-0.817l-0.043-1.147c-4.318-0.328-7.761-3.783-8.071-8.106-2.388-0.636-4.146-2.812-4.146-5.399 0-3.087 2.501-5.588 5.588-5.588 1.762 0 3.334 0.817 4.358 2.092 0.92-0.328 1.912-0.507 2.945-0.507 2.808 0 5.307 1.32 6.912 3.374l1.855-0.981c-0.081-0.805-0.237-1.585-0.432-2.352l-4.559-0.631c-0.395-0.951-0.916-1.833-1.529-2.642l1.738-4.275c-0.571-0.557-1.188-1.065-1.838-1.533l-3.871 2.43c-0.908-0.478-1.886-0.84-2.913-1.073l-1.399-4.335c-0.397-0.029-0.794-0.061-1.198-0.061z"></path>
<path fill="#2ab22a" d="M23.213 12.284c-4.842 0-8.767 3.925-8.767 8.767s3.925 8.767 8.767 8.767c4.842 0 8.767-3.925 8.767-8.767s-3.925-8.767-8.767-8.767zM21.805 26.917l-2.133-2.135 3.732-3.732-3.732-3.732 2.133-2.133 5.865 5.865-5.865 5.867z"></path>
</svg>
