<!-- Generated by IcoMoon.io -->
<svg version="1.1" xmlns="http://www.w3.org/2000/svg" width="32" height="32" viewBox="0 0 32 32">
<title>billing_account</title>
<path fill="#464545" d="M0 5.058v18.823h11.604c-0.172-0.693-0.274-1.491-0.281-2.312l-0-0.005h-8.996v-14.19h27.345v5.399c0.091 0.466 0.14 0.949 0.14 1.445s-0.049 0.979-0.14 1.445v0.256c1.027 1.571 1.642 3.501 1.649 5.577v0.029c-0.004 0.838-0.107 1.65-0.296 2.426l0.015-0.070h0.96v-18.823h-32z"></path>
<path fill="#464545" d="M16 10.836c-2.516 0-4.555 1.765-4.555 3.943 0 0.821 0.29 1.583 0.785 2.214 1.229-2.658 3.475-4.653 6.212-5.484l0.071-0.018c-0.72-0.413-1.584-0.654-2.512-0.654l-0-0z"></path>
<path fill="#464545" d="M8.423 14.47c0 1.037-0.841 1.878-1.878 1.878s-1.878-0.841-1.878-1.878c0-1.037 0.841-1.878 1.878-1.878s1.878 0.841 1.878 1.878z"></path>
<path fill="#464545" d="M5.524 20.261c0-1.038-0.845-1.878-1.888-1.878-0.128 0-0.239 0.048-0.359 0.071l-3.277-3.261v8.687h8.727l-3.276-3.261c0.025-0.12 0.073-0.233 0.073-0.359z"></path>
<path fill="#464545" d="M0 13.746l3.276-3.261c0.121 0.025 0.233 0.072 0.361 0.072 1.043 0 1.887-0.841 1.887-1.879 0-0.127-0.048-0.237-0.073-0.358l3.277-3.262h-8.727v8.688z"></path>
<path fill="#464545" d="M32 15.194l-1.837 1.828c0.617 1.279 0.981 2.782 0.989 4.372v0.030c-0.005 0.875-0.116 1.721-0.322 2.528l0.015-0.071h1.154v-8.688z"></path>
<path fill="#464545" d="M23.273 5.058l3.276 3.261c-0.025 0.12-0.073 0.232-0.073 0.359 0 1.038 0.845 1.878 1.888 1.878 0.128 0 0.239-0.048 0.359-0.071l3.277 3.261v-8.688h-8.727z"></path>
<path fill="#219db0" d="M21.266 10.523c-5.94 0-10.755 4.791-10.755 10.702s4.815 10.702 10.755 10.702 10.755-4.791 10.755-10.702c0-5.91-4.815-10.702-10.755-10.702zM21.329 11.6c3.39 0 3.974 2.027 3.974 4.528s-1.779 4.528-3.974 4.528c-2.195 0-3.974-2.027-3.974-4.528s0.584-4.528 3.974-4.528zM19.132 21.024c0 0 0.653 0.781 2.176 0.781s2.176-0.781 2.176-0.781c4.641 0.786 5.247 2.027 5.321 6.384v0c0.005 0.279 0.007 0.327 0.009 0.302-0 0.074-0 0.182-0 0.338 0 0-1.105 2.090-7.505 2.090s-7.505-2.090-7.505-2.090c0-0.243-0-0.382-0.001-0.458 0.001 0.040 0.004 0.022 0.011-0.324 0.085-4.242 0.728-5.465 5.318-6.242z"></path>
</svg>
