<!-- Generated by IcoMoon.io -->
<svg version="1.1" xmlns="http://www.w3.org/2000/svg" width="32" height="32" viewBox="0 0 32 32">
<title>cambiopwd</title>
<path fill="#464545" d="M21.108 16.733c1.558-1.664 2.142-4.126 1.304-6.406-0.604-1.638-1.828-2.867-3.31-3.524 0.056-0.322 0.090-0.652 0.090-0.992 0-3.211-2.573-5.811-5.749-5.811s-5.747 2.6-5.747 5.81c0 1.22 0.372 2.348 1.006 3.284-0.919 1.085-1.474 2.482-1.474 4.013 0 2.43 1.397 4.536 3.432 5.562v2.808c0 0 2.209 0.178 2.209 1.53 0 0.94-1.138 1.318-1.789 1.69-0.286 0.164-0.928 0.512-0.013 0.99 0.492 0.262 1.745 0.572 1.745 1.792 0 1.222-2.034 1.806-2.034 1.806l2.715 2.714 2.734-2.732v-9.692l0.63 1.718c0 0 2.135-0.6 2.602 0.67 0.324 0.882-0.612 1.634-1.094 2.206-0.212 0.254-0.696 0.804 0.33 0.934 0.55 0.074 1.836-0.064 2.256 1.078 0.422 1.148-1.286 2.396-1.286 2.396l3.486 1.608 1.62-3.508-3.664-9.945zM13.445 0.934c2.663 0 4.82 2.184 4.82 4.876 0 0.23-0.034 0.45-0.064 0.67-1.202-0.324-2.514-0.3-3.772 0.162-0.216 0.078-0.418 0.17-0.618 0.266-0.124-0.006-0.242-0.017-0.366-0.017-1.558 0-2.975 0.578-4.067 1.524-0.473-0.755-0.757-1.646-0.757-2.605 0-2.692 2.16-4.876 4.824-4.876zM14.728 12.356h-2.676c0.016-0.298 0.062-0.589 0.138-0.874 0.402 0.090 0.824 0.143 1.254 0.143 1.35 0 2.586-0.474 3.566-1.26 0.232 0.286 0.422 0.604 0.578 0.94l-2.86 1.052zM14.192 8.714c0.808 0.134 1.546 0.472 2.152 0.972-0.808 0.618-1.806 1-2.9 1-0.32 0-0.63-0.034-0.932-0.096 0.369-0.756 0.937-1.414 1.68-1.877zM10.905 9.941c-0.124-0.080-0.242-0.166-0.36-0.256 0.236-0.194 0.495-0.356 0.766-0.5-0.152 0.242-0.288 0.494-0.406 0.755zM17.511 8.414c-0.152-0.132-0.312-0.258-0.474-0.374 0.21 0.021 0.418 0.052 0.62 0.1-0.051 0.092-0.093 0.188-0.145 0.274zM8.943 12.356c0.143-0.744 0.476-1.42 0.934-1.99 0.223 0.178 0.458 0.34 0.708 0.482-0.134 0.49-0.208 0.994-0.218 1.508 0 0-1.424 0-1.424 0zM19.181 10.718c-0.246-0.596-0.588-1.14-0.997-1.624 0.142-0.204 0.264-0.42 0.376-0.64 0.804 0.376 1.506 0.97 1.984 1.764l-1.363 0.501z"></path>
</svg>
