<!-- Generated by IcoMoon.io -->
<svg version="1.1" xmlns="http://www.w3.org/2000/svg" width="32" height="32" viewBox="0 0 32 32">
<title>campioniAtti</title>
<path fill="#4d4d4d" d="M19.239 14.667h-6.477c-0.736 0-1.333-0.597-1.333-1.333s0.597-1.333 1.333-1.333h6.476c0.736 0 1.333 0.597 1.333 1.333 0.001 0.736-0.596 1.333-1.332 1.333z"></path>
<path fill="#4d4d4d" d="M30.667 29.333h-29.333c-0.736 0-1.333-0.597-1.333-1.333s0.597-1.333 1.333-1.333h29.333c0.736 0 1.333 0.597 1.333 1.333s-0.597 1.333-1.333 1.333z"></path>
<path fill="#4d4d4d" d="M4 29.333c-0.736 0-1.333-0.597-1.333-1.333v-12c0-2.205 1.795-4 4-4h0.667c0.736 0 1.333 0.597 1.333 1.333s-0.597 1.333-1.333 1.333h-0.667c-0.735 0-1.333 0.599-1.333 1.333v12c0 0.736-0.597 1.333-1.333 1.333z"></path>
<path fill="#4d4d4d" d="M28 29.333c-0.736 0-1.333-0.597-1.333-1.333v-12c0-0.735-0.599-1.333-1.333-1.333h-0.667c-0.736 0-1.333-0.597-1.333-1.333s0.597-1.333 1.333-1.333h0.667c2.205 0 4 1.795 4 4v12c0 0.736-0.597 1.333-1.333 1.333z"></path>
<path fill="#00bcd4" d="M9.652 25.316c-1.735-0.177-2.985-1.761-2.985-3.505 0-5.048 0-17.811 0-17.811h6.667v18c0 1.953-1.688 3.519-3.681 3.316z"></path>
<path fill="#ffc107" d="M21.652 25.316c-1.735-0.177-2.985-1.761-2.985-3.505 0-5.048 0-17.811 0-17.811h6.667v18c0 1.953-1.688 3.519-3.681 3.316z"></path>
<path fill="#4d4d4d" d="M13.333 5.333h-6.667c-0.736 0-1.333-0.597-1.333-1.333s0.597-1.333 1.333-1.333h6.667c0.736 0 1.333 0.597 1.333 1.333s-0.597 1.333-1.333 1.333z"></path>
<path fill="#4d4d4d" d="M25.333 5.333h-6.667c-0.736 0-1.333-0.597-1.333-1.333s0.597-1.333 1.333-1.333h6.667c0.736 0 1.333 0.597 1.333 1.333s-0.597 1.333-1.333 1.333z"></path>
</svg>
