<!-- Generated by IcoMoon.io -->
<svg version="1.1" xmlns="http://www.w3.org/2000/svg" width="32" height="32" viewBox="0 0 32 32">
<title>carica_pratica_pregressa</title>
<path fill="#464545" d="M3.555 1.333c-0.491 0-0.889 0.398-0.889 0.889v3.556h-0.889c-0.982 0-1.778 0.796-1.778 1.778v21.333c0 0.982 0.796 1.778 1.778 1.778h24.889c0.833 0 1.556-0.579 1.734-1.392l0.002-0.008h-16.743v-3.062h-2.866v-3.002c0-1.427 0.838-2.575 1.874-2.575h6.977v-6.158c-1.224-0.724-2.126-1.932-2.443-3.359h-6.313c-0.833 0-1.556 0.579-1.736 1.392 0 0-3.596 16.257-3.596 16.385h-0.001v-26.667h17.778v2.625c0.307 0.060 0.604 0.147 0.889 0.258v-2.883c0-0.491-0.399-0.889-0.889-0.889h-17.778zM7.052 4.385c-0.491 0-0.889 0.398-0.889 0.889s0.398 0.889 0.889 0.889h9.679c0.511-0.479 1.119-0.856 1.791-1.1-0.095-0.389-0.445-0.678-0.863-0.678h-10.607zM23.496 5.82c0.563 0.429 1.036 0.969 1.386 1.587-0.065-0.783-0.636-1.421-1.386-1.587zM1.778 7.555h0.889v21.333h-0.889v-21.333zM7.052 8c-0.491 0-0.889 0.398-0.889 0.889s0.398 0.889 0.889 0.889h8.029c0.023-0.627 0.157-1.226 0.383-1.778h-8.412zM25.518 9.333c0.026 0.21 0.039 0.424 0.039 0.64 0 1.797-0.909 3.381-2.293 4.321v6.333h6.379c0.226 0 0.443 0.054 0.645 0.153l1.668-7.507c0.118-0.526-0.011-1.077-0.348-1.498l0-0c-0.338-0.42-0.847-0.666-1.386-0.666h-1.778c0-0.982-0.796-1.778-1.778-1.778h-1.149z"></path>
<path fill="#464545" d="M13.349 26.309h14.166v1.924h-14.166v-1.924z"></path>
<path fill="#464545" d="M16.869 10.024c0-1.899 1.542-3.437 3.446-3.437s3.446 1.538 3.446 3.437c0 1.899-1.542 3.437-3.446 3.437s-3.446-1.538-3.446-3.437z"></path>
<path fill="#464545" d="M19.134 12.813h2.506v7.813h-2.506v-7.813z"></path>
<path fill="#464545" d="M28.38 21.849h-15.882c-0.868 0-1.569 0.655-1.569 1.469v1.712h19.038v-1.712c0-0.814-0.714-1.469-1.587-1.469z"></path>
</svg>
