<!-- Generated by IcoMoon.io -->
<svg version="1.1" xmlns="http://www.w3.org/2000/svg" width="32" height="32" viewBox="0 0 32 32">
<title>caselleemail</title>
<path fill="#464545" d="M31.888 15.554l-2.555-3.832v-4.356c0-0.252-0.142-0.482-0.366-0.595-0.225-0.113-0.496-0.090-0.697 0.059l-10.888 8.037c-0.861 0.523-2.014 0.486-2.793-0.016l-10.861-8.023c-0.203-0.149-0.471-0.173-0.697-0.059-0.224 0.113-0.366 0.343-0.366 0.595v4.358l-2.555 3.832c-0.054 0.074-0.112 0.218-0.112 0.369 0 0.021 0 10.001 0 10.001 0 1.471 1.197 2.667 2.667 2.667h26.667c1.47 0 2.667-1.196 2.667-2.667 0 0 0-10.039 0-10.059 0-0.068-0.050-0.226-0.112-0.311zM25.333 15.257c-1.47 0-2.667 1.196-2.667 2.667 0 0.735-0.598 1.333-1.333 1.333h-10.667c-0.736 0-1.333-0.598-1.333-1.333 0-1.471-1.197-2.667-2.667-2.667h-4.754l0.997-1.496c0.116 0.097 0.26 0.163 0.424 0.163h3.333c1.975 0 3.678 1.474 3.96 3.428 0.048 0.328 0.328 0.572 0.66 0.572h9.427c0.332 0 0.612-0.244 0.66-0.572 0.281-1.954 1.984-3.428 3.96-3.428h3.333c0.163 0 0.308-0.065 0.424-0.163l0.997 1.496h-4.754z"></path>
<path fill="#464545" d="M4.616 4.645l10.701 7.907c0.049 0.036 0.104 0.066 0.161 0.088 0.039 0.014 0.158 0.059 0.508 0.059 0.32 0 0.552-0.053 0.763-0.192l10.637-7.862c0.216-0.159 0.315-0.432 0.253-0.692-0.064-0.26-0.276-0.458-0.54-0.501-0.142-0.023-0.284-0.042-0.431-0.042h-21.333c-0.147 0-0.29 0.018-0.431 0.042-0.264 0.044-0.477 0.242-0.539 0.502s0.037 0.533 0.253 0.692z"></path>
</svg>
