<!-- Generated by IcoMoon.io -->
<svg version="1.1" xmlns="http://www.w3.org/2000/svg" width="32" height="32" viewBox="0 0 32 32">
<title>clienti</title>
<path fill="#464545" d="M12.585 15.313c3.402 0 6.161-3.35 6.161-7.483s-0.906-7.483-6.161-7.483-6.161 3.35-6.161 7.483c0 4.133 2.758 7.483 6.161 7.483z"></path>
<path fill="#464545" d="M9.263 16.592c-7.117 1.284-8.114 3.305-8.245 10.315-0.011 0.572-0.016 0.603-0.018 0.536 0 0.125 0.001 0.355 0.001 0.756 0 0 1.713 3.453 11.635 3.453 2.062 0 3.768-0.149 5.179-0.386l-6.998-0.065 2.561-12.477 1.83-0.032 0.059-1.493c-0.546 0.334-1.407 0.682-2.632 0.682-2.361 0-3.374-1.291-3.374-1.291zM18.394 17.114c-0.039 0.468-0.051 0.861-0.051 0.861l-0 0 0.059 0.734 3.506 0.015c-0.839-0.686-1.976-1.195-3.514-1.611z"></path>
<path fill="#464545" d="M26.88 19.498v-2.517h-0.001c-0.001-3.106-2.431-5.623-5.429-5.623s-5.429 2.518-5.429 5.624v0 2.516h-1.964l-1.924 10.475 19.355 0.189-2.645-10.663h-1.963zM17.736 16.983c0 0 0 0 0 0 0-2.122 1.666-3.848 3.714-3.848 2.049 0 3.716 1.726 3.716 3.848 0 0 0 0 0 0v2.517h-7.43v-2.516z"></path>
</svg>
