<!-- Generated by IcoMoon.io -->
<svg version="1.1" xmlns="http://www.w3.org/2000/svg" width="32" height="32" viewBox="0 0 32 32">
<title>configurazione_flussi_modellati</title>
<path fill="#f2641d" d="M0 20.75v7.5l6.625 3.75v-7.5z"></path>
<path fill="#f2641d" d="M8.5 24.5v7.5l6.562-3.75v-7.5z"></path>
<path fill="#219db0" d="M16.938 20.75v7.5l6.562 3.75v-7.5z"></path>
<path fill="#219db0" d="M25.375 24.5v7.5l6.625-3.75v-7.5z"></path>
<path fill="#219db0" d="M24.437 15.125l-7.235 3.617 7.235 4.134 7.297-4.134z"></path>
<path fill="#2ab22a" d="M16 0h-0l-7.234 3.617 7.235 4.134 7.235-4.134z"></path>
<path fill="#2ab22a" d="M8.5 5.625v7.872l6.562 3.281v-7.403z"></path>
<path fill="#f2641d" d="M7.563 15.125l-7.297 3.617 7.297 4.134 7.235-4.134z"></path>
<path fill="#2ab22a" d="M16.938 9.375v7.403l6.562-3.281v-7.872z"></path>
</svg>
