<!-- Generated by IcoMoon.io -->
<svg version="1.1" xmlns="http://www.w3.org/2000/svg" width="32" height="32" viewBox="0 0 32 32">
<title>conservazione</title>
<path fill="#464545" d="M12.043 8.516c-2.935 0-5.323 2.388-5.323 5.323s2.388 5.323 5.323 5.323 5.323-2.388 5.323-5.323-2.388-5.323-5.323-5.323zM12.043 16.5c-1.47 0-2.662-1.191-2.662-2.662 0-1.162 0.746-2.151 1.785-2.513l0.508-1.065c0.068-0.142 0.211-0.233 0.369-0.233s0.301 0.091 0.369 0.233l0.508 1.065c1.039 0.363 1.785 1.35 1.785 2.513 0 1.47-1.192 2.662-2.662 2.662z"></path>
<path fill="#464545" d="M29.055 0h-26.11c-1.554 0-2.814 1.26-2.814 2.814v23.491c0 1.554 1.26 2.814 2.814 2.814h0.614v2.253c0 0.347 0.281 0.628 0.628 0.628h4.507c0.347 0 0.628-0.281 0.628-0.628v-2.253h13.358v2.253c0 0.347 0.281 0.628 0.628 0.628h4.507c0.347 0 0.628-0.281 0.628-0.628v-2.253h0.614c1.554 0 2.814-1.26 2.814-2.814v-23.491c0-1.554-1.26-2.814-2.814-2.814zM12.043 21.697c-4.333 0-7.858-3.525-7.858-7.858s3.525-7.858 7.858-7.858 7.858 3.525 7.858 7.858c0 4.333-3.525 7.858-7.858 7.858zM26.833 13.727v3.55c0 0.829-0.675 1.504-1.504 1.504s-1.504-0.675-1.504-1.504v-3.55c-0.674-0.474-1.115-1.257-1.115-2.144 0-1.447 1.173-2.619 2.619-2.619s2.619 1.173 2.619 2.619c0 0.887-0.441 1.67-1.115 2.144z"></path>
</svg>
