<!-- Generated by IcoMoon.io -->
<svg version="1.1" xmlns="http://www.w3.org/2000/svg" width="32" height="32" viewBox="0 0 32 32">
<title>consultazione_documenti</title>
<path fill="#464545" d="M17.027 0l-7.227 16.938 2.349 1.002c0.168-0.131 0.358-0.24 0.567-0.321l1.769-0.685-2.173-0.927 5.782-13.55 7.151 3.052-1.445 3.388 3.576 1.526-1.402 3.285c0.287 0.236 0.519 0.546 0.663 0.917l0.504 1.302 2.746-6.435-2.13-4.913-10.727-4.577z"></path>
<path fill="#464545" d="M1.071 0.267v17.494h0v0.921h9.567v-0.749c0-0.604 0.846-1.093 1.891-1.093h-9.514v-14.732h7.775v3.683h3.888v2.616l1.802-4.592-3.746-3.548h-11.663z"></path>
<path fill="#464545" d="M11.94 18.672l4.298 10.842 10.271-4.072-1.433-3.614 3.424-1.357-2.865-7.228-13.695 5.429zM10.368 17.205l16.263-6.447 4.298 10.842-1.991 4.971-13.695 5.429-5.731-14.456 0.856-0.339z"></path>
</svg>
