<!-- Generated by IcoMoon.io -->
<svg version="1.1" xmlns="http://www.w3.org/2000/svg" width="32" height="32" viewBox="0 0 32 32">
<title>contenuto_foglio_importato</title>
<path fill="#464545" d="M3.96 0c-0.692 0-1.255 0.563-1.255 1.255v10.191h-0.768c-0.991 0-1.794 0.803-1.794 1.793v9.327c0 0.99 0.803 1.794 1.794 1.794h0.768v6.385c0 0.692 0.562 1.255 1.255 1.255h20.706c0.692 0 1.255-0.563 1.255-1.255v-0.346c-0.732 0.264-1.576 0.419-2.456 0.423h-0.002c-0.879-0.002-1.722-0.155-2.505-0.433l0.053 0.016h-17.051v-6.045h12.055c-0.049-0.31-0.079-0.671-0.082-1.037l-0-0.004c0.002-0.632 0.083-1.243 0.231-1.828l-0.011 0.052c-0.624 0.498-1.547 0.808-2.788 0.808-1.070 0-2.127-0.279-2.655-0.57l0.431-1.752c0.57 0.293 1.446 0.584 2.35 0.584 0.973 0 1.488-0.403 1.488-1.015-0-0.584-0.445-0.918-1.571-1.32l-0 0c-1.557-0.542-2.572-1.404-2.572-2.766 0-1.599 1.334-2.823 3.545-2.823 1.057 0 1.835 0.222 2.391 0.473l-0.472 1.71c-0.375-0.181-1.042-0.445-1.96-0.445s-1.362 0.417-1.362 0.904c0 0.598 0.528 0.862 1.738 1.321 1.567 0.579 2.348 1.384 2.426 2.59 0.543-0.831 1.218-1.527 2.003-2.078l0.024-0.016-1.38-4.306h2.322l0.964 3.351c0.656-0.229 1.414-0.37 2.201-0.391l0.010-0 0.884-2.96h2.253l-1.079 3.203c1.22 0.322 2.276 0.905 3.148 1.688l-0.007-0.006v-4.488c0-0.991-0.803-1.794-1.793-1.794h-0.768v-3.708c0-0.023-0.004-0.046-0.007-0.070-0.001-0.147-0.048-0.292-0.149-0.406l-6.17-7.048c-0.002-0.002-0.004-0.003-0.005-0.004-0.037-0.041-0.080-0.075-0.125-0.105-0.013-0.009-0.027-0.017-0.041-0.024-0.039-0.021-0.081-0.039-0.124-0.052-0.012-0.003-0.022-0.008-0.034-0.011-0.047-0.011-0.095-0.018-0.144-0.018h-15.163zM3.96 1.255h14.536v6.42c0 0.347 0.281 0.627 0.628 0.627h5.543v3.143h-20.706v-10.191zM7.483 12.69c1.099 0 1.933 0.222 2.308 0.417l-0.431 1.682c-0.431-0.18-1.029-0.347-1.78-0.347-1.682 0-2.989 1.014-2.989 3.099 0 1.877 1.112 3.058 3.003 3.058 0.639 0 1.348-0.139 1.765-0.306l0.32 1.654c-0.389 0.195-1.265 0.404-2.405 0.404-3.239 0-4.908-2.016-4.908-4.686 0-3.197 2.28-4.977 5.116-4.977z"></path>
<path fill="#219db0" d="M23.354 13.792c-5.101 0-9.236 4.129-9.236 9.222s4.135 9.222 9.236 9.222c5.101 0 9.236-4.129 9.236-9.222s-4.135-9.222-9.236-9.222zM22.358 16.75c2.659 0.001 4.813 2.256 4.813 5.039-0 0.954-0.259 1.844-0.7 2.605l3.272 3.424-1.623 1.7-3.273-3.425c-0.727 0.461-1.577 0.732-2.49 0.732-2.659 0-4.814-2.255-4.814-5.036 0-2.783 2.155-5.038 4.814-5.039zM22.357 18.672c-1.644 0.004-2.975 1.395-2.978 3.117 0.003 1.72 1.333 3.112 2.978 3.116 1.643-0.004 2.974-1.395 2.978-3.116-0.003-1.721-1.334-3.113-2.978-3.117z"></path>
</svg>
