<!-- Generated by IcoMoon.io -->
<svg version="1.1" xmlns="http://www.w3.org/2000/svg" width="32" height="32" viewBox="0 0 32 32">
<title>contratti_new</title>
<path fill="#454545" d="M18.908 8.259c-1.030 1.541-1.935 3.372-2.077 3.686-0.041 0.091-0.105 0.305-0.177 0.567-0.502-0.702-1.115-1.282-1.847-1.708-1.045-0.607-2.246-0.858-3.543-0.797 0.313-0.492 0.598-0.998 0.735-1.392 0.352-1.010 1.627-5.182 2.373-6.963s3.585-0.514 5.235 0.414 1.742 2.071 1.575 2.386c-0.167 0.315-1.242 2.266-2.272 3.807z"></path>
<path fill="#454545" d="M12.582 13.999c-2.194-0.895-2.664 0.191-2.664 0.191-0.695-0.638-0.21-1.392-0.21-1.392s-0.176-0.323 0.109-0.655c0.174-0.202 0.735-0.936 1.225-1.707 1.297-0.060 2.498 0.19 3.543 0.797 0.732 0.426 1.345 1.006 1.847 1.708-0.179 0.647-0.408 1.596-0.467 1.761-0.084 0.232-0.301 0.547-0.503 0.588s-0.318 0.232-0.318 0.232c-0.26 0.522-1.072 0.555-1.072 0.555s0.704-1.184-1.49-2.078z"></path>
<path fill="#454545" d="M11.131 13.904c-0.575-0.004-0.99 0.169-1.146 0.425 0 0-2.076 4.38-3.784 6.7 0 0-0.167 0.1 0 1.193s0.131 1.568-0.23 3.755c0 0-0.010 0.068 0.001 0.147-1.942 0.176-3.91 0.482-5.843 0.395 0.001 0.249 0.003 0.49 0.004 0.69 1.311 0.075 2.581-0.023 4.488-0.26 1.559-0.194 2.141-0.894 1.587-0.847-0.018 0.002-0.037 0.003-0.055 0.005l2.487-5.557c-0.121-0.178-0.129-0.47 0.002-0.747 0.173-0.368 0.522-0.569 0.78-0.451s0.327 0.513 0.153 0.88c-0.12 0.254-0.323 0.425-0.522 0.47l-2.608 5.777c0 0 0.176 0.132 0.419-0.215s2.066-2.583 4.303-3.221c0 0 0.385-0.108 0.469-0.331l2.387-6.961c0 0 0.101-0.853-1.307-1.474-0.594-0.262-1.138-0.372-1.585-0.376zM0.641 22.573c-0.030 0.196-0.065 0.391-0.104 0.587 0.002 0.050 0.003 0.097 0 0.135-0.003 0.044-0.023 0.085-0.042 0.126 0.476 0.192 0.909 0.362 1.25 0.504-0.442 0.203-0.908 0.336-1.382 0.444-0.014 0.171-0.029 0.343-0.043 0.514-0.010 0.099-0.019 0.198-0.028 0.297 0.936-0.195 1.87-0.412 2.657-0.956 0.225-0.156 0.199-0.538-0.025-0.681-0.683-0.435-1.48-0.709-2.284-0.97zM-3.311 26.568c-0.005 0.045-0.010 0.090-0.014 0.135 0.009 0.002 0.018 0.004 0.026 0.005-0.004-0.047-0.008-0.093-0.012-0.14z"></path>
<path fill="#04b804" d="M21.238 10.366c-2.864-0.029-5.724 1.066-7.857 3.276-2.115 2.19-3.107 5.052-2.993 7.887l-0 0-0 0 0 0-0-0.004c0.109 2.709 1.23 5.39 3.35 7.429 4.335 4.17 11.204 4.077 15.342-0.209 2.023-2.096 3.019-4.805 3.002-7.511v-0.004c-0.018-2.833-1.143-5.665-3.358-7.796-2.1-2.020-4.794-3.040-7.484-3.067zM22.394 14.605l0.081 5.568 5.58-0.027 0.040 2.863-5.579 0.028 0.081 5.568v0l-2.869 0.013-0.080-5.568-5.579 0.028-0.042-2.863 5.58-0.027-0.080-5.568 2.869-0.015z"></path>
</svg>
