<!-- Generated by IcoMoon.io -->
<svg version="1.1" xmlns="http://www.w3.org/2000/svg" width="32" height="32" viewBox="0 0 32 32">
<title>def_attivita_proc</title>
<path fill="#464545" d="M29.655 0h-19.999c-0.22 0-0.416 0.099-0.551 0.253v0c-0.113 0.129-0.185 0.296-0.185 0.482v6.294h-2.92c-0.22 0-0.415 0.1-0.55 0.253v0.001c-0.114 0.128-0.185 0.296-0.185 0.482v6.295h-2.921c-0.22 0-0.416 0.099-0.55 0.253v0c-0.113 0.129-0.185 0.296-0.185 0.482v16.469c0 0.406 0.33 0.735 0.735 0.735h19.999c0.406 0 0.735-0.33 0.735-0.735v-6.295h2.921c0.405 0 0.735-0.329 0.735-0.735v-6.295h2.921c0.406 0 0.735-0.33 0.735-0.735v-16.469c-0-0.406-0.33-0.736-0.735-0.736zM25.76 1.142c0.46 0 0.833 0.372 0.833 0.832s-0.373 0.833-0.833 0.833c-0.46 0-0.833-0.373-0.833-0.833s0.373-0.832 0.833-0.832zM23.302 1.142c0.46 0 0.832 0.372 0.832 0.832s-0.373 0.833-0.832 0.833c-0.46 0-0.833-0.373-0.833-0.833s0.373-0.832 0.833-0.832zM21.417 30.272h-18.092v-11.764h18.091v11.764zM15.157 16.035c0-0.46 0.373-0.832 0.833-0.832s0.832 0.372 0.832 0.832-0.373 0.833-0.832 0.833c-0.46-0-0.833-0.373-0.833-0.833zM17.615 16.035c0-0.46 0.373-0.832 0.833-0.832s0.833 0.372 0.833 0.832-0.373 0.833-0.833 0.833c-0.461-0-0.833-0.373-0.833-0.833zM20.862 16.867c-0.46 0-0.833-0.373-0.833-0.833s0.373-0.832 0.833-0.832c0.46 0 0.833 0.372 0.833 0.832s-0.373 0.833-0.833 0.833zM25.073 23.242h-1.994v-8.446c0-0.406-0.33-0.736-0.736-0.736h-15.362v-2.583h18.092v11.765zM18.812 9.005c0-0.46 0.374-0.833 0.833-0.833s0.833 0.373 0.833 0.833-0.373 0.832-0.833 0.832c-0.46 0-0.833-0.372-0.833-0.832zM21.271 9.005c0-0.46 0.373-0.833 0.833-0.833s0.833 0.373 0.833 0.833-0.373 0.832-0.833 0.832-0.833-0.372-0.833-0.832zM24.518 9.837c-0.46 0-0.833-0.372-0.833-0.832s0.373-0.833 0.833-0.833c0.46 0 0.833 0.373 0.833 0.833s-0.374 0.832-0.833 0.832zM28.729 16.211h-1.994v-8.445c0-0.405-0.33-0.736-0.735-0.736h-15.362v-2.583h18.091v11.764zM28.174 2.807c-0.46 0-0.832-0.373-0.832-0.833s0.373-0.832 0.832-0.832c0.46 0 0.833 0.372 0.833 0.832s-0.373 0.833-0.833 0.833z"></path>
</svg>
