<!-- Generated by IcoMoon.io -->
<svg version="1.1" xmlns="http://www.w3.org/2000/svg" width="32" height="32" viewBox="0 0 32 32">
<title>deleghe</title>
<path fill="#464545" d="M13.814 15.825c3.468 0 6.28-3.415 6.28-7.628s-0.923-7.628-6.28-7.628-6.28 3.415-6.28 7.628c0 4.213 2.812 7.628 6.28 7.628z"></path>
<path fill="#464545" d="M10.403 16.078c-7.254 1.309-8.271 3.369-8.404 10.515-0.011 0.583-0.016 0.614-0.018 0.546 0 0.127 0.001 0.362 0.001 0.771 0 0 1.746 3.52 11.86 3.52 4.824 0 7.743-0.801 9.478-1.638h-8.493v-11.676h8.291c-1.249-0.942-3.098-1.543-5.837-2.038 0 0-1.032 1.316-3.439 1.316s-3.439-1.316-3.439-1.316z"></path>
<path fill="#464545" d="M13.789 17.281v13.184h16.231v-13.184h-16.231zM14.827 18.115h14.591v11.676h-14.591v-11.676z"></path>
<path fill="#464545" d="M28.478 19.991h-7.928c-0.016 0-0.032 0.013-0.032 0.032v0.761c0 0.016 0.013 0.032 0.032 0.032h7.928c0.016 0 0.032-0.013 0.032-0.032v-0.761c0-0.019-0.013-0.032-0.032-0.032z"></path>
<path fill="#454545" d="M18.656 26.523c0 0.563-0.445 1.019-0.994 1.019s-0.994-0.456-0.994-1.019c0-0.563 0.445-1.019 0.994-1.019s0.994 0.456 0.994 1.019z"></path>
<path fill="#464545" d="M20.55 22.675h3.746c0.016 0 0.032-0.013 0.032-0.032v-0.761c0-0.016-0.013-0.032-0.032-0.032h-3.746c-0.016 0-0.032 0.013-0.032 0.032v0.761c0.003 0.019 0.016 0.032 0.032 0.032z"></path>
<path fill="#464545" d="M28.478 24.941h-7.928c-0.016 0-0.032 0.013-0.032 0.032v0.761c0 0.016 0.013 0.032 0.032 0.032h7.928c0.016 0 0.032-0.013 0.032-0.032v-0.761c0-0.019-0.013-0.032-0.032-0.032z"></path>
<path fill="#464545" d="M20.55 27.625h3.746c0.016 0 0.032-0.013 0.032-0.032v-0.761c0-0.016-0.013-0.032-0.032-0.032h-3.746c-0.016 0-0.032 0.013-0.032 0.032v0.761c0.003 0.016 0.016 0.032 0.032 0.032z"></path>
<path fill="#464545" d="M17.187 21.557l-0.685-0.707-0.716 0.731 0.687 0.704 0.711 0.734 0.714-0.728 1.64-1.669-0.711-0.734z"></path>
</svg>
