<!-- Generated by IcoMoon.io -->
<svg version="1.1" xmlns="http://www.w3.org/2000/svg" width="32" height="32" viewBox="0 0 32 32">
<title>deleghe_definizione</title>
<path fill="#464545" d="M11.797 16.325c3.468 0 6.28-3.415 6.28-7.628s-0.923-7.628-6.28-7.628-6.28 3.415-6.28 7.628c0 4.213 2.812 7.628 6.28 7.628z"></path>
<path fill="#464545" d="M8.386 16.578c-7.254 1.309-8.271 3.369-8.404 10.515-0.011 0.583-0.016 0.614-0.018 0.546 0 0.127 0.001 0.362 0.001 0.771 0 0 1.746 3.52 11.86 3.52 4.824 0 7.743-0.801 9.478-1.638h-8.493v-11.676h8.291c-1.249-0.942-3.098-1.543-5.837-2.038 0 0-1.032 1.316-3.439 1.316s-3.439-1.316-3.439-1.316z"></path>
<path fill="#464545" d="M11.772 17.781v13.184h16.231v-13.184h-16.231zM12.81 18.615h14.591v11.676h-14.591v-11.676z"></path>
<path fill="#464545" d="M26.462 20.491h-7.928c-0.016 0-0.032 0.013-0.032 0.032v0.761c0 0.016 0.013 0.032 0.032 0.032h7.928c0.016 0 0.032-0.013 0.032-0.032v-0.761c0-0.019-0.013-0.032-0.032-0.032z"></path>
<path fill="#454545" d="M16.64 27.023c0 0.563-0.445 1.019-0.994 1.019s-0.994-0.456-0.994-1.019c0-0.563 0.445-1.019 0.994-1.019s0.994 0.456 0.994 1.019z"></path>
<path fill="#464545" d="M18.534 23.175h3.746c0.016 0 0.032-0.013 0.032-0.032v-0.761c0-0.016-0.013-0.032-0.032-0.032h-3.746c-0.016 0-0.032 0.013-0.032 0.032v0.761c0.003 0.019 0.016 0.032 0.032 0.032z"></path>
<path fill="#464545" d="M26.462 25.441h-7.928c-0.016 0-0.032 0.013-0.032 0.032v0.761c0 0.016 0.013 0.032 0.032 0.032h7.928c0.016 0 0.032-0.013 0.032-0.032v-0.761c0-0.019-0.013-0.032-0.032-0.032z"></path>
<path fill="#464545" d="M18.534 28.125h3.746c0.016 0 0.032-0.013 0.032-0.032v-0.761c0-0.016-0.013-0.032-0.032-0.032h-3.746c-0.016 0-0.032 0.013-0.032 0.032v0.761c0.003 0.016 0.016 0.032 0.032 0.032z"></path>
<path fill="#464545" d="M15.17 22.057l-0.685-0.707-0.716 0.731 0.687 0.704 0.711 0.734 0.714-0.728 1.64-1.669-0.711-0.734z"></path>
<path fill="#8c8c8c" d="M25.048 7.583c-1.014 0-1.835 0.821-1.835 1.835s0.821 1.835 1.835 1.835c0.232 0 0.452-0.048 0.657-0.127l0.393 0.604 0.639-0.416-0.391-0.6c0.331-0.332 0.537-0.79 0.537-1.296 0-1.014-0.821-1.835-1.835-1.835zM25.041 2.617c-3.774 0-6.833 3.059-6.833 6.833s3.059 6.833 6.833 6.833c3.774 0 6.833-3.059 6.833-6.833s-3.059-6.833-6.833-6.833zM29.824 11.711c-0.113 0.237-0.241 0.465-0.388 0.682l-1.485-0.319c-0.226 0.247-0.484 0.467-0.768 0.651l0.056 1.505c-0.238 0.108-0.483 0.198-0.738 0.268l-0.919-1.182c-0.175 0.024-0.353 0.040-0.534 0.040-0.167 0-0.332-0.014-0.494-0.035l-0.914 1.175c-0.254-0.071-0.501-0.161-0.738-0.268l0.055-1.479c-0.298-0.187-0.568-0.414-0.805-0.671l-1.445 0.309c-0.147-0.214-0.274-0.444-0.388-0.681l0.982-1.086c-0.106-0.331-0.166-0.682-0.181-1.045l-1.301-0.688c0.026-0.265 0.078-0.52 0.142-0.772l1.45-0.201c0.136-0.33 0.317-0.636 0.534-0.913l-0.556-1.364c0.188-0.183 0.39-0.35 0.603-0.503l1.252 0.786c0.306-0.158 0.634-0.279 0.98-0.353l0.455-1.411c0.131-0.010 0.261-0.020 0.394-0.020s0.263 0.010 0.394 0.020l0.459 1.424c0.338 0.077 0.659 0.196 0.957 0.353l1.271-0.798c0.214 0.153 0.417 0.32 0.604 0.503l-0.572 1.404c0.201 0.265 0.373 0.555 0.502 0.867l1.497 0.207c0.063 0.252 0.116 0.508 0.142 0.772l-1.348 0.713c-0.016 0.341-0.070 0.672-0.167 0.987l1.014 1.12z"></path>
</svg>
