<!-- Generated by IcoMoon.io -->
<svg version="1.1" xmlns="http://www.w3.org/2000/svg" width="32" height="32" viewBox="0 0 32 32">
<title>deleghe_attivadisattiva</title>
<path fill="#464545" d="M11.797 16.325c3.468 0 6.28-3.415 6.28-7.628s-0.923-7.628-6.28-7.628-6.28 3.415-6.28 7.628c0 4.213 2.812 7.628 6.28 7.628z"></path>
<path fill="#464545" d="M8.386 16.578c-7.254 1.309-8.271 3.369-8.404 10.515-0.011 0.583-0.016 0.614-0.018 0.546 0 0.127 0.001 0.362 0.001 0.771 0 0 1.746 3.52 11.86 3.52 4.824 0 7.743-0.801 9.478-1.638h-8.493v-11.676h8.291c-1.249-0.942-3.098-1.543-5.837-2.038 0 0-1.032 1.316-3.439 1.316s-3.439-1.316-3.439-1.316z"></path>
<path fill="#464545" d="M11.772 17.781v13.184h16.231v-13.184h-16.231zM12.81 18.615h14.591v11.676h-14.591v-11.676z"></path>
<path fill="#464545" d="M26.462 20.491h-7.928c-0.016 0-0.032 0.013-0.032 0.032v0.761c0 0.016 0.013 0.032 0.032 0.032h7.928c0.016 0 0.032-0.013 0.032-0.032v-0.761c0-0.019-0.013-0.032-0.032-0.032z"></path>
<path fill="#454545" d="M16.64 27.023c0 0.563-0.445 1.019-0.994 1.019s-0.994-0.456-0.994-1.019c0-0.563 0.445-1.019 0.994-1.019s0.994 0.456 0.994 1.019z"></path>
<path fill="#464545" d="M18.534 23.175h3.746c0.016 0 0.032-0.013 0.032-0.032v-0.761c0-0.016-0.013-0.032-0.032-0.032h-3.746c-0.016 0-0.032 0.013-0.032 0.032v0.761c0.003 0.019 0.016 0.032 0.032 0.032z"></path>
<path fill="#464545" d="M26.462 25.441h-7.928c-0.016 0-0.032 0.013-0.032 0.032v0.761c0 0.016 0.013 0.032 0.032 0.032h7.928c0.016 0 0.032-0.013 0.032-0.032v-0.761c0-0.019-0.013-0.032-0.032-0.032z"></path>
<path fill="#464545" d="M18.534 28.125h3.746c0.016 0 0.032-0.013 0.032-0.032v-0.761c0-0.016-0.013-0.032-0.032-0.032h-3.746c-0.016 0-0.032 0.013-0.032 0.032v0.761c0.003 0.016 0.016 0.032 0.032 0.032z"></path>
<path fill="#464545" d="M15.17 22.057l-0.685-0.707-0.716 0.731 0.687 0.704 0.711 0.734 0.714-0.728 1.64-1.669-0.711-0.734z"></path>
<path fill="#a50303" d="M25.691 12.245c0-1.576-1.406-2.853-3.142-2.853s-3.142 1.277-3.142 2.853c0 1.576 1.406 2.853 3.142 2.853s3.142-1.277 3.142-2.853z"></path>
<path fill="#464545" d="M29.924 12.423c0-1.672-1.491-3.032-3.325-3.032h-3.99c-1.834 0-3.325 1.36-3.325 3.032s1.491 3.032 3.325 3.032h3.99c1.834 0 3.325-1.36 3.325-3.032zM22.609 14.848c-1.465 0-2.66-1.090-2.66-2.425s1.195-2.425 2.66-2.425c1.465 0 2.66 1.090 2.66 2.425s-1.195 2.425-2.66 2.425z"></path>
<path fill="#2ab22a" d="M23.141 5.131c0-1.576 1.406-2.853 3.142-2.853s3.142 1.277 3.142 2.853c0 1.576-1.406 2.853-3.142 2.853s-3.142-1.277-3.142-2.853z"></path>
<path fill="#464545" d="M19.172 5.059c0-1.672 1.491-3.032 3.325-3.032h3.99c1.834 0 3.325 1.36 3.325 3.032s-1.491 3.032-3.325 3.032h-3.99c-1.834 0-3.325-1.36-3.325-3.032zM26.487 7.484c1.465 0 2.66-1.090 2.66-2.425s-1.195-2.425-2.66-2.425c-1.465 0-2.66 1.090-2.66 2.425s1.195 2.425 2.66 2.425z"></path>
</svg>
