<!-- Generated by IcoMoon.io -->
<svg version="1.1" xmlns="http://www.w3.org/2000/svg" width="32" height="32" viewBox="0 0 32 32">
<title>destinatari_fattura</title>
<path fill="#464545" d="M0 0v32h24.376v-1.388c-0.302 0.001-0.603 0-0.905-0.002-0.023 0.002-0.047 0.007-0.068-0-0.221-0.001-0.442-0.003-0.663-0.005-0.322 0.041-0.65 0.082-0.972 0.037-0.046-0.006-0.134 0.006-0.134-0.041-0.002-0.371 0.025-0.457 0.146-0.476l-19.904-0v-28.25h16.235v4.374h4.391v5.203c0.031-0.012 0.069-0.018 0.118-0.016 0.056 0.003 0.101 0.016 0.138 0.036 0.034-0.003 0.069-0.001 0.104 0.002 0.032-0.043 0.066-0.084 0.095-0.128 0.121 0.065 0.255 0.109 0.362 0.195 0.025 0.020 0.003 0.064 0 0.095-0.004 0.043-0.012 0.086-0.021 0.128-0.001 0.007-0.003 0.014-0.005 0.021 0.040-0.089 0.083-0.177 0.137-0.258 0.050-0.074 0.089-0.185 0.177-0.203 0.054-0.011 0.108-0.006 0.162 0.005 0.001-0.001 0.002-0.002 0.004-0.003 0.049-0.038 0.114-0.048 0.173-0.062 0.011-0.003-0.016 0.017-0.023 0.026-0.014 0.019-0.055 0.049-0.056 0.065 0.025 0.008 0.050 0.015 0.075 0.023 0.132 0.022 0.27 0.014 0.405 0.026 0.009 0.094 0.012 0.193 0.014 0.292 0.006 0.008 0.010 0.017 0.014 0.026v-6.797l-4.924-4.924h-19.451zM19.985 3.185l1.188 1.188h-1.188zM24.376 12.279c-0.002 0.019-0.004 0.037-0.006 0.056 0.001 0.101 0.001 0.202 0.001 0.303 0.002-0 0.003-0.001 0.005-0.001zM24.376 19.373c-0.113 0.006-0.181 0.025-0.223 0.047-0.006 0.051-0.011 0.103-0.017 0.154 0.031 0.123 0.013 0.189-0.072 0.203-0.071 0.265-0.167 0.515-0.285 0.746 0.090-0.077 0.181-0.146 0.247-0.147 0.078-0.001 0.122 0.093 0.092 0.377 0.034 0.016 0.068 0.031 0.103 0.043-0.008 0.005-0.018 0.008-0.025 0.014-0.032 0.026-0.064 0.052-0.095 0.078-0.003 0.021-0.007 0.043-0.011 0.066-0.001 0.003-0.026 0.028-0.061 0.061 0.054 0.064 0.104 0.136 0.162 0.191-0.008 0.006-0.015 0.012-0.022 0.018 0.065-0.016 0.136-0.034 0.207-0.051v-1.696c-0.024 0.018-0.048 0.034-0.040 0.017 0.006-0.014 0.022-0.029 0.040-0.045zM22.109 30.125c-0.002 0.019-0.004 0.036-0.005 0.052 0.012-0 0.023-0.001 0.035-0.001 0.001-0.017 0.003-0.036 0.004-0.052zM21.81 30.155c-0.006 0.001-0.017 0.008-0.012 0.008 0.006 0.001 0.011 0.001 0.017 0.002-0-0.003-0-0.005-0.001-0.008-0-0.001-0.002-0.002-0.004-0.001z"></path>
<path fill="#464545" d="M4.544 14.038h6.872v-9.214h-6.872v9.214zM6.387 6.667h3.186v5.528h-3.186v-5.528z"></path>
<path fill="#464545" d="M4.864 18.123h5.973v1.643h-5.973v-1.643z"></path>
<path fill="#464545" d="M4.864 21.408h5.973v1.643h-5.973v-1.643z"></path>
<path fill="#464545" d="M4.864 24.694h5.973v1.643h-5.973v-1.643z"></path>
<path fill="#464545" d="M13.061 8.266h5.973v1.643h-5.973v-1.643z"></path>
<path fill="#219db0" d="M21.259 10.523c-5.938 0-10.752 4.791-10.752 10.702s4.814 10.702 10.752 10.702 10.752-4.791 10.752-10.702c0-5.91-4.814-10.702-10.752-10.702zM21.322 11.6c3.388 0 3.972 2.027 3.972 4.528s-1.779 4.528-3.972 4.528c-2.194 0-3.972-2.027-3.972-4.528s0.584-4.528 3.972-4.528zM19.126 21.024c0 0 0.653 0.781 2.175 0.781s2.175-0.781 2.175-0.781c4.639 0.786 5.246 2.027 5.319 6.384v0c0.005 0.279 0.007 0.327 0.009 0.302-0 0.074-0 0.182-0 0.338 0 0-1.105 2.090-7.502 2.090s-7.502-2.090-7.502-2.090c0-0.243-0-0.382-0.001-0.458 0.001 0.040 0.004 0.022 0.011-0.324 0.085-4.242 0.728-5.465 5.316-6.242z"></path>
</svg>
