<!-- Generated by IcoMoon.io -->
<svg version="1.1" xmlns="http://www.w3.org/2000/svg" width="32" height="32" viewBox="0 0 32 32">
<title>diagrammi</title>
<path fill="#464545" d="M10.063 11.938v8.125h11.875v-8.125h-11.875zM20.063 18.188h-8.125v-4.375h8.125v4.375z"></path>
<path fill="#464545" d="M10.063 0v8.125h11.875v-8.125h-11.875zM20.063 6.25h-8.125v-4.375h8.125v4.375z"></path>
<path fill="#464545" d="M10.063 23.875v8.125h11.875v-8.125h-11.875zM20.063 30.125h-8.125v-4.375h8.125v4.375z"></path>
<path fill="#464545" d="M26.388 3.125l1.051-1.051-1.326-1.326-3.315 3.315 3.315 3.315 1.326-1.326-1.051-1.051h3.049v10.063h-4.688v1.875h6.563v-13.813z"></path>
<path fill="#464545" d="M5.886 24.623l-1.326 1.326 1.051 1.051h-3.049v-10.063h4.688v-1.875h-6.563v13.813h4.924l-1.051 1.051 1.326 1.326 3.315-3.315z"></path>
</svg>
