<!-- Generated by IcoMoon.io -->
<svg version="1.1" xmlns="http://www.w3.org/2000/svg" width="32" height="32" viewBox="0 0 32 32">
<title>documentiPdV</title>
<path fill="#454545" d="M3.174 6.478l11.459 2.219c0.406 0.079 0.877 0.161 1.049 0.184l0.612 0.003 0.024-0.003c0.172-0.023 0.643-0.105 1.049-0.184l11.459-2.219c0.148-0.029 0.6-0.116 0.598-0.503s-0.454-0.47-0.603-0.497l-12.027-2.21c-0.215-0.039-0.497-0.061-0.794-0.061s-0.579 0.022-0.794 0.061l-12.027 2.21c-0.149 0.027-0.601 0.111-0.603 0.497s0.45 0.474 0.598 0.503z"></path>
<path fill="#464545" d="M28.877 9.25c-0.068 0-0.137 0.007-0.205 0.020l-10.794 2.090c-0.392 0.076-1.034 0.174-1.43 0.22-0.002 0-0.162 0.017-0.447 0.017s-0.446-0.017-0.447-0.017c-0.397-0.045-1.039-0.144-1.431-0.22l-10.794-2.090c-0.068-0.013-0.137-0.020-0.205-0.020-0.547 0-0.96 0.422-0.96 0.981v14.742c0 0.585 0.45 1.131 1.025 1.242l11.405 2.209v-12.297h6.233v-3.002h9.013v-2.894c-0-0.559-0.413-0.981-0.96-0.981l-0-0z"></path>
<path fill="#454545" d="M15.779 29.482h8.995v-9.703h-2.998v-3.234h-5.997v12.938zM14.279 30.291v-15.364h8.995l2.998 3.234v12.938h-11.993v-0.809z"></path>
<path fill="#464545" d="M19.478 11.054v3.883h1.499v-2.266h5.997v3.234h2.998v9.703h-4.375v1.617h5.874v-12.938l-2.998-3.234h-8.995z"></path>
</svg>
