<!-- Generated by IcoMoon.io -->
<svg version="1.1" xmlns="http://www.w3.org/2000/svg" width="46" height="32" viewBox="0 0 46 32">
<title>E</title>
<path fill="#2ab22a" d="M21.417 31.976c-4.061-0.614-6.843-1.975-9.527-4.66-2.372-2.373-3.715-4.84-4.433-8.145-0.337-1.551-0.337-4.792 0-6.343 0.718-3.304 2.061-5.772 4.433-8.145 2.399-2.4 5.018-3.802 8.374-4.481 1.433-0.29 4.666-0.264 6.108 0.048 3.31 0.717 5.774 2.058 8.149 4.433 2.401 2.401 3.805 5.026 4.48 8.374 0.268 1.328 0.268 4.555 0 5.883-0.673 3.341-2.089 5.985-4.481 8.37-1.887 1.881-3.692 3.036-5.986 3.829-1.804 0.623-2.881 0.808-4.961 0.848-1.012 0.020-1.983 0.015-2.157-0.012zM29.675 22.417v-0.894h-10.204v-5.786h9.468v-1.788h-9.468v-4.734h9.888v-1.788h-12.623v15.884h12.939z"></path>
</svg>
