<!-- Generated by IcoMoon.io -->
<svg version="1.1" xmlns="http://www.w3.org/2000/svg" width="32" height="32" viewBox="0 0 32 32">
<title>editor</title>
<path fill="#464545" d="M19.182 24.439c-0.42 0.42-0.949 0.709-1.53 0.835l-5.886 1.275c-0.988 0.214-2.062-0.059-2.837-0.835-0.167-0.167-0.311-0.351-0.433-0.545h-3.6c-0.569 0-1.029-0.461-1.029-1.029s0.461-1.029 1.029-1.029h3.158c0.011-0.078 0.024-0.156 0.040-0.233l0.623-2.874h-3.822c-0.569 0-1.029-0.461-1.029-1.029s0.461-1.029 1.029-1.029h4.267l0.206-0.953c0.126-0.581 0.414-1.11 0.834-1.53l0.625-0.625h-5.933c-0.569 0-1.029-0.461-1.029-1.029s0.461-1.029 1.029-1.029h7.992l3.108-3.108h-11.1c-0.569 0-1.029-0.461-1.029-1.029s0.461-1.029 1.029-1.029h13.158c0.57-0.57 4.315-4.315 4.899-4.899 0.19-0.189 0.39-0.364 0.598-0.526-0.037-1.212-1.033-2.186-2.254-2.186h-18.774c-1.244 0-2.255 1.012-2.255 2.255v27.489c0 1.244 1.012 2.255 2.255 2.255h18.774c1.244 0 2.255-1.012 2.255-2.255v-9.677c-0.412 0.412-3.807 3.807-4.371 4.371z"></path>
<path fill="#464545" d="M30.475 4.167c-0.81-0.81-1.887-1.256-3.033-1.256s-2.223 0.446-3.033 1.256c-0.65 0.65-12.138 12.138-12.749 12.749-0.136 0.136-0.235 0.312-0.278 0.51-0.17 0.785-1.131 5.221-1.275 5.886-0.074 0.34 0.030 0.697 0.278 0.946s0.604 0.352 0.946 0.278c0.787-0.171 5.228-1.132 5.886-1.275 0.198-0.043 0.374-0.142 0.51-0.278 13.898-13.898 12.951-12.902 13.288-13.404 0.47-0.703 0.718-1.524 0.718-2.379 0-1.146-0.446-2.223-1.256-3.033zM12.457 22.186l0.796-3.676 2.879 2.879-3.676 0.796z"></path>
</svg>
