<!-- Generated by IcoMoon.io -->
<svg version="1.1" xmlns="http://www.w3.org/2000/svg" width="32" height="32" viewBox="0 0 32 32">
<title>eiifact_ddt</title>
<path fill="#464545" d="M31.608 11.777c-0.338-0.42-0.847-0.666-1.386-0.666h-1.778c0-0.982-0.796-1.778-1.778-1.778h-1.778v-1.778c0-0.982-0.796-1.778-1.778-1.778h-0.889v-3.556c0-0.491-0.399-0.889-0.889-0.889h-17.778c-0.491 0-0.889 0.398-0.889 0.889v3.556h-0.889c-0.982 0-1.778 0.796-1.778 1.778v21.333c0 0.982 0.796 1.778 1.778 1.778h24.889c0.833 0 1.556-0.579 1.734-1.392l3.556-16c0.118-0.526-0.011-1.077-0.348-1.498zM2.667 28.889h-0.889v-21.333h0.889v21.333zM21.333 9.333c-0.982 0-1.778 0.796-1.778 1.778h-10.667c-0.833 0-1.556 0.579-1.736 1.392 0 0-3.596 16.257-3.596 16.385h-0.001v-26.667h17.778v7.111zM23.111 9.333h-0.889v-1.778h0.889v1.778zM17.659 6.163h-10.607c-0.491 0-0.889-0.398-0.889-0.889s0.398-0.889 0.889-0.889h10.607c0.491 0 0.889 0.398 0.889 0.889s-0.398 0.889-0.889 0.889zM17.659 9.778h-10.607c-0.491 0-0.889-0.398-0.889-0.889s0.398-0.889 0.889-0.889h10.607c0.491 0 0.889 0.398 0.889 0.889s-0.398 0.889-0.889 0.889z"></path>
</svg>
