<!-- Generated by IcoMoon.io -->
<svg version="1.1" xmlns="http://www.w3.org/2000/svg" width="32" height="32" viewBox="0 0 32 32">
<title>elenchiAlbi</title>
<path fill="#464545" d="M0 26.065c0 2.008 1.634 3.642 3.642 3.642h26.335v-1.619h-1.686v-4.046h1.686v-0.708h2.023v-1.619h-1.214v-4.046h1.214v-1.619h-1.315v-1.383l-1.998-3.743h2.099v-2.176l-5.281-6.455h-18.633l-4.805 7.571c-0.822 0.669-1.359 1.675-1.359 2.815 0 1.996 1.615 3.618 3.606 3.638-1.34 0.538-2.291 1.845-2.291 3.375 0 1.111 0.511 2.095 1.298 2.763-1.856 0.165-3.321 1.711-3.321 3.609zM2.327 12.679c0-0.755 0.42-1.407 1.034-1.754h24.121v3.778h-23.131c-1.116-0-2.023-0.908-2.023-2.023zM5.665 17.669h23.502v4.046h-23.502c-1.116 0-2.023-0.907-2.023-2.023s0.908-2.023 2.023-2.023zM3.642 24.042h23.030v4.046h-23.030c-1.115 0-2.023-0.907-2.023-2.023s0.908-2.023 2.023-2.023z"></path>
</svg>
