<!-- Generated by IcoMoon.io -->
<svg version="1.1" xmlns="http://www.w3.org/2000/svg" width="32" height="32" viewBox="0 0 32 32">
<title>flgFatta</title>
<path fill="#464545" d="M32 8.526c0 0.516-0.206 1.032-0.578 1.404l-17.755 17.755c-0.372 0.372-0.888 0.578-1.404 0.578s-1.032-0.206-1.404-0.578l-10.281-10.281c-0.372-0.372-0.578-0.888-0.578-1.404s0.206-1.032 0.578-1.404l2.808-2.808c0.372-0.372 0.888-0.578 1.404-0.578s1.032 0.206 1.404 0.578l6.070 6.090 13.543-13.564c0.372-0.372 0.888-0.578 1.404-0.578s1.032 0.206 1.404 0.578l2.808 2.808c0.372 0.372 0.578 0.888 0.578 1.404z"></path>
</svg>
