<!-- Generated by IcoMoon.io -->
<svg version="1.1" xmlns="http://www.w3.org/2000/svg" width="32" height="32" viewBox="0 0 32 32">
<title>foglio_importato</title>
<path fill="#464545" d="M28.376 11.446h-0.768v-3.708c0-0.023-0.004-0.046-0.007-0.070-0.001-0.147-0.048-0.292-0.149-0.406l-6.17-7.048c-0.002-0.002-0.004-0.003-0.005-0.004-0.037-0.041-0.080-0.075-0.125-0.105-0.013-0.009-0.027-0.017-0.041-0.024-0.039-0.021-0.081-0.039-0.124-0.052-0.012-0.003-0.022-0.008-0.034-0.011-0.047-0.011-0.095-0.018-0.144-0.018h-15.163c-0.692 0-1.255 0.563-1.255 1.255v10.191h-0.768c-0.991 0-1.794 0.803-1.794 1.793v9.327c0 0.99 0.803 1.794 1.794 1.794h0.768v6.385c0 0.692 0.562 1.255 1.255 1.255h20.706c0.692 0 1.255-0.563 1.255-1.255v-6.385h0.768c0.99 0 1.793-0.803 1.793-1.794v-9.327c0-0.991-0.803-1.793-1.793-1.793zM5.647 1.255h14.536v6.42c0 0.347 0.281 0.627 0.627 0.627h5.543v3.143h-20.706v-10.191zM15.094 18.278c-1.557-0.542-2.572-1.404-2.572-2.766 0-1.599 1.334-2.823 3.545-2.823 1.057 0 1.835 0.222 2.391 0.473l-0.472 1.71c-0.375-0.181-1.042-0.445-1.96-0.445s-1.362 0.417-1.362 0.904c0 0.598 0.528 0.862 1.738 1.321 1.654 0.612 2.433 1.473 2.433 2.794 0 1.57-1.209 2.906-3.781 2.906-1.070 0-2.127-0.279-2.655-0.57l0.431-1.752c0.57 0.293 1.446 0.584 2.35 0.584 0.973 0 1.488-0.403 1.488-1.015-0-0.584-0.445-0.918-1.571-1.32zM4.055 17.666c0-3.197 2.28-4.977 5.116-4.977 1.098 0 1.933 0.222 2.308 0.417l-0.431 1.682c-0.431-0.18-1.029-0.347-1.78-0.347-1.682 0-2.989 1.014-2.989 3.099 0 1.877 1.112 3.058 3.003 3.058 0.639 0 1.348-0.139 1.765-0.306l0.32 1.654c-0.389 0.195-1.265 0.404-2.405 0.404-3.239 0-4.908-2.017-4.908-4.686zM26.353 30.405h-20.706v-6.045h20.706v6.045zM24.951 22.212h-2.475l-3.003-9.369h2.322l1.14 3.963c0.32 1.112 0.612 2.182 0.835 3.35h0.041c0.236-1.126 0.528-2.238 0.848-3.309l1.196-4.004h2.253l-3.157 9.369z"></path>
</svg>
