<!-- Generated by IcoMoon.io -->
<svg version="1.1" xmlns="http://www.w3.org/2000/svg" width="32" height="32" viewBox="0 0 32 32">
<title>gestione_visure</title>
<path fill="#464545" d="M12.647 0l-12.647 9.682v3.948l12.647-9.683 10.454 8.004c0.012-0.003 0.024-0.004 0.034-0.004 0.028-0.021 0.065-0.063 0.074-0.037 0.003 0.009 0.005 0.015 0.008 0.024 0.071-0.023 0.142-0.045 0.213-0.066 0.048-0.014 0.119-0.060 0.163-0.057 0.015 0.001 0.026 0.008 0.033 0.023 0.037 0.083 0.023 0.177 0.006 0.27 0.027 0.040 0.049 0.082 0.061 0.129 0.007 0.030-0.038 0.023-0.082 0.019-0 0.005-0.001 0.011-0.001 0.016-0.024 0.006-0.048 0.011-0.073 0.016l1.758 1.346v-3.948zM12.647 6.262l-9.486 7.017v9.356h6.324v-6.237h3.627c0.003-0.008 0.004-0.016 0.008-0.023 0.029-0.066 0.133-0.057 0.198-0.088 0.073-0.035 0.148-0.067 0.214-0.113 0.257-0.175 0.592-0.513 0.805-0.687 0.264-0.216 0.541-0.416 0.811-0.624 0.186-0.121 0.315-0.206 0.452-0.296-0-0.25 0.007-0.5 0.023-0.748 0.006-0.098 0.026-0.195 0.039-0.292 0.108-0.045 0.219-0.184 0.325-0.135 0.091 0.043 0.095 0.171 0.105 0.281 0.022 0.080 0.024 0.128 0.012 0.155-0.001 0.045-0.004 0.091-0.008 0.136 0.007-0.001 0.014-0.002 0.021-0.004-0.003 0.014-0.004 0.018-0.006 0.030 0.007 0.006 0.014 0.010 0.021 0.017 0.050 0.050 0.025 0.13 0.010 0.208 0.328-0.21 0.639-0.399 1.267-0.761 0.38-0.219 0.761-0.438 1.152-0.638 0.407-0.208 0.829-0.388 1.249-0.571 0.106-0.071 0.217-0.138 0.36-0.21 0.050-0.025 0.104-0.072 0.157-0.089zM16.105 13.826c0.001-0.033-0-0.065-0.006-0.097-0.003-0.018-0.005-0.038-0.006-0.058-0.007-0.027-0.017-0.056-0.029-0.090-0.012 0.084-0.030 0.166-0.036 0.251-0 0.006-0.001 0.013-0.001 0.019 0.036 0.008 0.065 0.004 0.078-0.024zM20.649 12.181c0.019 0.029 0.037 0.058 0.054 0.086 0.016 0.026-0.049 0.036-0.074 0.054-0.646 0.303-0.061 0.030-0.629 0.283-0.044 0.030-0.088 0.060-0.132 0.091 0.052 0.061 0.1 0.123 0.121 0.199 0.013 0.047-0.086 0.044-0.128 0.067-0.106 0.059-0.21 0.121-0.316 0.181 0.246-0.070 0.381-0.080 0.645-0.115 0.089 0.006 0.201 0.001 0.265 0.044 0.169-0.082 0.338-0.162 0.507-0.241 0.060-0.087 0.122-0.172 0.189-0.253 0.003-0.006 0.005-0.013 0.007-0.019zM16.438 14.505c-0.088 0.056-0.182 0.117-0.276 0.178 0 0.001 0 0.001 0 0.001 0.089-0.057 0.152-0.098 0.235-0.151 0.014-0.010 0.028-0.019 0.042-0.029z"></path>
<path fill="#8c8c8c" d="M21.229 10.746c-5.878 0-10.639 4.728-10.639 10.566s4.761 10.566 10.639 10.566c5.878 0 10.638-4.728 10.638-10.566s-4.761-10.566-10.639-10.566zM20.472 13.101h1.551c0.298 0.008 0.54 0.21 0.587 0.498l0.251 1.517c0.611 0.148 1.183 0.389 1.707 0.7l1.277-0.894c0.235-0.171 0.556-0.14 0.76 0.062l1.081 1.089c0.204 0.202 0.227 0.521 0.063 0.755l-0.909 1.26c0.305 0.513 0.533 1.066 0.681 1.657l1.543 0.264c0.282 0.047 0.485 0.296 0.501 0.568v1.54c-0.008 0.296-0.211 0.537-0.501 0.583l-1.543 0.249c-0.157 0.583-0.392 1.136-0.697 1.649l0.885 1.268c0.172 0.233 0.141 0.552-0.063 0.755l-1.096 1.073c-0.204 0.202-0.525 0.226-0.76 0.062l-1.269-0.902c-0.517 0.303-1.073 0.529-1.668 0.677l-0.266 1.532c-0.047 0.288-0.298 0.49-0.587 0.49h-1.551c-0.298-0.008-0.54-0.21-0.587-0.498l-0.251-1.532c-0.572-0.148-1.12-0.373-1.621-0.669l-1.284 0.902c-0.235 0.171-0.556 0.14-0.76-0.062l-1.081-1.089c-0.204-0.202-0.227-0.521-0.063-0.755l0.909-1.252c-0.298-0.506-0.54-1.058-0.689-1.649l-1.551-0.272c-0.29-0.047-0.493-0.296-0.493-0.583v-1.54c0.008-0.296 0.211-0.537 0.501-0.583l1.527-0.249c0.149-0.583 0.376-1.136 0.681-1.649l-0.909-1.276c-0.172-0.233-0.141-0.552 0.063-0.755l1.096-1.073c0.204-0.202 0.525-0.226 0.76-0.062l1.253 0.91c0.509-0.296 1.065-0.537 1.66-0.684l0.274-1.54c0.047-0.288 0.298-0.49 0.587-0.49zM21.282 17.349c-0.298-0.001-0.601 0.032-0.904 0.101-2.154 0.49-3.501 2.621-3.007 4.76s2.639 3.477 4.793 2.987c2.154-0.498 3.493-2.629 3.007-4.76-0.424-1.838-2.068-3.085-3.889-3.088z"></path>
</svg>
