<!-- Generated by IcoMoon.io -->
<svg version="1.1" xmlns="http://www.w3.org/2000/svg" width="32" height="32" viewBox="0 0 32 32">
<title>gestioneutenti</title>
<path fill="#464545" d="M12.259 15.819c3.593 0 6.506-3.538 6.506-7.902s-0.956-7.902-6.506-7.902-6.506 3.538-6.506 7.902c0 4.364 2.913 7.902 6.506 7.902z"></path>
<path fill="#464545" d="M8.726 16.080c-7.515 1.356-8.568 3.491-8.707 10.893-0.011 0.604-0.017 0.636-0.019 0.566 0 0.131 0.001 0.375 0.001 0.799 0 0 1.809 3.647 12.287 3.647s12.287-3.647 12.287-3.647c0-0.273 0-0.462 0-0.591-0.002 0.043-0.006-0.041-0.014-0.527v-0l-0-0c-0.020-1.273-0.065-2.392-0.161-3.382-0.318-0.039-0.636-0.111-0.948-0.219l-1.049 0.97c-0.077 0.072-0.179 0.111-0.285 0.108l-0.73-0.018-0.018 0.733c-0.003 0.112-0.054 0.218-0.141 0.291s-0.202 0.107-0.314 0.089l-0.605-0.084-0.099 0.826c-0.023 0.188-0.177 0.333-0.369 0.346l-0.843 0.057 0.056 0.6c0.011 0.12-0.034 0.238-0.122 0.321l-0.579 0.543c-0.077 0.072-0.179 0.111-0.285 0.108l-2.26-0.055c-0.173-0.004-0.316-0.115-0.369-0.267 0 0.019 0.001 0.038 0.001 0.056-0 0.023-0.001 0.046-0.002 0.069-0.001 0.012 0.010 0.037-0.002 0.037-0.062 0.003-0.123-0.009-0.184-0.018-0.004 0-0.007 0-0.011 0-0.070 0.009-0.1 0.017-0.11 0.004-0.002 0.020-0.005 0.040-0.006 0.061-0.003 0.036-0.003 0.072-0.002 0.109 0.016 0.046 0.072 0.084 0.020 0.143-0.043 0.049-0.123 0.040-0.184 0.060-0.021-0.029-0.048-0.055-0.062-0.088-0.008-0.020-0.012-0.059-0.013-0.1-0.006-0.040-0.006-0.080-0.005-0.121-0.002-0.001-0.003-0.002-0.004-0.003-0.036 0.033-0.071 0.064-0.111 0.050-0.043-0.016-0.061-0.066-0.069-0.121l-0 0c-0.096 0.070-0.184-0.022-0.228-0.1-0.004 0.004-0.008 0.009-0.012 0.013-0.033-0.021-0.068-0.039-0.103-0.059-0.014 0.002-0.028 0.005-0.041 0.008-0.001-0.011-0.001-0.022-0.001-0.033-0.018-0.011-0.036-0.024-0.052-0.037-0 0.003-0 0.007-0.001 0.010-0.001 0.005-0.003-0.007-0.003-0.013-0.002-0.001-0.004-0.003-0.005-0.004-0.006-0.005-0.001-0.017 0.006-0.025-0.004-0.020-0.010-0.040-0.015-0.059-0.008-0.023-0.004-0.010-0.009-0.025-0.020 0.018-0.042 0.032-0.068 0.038-0.079 0.018-0.094-0.105-0.103-0.149-0.009-0.084-0.017-0.107-0.005-0.196 0.020-0.141 0.089-0.267 0.111-0.407 0.001-0.023 0.001-0.039 0.002-0.053-0-0.001 0-0.001 0-0.001 0.003-0.046 0.014-0.049 0.092-0.036 0.001-0.039 0.001-0.071 0.001-0.075 0-0.038 0.001-0.076 0.001-0.114-0.010 0.002-0.020 0.003-0.030 0.003-0.051 0.001-0.088-0.053-0.132-0.079-0.020-0.041-0.047-0.080-0.060-0.124-0.026-0.092-0.013-0.227-0.009-0.318 0.003-0.065 0.009-0.129 0.012-0.194 0.010-0.212 0.008-0.247 0.010-0.468-0.006-0.276-0.003-0.552 0.030-0.826 0.004-0.036-0.014-0.092 0.019-0.108 0.187-0.091 0.229-0.066 0.264 0.015 0.016-0.046 0.035-0.091 0.055-0.133 0.003-0.006 0.007-0.012 0.011-0.018 0-0.019 0-0.039 0-0.058-0-0.014-0.014-0.041-0-0.043 0.007-0.001 0.013-0 0.020-0.001 0-0.095 0.001-0.191 0.004-0.286 0.002-0.065 0.007-0.129 0.013-0.194 0.003-0.030-0-0.062 0.012-0.089 0.017-0.038 0.050-0.067 0.074-0.1 0.054-0 0.113-0.024 0.162-0.001 0.008 0.004 0.015 0.008 0.022 0.012 0-0.015 0.001-0.030 0.001-0.045 0.006-0.085 0.012-0.169 0.017-0.254 0.004-0.062 0.009-0.123 0.013-0.185 0.002-0.039 0.004-0.077 0.004-0.116 0-0.010-0.011-0.026-0.002-0.029 0.116-0.028 0.174-0.050 0.205-0.052 0.025-0.002 0.032 0.010 0.038 0.040 0.005 0.002 0.005 0.010 0.004 0.020 0.002 0.015 0.005 0.032 0.008 0.054 0.013 0.058 0.024 0.116 0.035 0.175 0.027-0.020 0.054-0.033 0.083-0.023 0.028 0.009 0.043 0.034 0.053 0.064 0.021-0.002 0.043-0.004 0.064-0.005 0.081-0.005 0.163-0.011 0.245-0.012 0.008-0 0.025 0 0.034 0.001 0.002-0.009 0.004-0.017 0.006-0.026-0-0.015-0-0.031-0.002-0.046 0.006 0.001 0.012 0.001 0.018 0.002 0-0.001 0.001-0.002 0.001-0.002 0.012-0.023 0.051 0.002 0.077 0.003 0.008 0 0.016 0 0.023 0-0.011-0.054 0.059-0.051 0.121-0.068 0.033-0.009 0.065-0.019 0.097-0.028 0.002-0.002 0.005-0.003 0.007-0.004-0.013-0.001-0.023-0.001-0.036-0.002-0.054-0.004-0.127 0.023-0.161-0.020-0.003-0.004-0.005-0.008-0.008-0.012-0.061 0.009-0.145 0.028-0.107-0.044-0.053-0.014-0.087-0.054-0.106-0.164-0.032 0.001-0.057 0.002-0.095 0.003-0.095 0.003-0.19 0.003-0.286 0.006-0.082 0.003-0.172 0.048-0.245 0.013-0.048 0.004-0.076 0.006-0.138 0.011-0.084 0.001-0.221 0.009-0.062-0.123-0.188-0.122-0.033-0.117 0.044-0.116 0.060-0.005 0.087-0.007 0.134-0.010 0.001-0.001 0.002-0.001 0.002-0.002 0.057-0.037 0.132-0.021 0.203-0.015 0.137-0.011 0.275-0.023 0.524-0.046 0.070-0.007 0.141-0.014 0.211-0.021 0-0.004 0.001-0.007 0.001-0.011-0.007-0.058-0.006-0.084 0.012-0.098 0.001-0.005 0.001-0.008 0.002-0.013 0.002-0.015 0.024-0.008 0.044-0.003 0.009-0.002 0.018-0.004 0.030-0.007 0.037-0.008 0.073-0.015 0.11-0.022 0-0.008 0.001-0.016 0.002-0.024-0.003-0.038 0-0.075 0.008-0.111 0.003-0.014 0.017-0.014 0.034-0.010 0.022-0.011 0.064 0.011 0.093 0.009 0.064-0.003 0.127-0.009 0.191-0.012 0.067-0.003 0.083-0.004 0.122-0.005 0.012-0.027 0.026-0.053 0.041-0.078-0.023-0.039-0.044-0.078-0.057-0.121-0.005-0.017 0.036-0 0.054-0h0c-0.010-0.038-0.008-0.094 0.007-0.176 0.001-0.006 0.005-0.011 0.009-0.015l-0.021-0c-0.003-0-0.005-0-0.008-0s-0.003 0-0.005 0c-0.032-0-0.063-0-0.095-0-0.042-0-0.070 0.001-0.089-0.001-0.004-0-0.008-0-0.012-0-0.012-0-0.038 0.012-0.037 0 0.003-0.038 0.005-0.069 0.006-0.096-0.002-0.035-0.003-0.080-0.006-0.144-0.001-0.013 0.026-0 0.039 0 0.067 0 0.134 0.001 0.2 0.001 0.078-0.006 0.156-0.014 0.234-0.023-0.107-0.001-0.216-0.004-0.29-0.013-0.024-0.003-0.046-0.015-0.069-0.023 0.038-0.066 0.060-0.145 0.105-0.205-0-0.001-0.001-0.002-0.001-0.003-0.098-0.003-0.055-0.006-0.003-0.008 0.001 0.003 0.002 0.006 0.003 0.008 0.002 0 0.002 0 0.004 0 0.010-0.013 0.021-0.026 0.034-0.036s0.149-0.013 0.253-0.015c0.005-0.021 0.011-0.043 0.019-0.064-0.009-0.024-0.016-0.048-0.021-0.073-0.118 0-0.236 0-0.354 0-0.056 0-0.137 0.047-0.168-0-0.022-0.034-0.029-0.077-0.026-0.12-0.003-0.043 0.003-0.086 0.026-0.119 0.031-0.047 0.112 0 0.168 0 0.139 0 0.278 0 0.417 0-0.009-0.032-0.018-0.071-0.027-0.12-0.004-0.020 0.041-0 0.061-0 0.017-0 0.033 0 0.050 0 0.043-0.013 0.107-0.002 0.21-0 0.010 0 0.019 0 0.029 0 0.106 0 0.167 0 0.246 0 0.316-0.005 0.63-0.029 0.945-0.052 0.001-0.015 0.001-0.029 0.001-0.043-0.064 0-0.127 0-0.191 0-0.044 0-0.103 0.033-0.133 0-0.028-0-0.055 0-0.083 0v-0c-0.036 0-0.071 0-0.107 0h-0.548c-0.048 0-0.103 0.022-0.148 0.015-0.083 0.032-0.148 0.041-0.166-0.015-0.013-0.039-0.002-0.081 0.020-0.12-0.003-0.006-0.007-0.012-0.010-0.019-0.009 0-0.019 0-0.029 0-0.040 0-0.089 0.026-0.119-0-0.006-0.005-0.012-0.011-0.017-0.017-0.015 0.003-0.037 0.001-0.027 0s0.017-0.001 0.026-0.001c-0.056-0.057-0.097-0.132-0.115-0.209-0.006-0.026 0.048-0.025 0.074-0.029 0.057-0.009 0.116-0.010 0.174-0.011 0.107-0.002 0.214 0 0.321 0.001 0.41-0.001 0.821-0.004 1.231-0.007 0.013-0.002 0.027-0.003 0.040-0.005 0.077-0.004 0.154-0.009 0.231-0.015-0.121 0-0.243-0-0.364 0-0.109 0.001-0.173 0.015-0.215 0.003-0.012 0-0.025 0-0.037 0.001-0.020 0-0.061 0.019-0.059-0 0.006-0.056 0.012-0.1 0.019-0.134-0.006-0.029-0.012-0.064-0.018-0.106-0.003-0.018 0.036 0.001 0.054 0 0.009-0 0.018-0 0.026-0 0.041-0.017 0.107-0.004 0.215-0.004 0.196-0.004 0.391-0.010 0.587-0.013 0.018-0 0.037-0 0.055-0 0.006-0.039 0.012-0.075 0.015-0.1 0.009-0.040 0.017-0.081 0.026-0.121-0.001-0.028-0.002-0.056-0.003-0.084-0.004-0.123-0.022-0.159 0.055-0.275 0.038-0.056 0.064-0.090 0.084-0.112 0.076-0.216 0.17-0.471 0.217-0.595 0.020-0.053 0.041-0.105 0.062-0.157-0.001-0.005-0.003-0.011-0.004-0.015-0.026-0.142-0.029-0.29-0.026-0.433 0.005-0.213 0.031-0.46 0.050-0.67 0.068-0.416 0.038-0.337 0.178-0.752 0.002-0.005 0.004-0.010 0.005-0.015-0-0.010-0-0.020-0-0.030-1.031-0.37-2.277-0.674-3.782-0.945 0 0-1.070 1.363-3.562 1.363s-3.563-1.363-3.563-1.363zM16.753 20.913c0 0 0.001 0.001 0.001 0.001 0.002-0 0.003-0.001 0.005-0.001-0.002 0-0.004 0-0.006 0zM14.254 28.114c0.001 0.001 0.003 0.002 0.004 0.003 0-0.004 0-0.009 0-0.013-0.002 0.003-0.003 0.005-0.004 0.007-0 0.001 0 0.002 0 0.003zM19.458 19.719c-0.025 0.034-0.052 0.068-0.079 0.101-0.009 0.012-0.020 0.022-0.030 0.032-0.025 0.073-0.046 0.139-0.061 0.188-0.010 0.036-0.019 0.073-0.027 0.11 0.003 0.030 0.003 0.061-0.005 0.090 0.001 0.039 0.003 0.093 0.002 0.144 0.013 0 0.026-0 0.038 0 0.021 0 0.042 0.001 0.063 0.002-0-0.014-0.001-0.027-0.001-0.042-0.006-0.014-0.011-0.028-0.016-0.042s0.006-0.027 0.017-0.039c0-0.002 0-0.007 0-0.009 0.013-0.181 0.057-0.357 0.097-0.534zM17.402 20.936c-0.011 0.004-0.023 0.009-0.035 0.014 0.008 0.003 0.016 0.006 0.023 0.009 0.003-0.007 0.008-0.015 0.012-0.023zM15.608 23.337c-0.004 0.001-0.009 0.002-0.013 0.003-0.003 0.001 0.002 0.004 0.006 0.007 0.002-0.003 0.004-0.006 0.007-0.009zM15.48 24.113c0 0.004 0.001 0.009 0.001 0.013 0.030-0.004 0.060-0.008 0.090-0.013-0.030-0-0.061-0.001-0.091-0zM14.685 28.14c-0.004 0.001-0.007 0.003-0.010 0.004-0 0.008 0.002 0.013 0.008 0.015s0.004-0.009 0.002-0.019zM14.459 28.22c-0.003 0.004-0.006 0.009-0.009 0.013s0.013-0.008 0.010-0.012c-0-0-0.001-0.001-0.001-0.001z"></path>
<path fill="#d4aa00" d="M21.259 10.523c-5.932 0-10.741 4.763-10.741 10.639s4.809 10.639 10.741 10.639c5.932 0 10.741-4.763 10.741-10.639s-4.809-10.639-10.741-10.639zM24.387 13.996c1.241 0.001 2.479 0.485 3.4 1.444h-0c1.787 1.86 1.715 4.811-0.161 6.58-1.281 1.209-3.102 1.563-4.761 0.984l-1.121 1.043c-0.082 0.077-0.191 0.119-0.305 0.116l-0.78-0.019-0.019 0.788c-0.003 0.121-0.058 0.234-0.151 0.313s-0.216 0.115-0.336 0.096l-0.647-0.091-0.106 0.888c-0.024 0.202-0.189 0.358-0.394 0.372l-0.901 0.062 0.059 0.645c0.012 0.129-0.036 0.256-0.131 0.345l-0.618 0.584c-0.082 0.077-0.191 0.119-0.305 0.116l-2.415-0.060c-0.236-0.006-0.422-0.2-0.417-0.433l0.058-2.393c0.003-0.112 0.050-0.219 0.132-0.296l5.417-5.11c-0.501-1.67-0.022-3.486 1.259-4.694 0.908-0.857 2.076-1.281 3.241-1.28zM25.592 16.214c-0.308 0.007-0.613 0.123-0.853 0.349-0.512 0.483-0.531 1.287-0.044 1.794s1.3 0.527 1.811 0.045c0.512-0.483 0.531-1.287 0.044-1.794-0.259-0.269-0.61-0.401-0.958-0.394z"></path>
</svg>
