<!-- Generated by IcoMoon.io -->
<svg version="1.1" xmlns="http://www.w3.org/2000/svg" width="32" height="32" viewBox="0 0 32 32">
<title>gestione_procedimenti</title>
<path fill="#454545" d="M10.775 25.297c-0.342 0.457-0.986 0.909-2.193 1.050h0.075c-0.377 0-0.679 0.287-0.679 0.636s0.307 0.636 0.679 0.636h5.043c-0.577-0.668-1.068-1.433-1.441-2.262l-0.024-0.060h-1.461z"></path>
<path fill="#454545" d="M2.012 3.041c-1.111 0-2.012 0.906-2.012 2.023v17.919c0.034 0.952 0.815 1.714 1.773 1.714h10.685c-0.267-0.74-0.446-1.595-0.5-2.484l-0.001-0.026c-0.066 0.008-0.128 0.005-0.173-0.038-0.38-0.361-0.096-0.496 0.161-0.567 0.006-0.44 0.042-0.865 0.106-1.282l-0.006 0.052h-10.031c-0.194 0-0.353-0.161-0.353-0.355v-14.932c0-0.195 0.16-0.355 0.353-0.355h23.661c0.194 0 0.353 0.16 0.353 0.355v7.758l0.219-0.154c0.224-0.165 0.531-0.135 0.726 0.060l0.72 0.73v-8.394c0-1.118-0.901-2.023-2.012-2.023zM24.467 21.63l-3.062 0.039h3.019c0.014-0.013 0.028-0.026 0.042-0.039z"></path>
<path fill="#8c8c8c" d="M21.229 10.746c-5.878 0-10.638 4.729-10.638 10.566s4.761 10.566 10.639 10.566c5.878 0 10.638-4.728 10.638-10.566s-4.761-10.566-10.638-10.566zM20.472 13.101h1.551c0.298 0.008 0.54 0.21 0.587 0.498l0.251 1.517c0.611 0.148 1.183 0.389 1.707 0.7l1.277-0.894c0.235-0.171 0.556-0.14 0.76 0.062l1.081 1.089c0.204 0.202 0.227 0.521 0.063 0.755l-0.909 1.26c0.305 0.513 0.533 1.066 0.681 1.657l1.543 0.264c0.282 0.047 0.486 0.296 0.501 0.568v1.54c-0.008 0.296-0.211 0.537-0.501 0.583l-1.543 0.249c-0.157 0.583-0.392 1.136-0.697 1.649l0.885 1.268c0.172 0.233 0.141 0.552-0.063 0.755l-1.096 1.073c-0.204 0.202-0.525 0.226-0.76 0.062l-1.269-0.902c-0.517 0.303-1.073 0.529-1.668 0.677l-0.266 1.532c-0.047 0.288-0.298 0.49-0.587 0.49h-1.551c-0.298-0.008-0.54-0.21-0.587-0.498l-0.251-1.532c-0.572-0.148-1.12-0.373-1.621-0.669l-1.284 0.902c-0.235 0.171-0.556 0.14-0.76-0.062l-1.081-1.089c-0.204-0.202-0.227-0.521-0.063-0.755l0.909-1.252c-0.298-0.506-0.54-1.058-0.689-1.649l-1.551-0.272c-0.29-0.047-0.493-0.296-0.493-0.583v-1.54c0.008-0.296 0.211-0.537 0.501-0.583l1.527-0.249c0.149-0.583 0.376-1.136 0.681-1.649l-0.909-1.276c-0.172-0.233-0.141-0.552 0.063-0.755l1.096-1.073c0.204-0.202 0.525-0.226 0.76-0.062l1.253 0.91c0.509-0.296 1.065-0.537 1.66-0.684l0.274-1.54c0.047-0.288 0.298-0.49 0.587-0.49zM21.282 17.348v0c-0.298-0.001-0.601 0.032-0.904 0.101-2.154 0.49-3.501 2.621-3.007 4.76s2.639 3.477 4.793 2.987c2.154-0.498 3.493-2.629 3.007-4.76-0.424-1.838-2.068-3.085-3.889-3.088z"></path>
</svg>
