<!-- Generated by IcoMoon.io -->
<svg version="1.1" xmlns="http://www.w3.org/2000/svg" width="32" height="32" viewBox="0 0 32 32">
<title>homenews</title>
<path fill="#464545" d="M25.067 2.133h-12.8v3.2h12.8v-3.2zM24 4.267h-10.667v-1.067h10.667v1.067z"></path>
<path fill="#464545" d="M10.133 9.6h5.333v5.333h-5.333v-5.333z"></path>
<path fill="#464545" d="M21.867 22.4h5.333v5.333h-5.333v-5.333z"></path>
<path fill="#464545" d="M31.461 6.908v-6.908h-25.595v16h-5.333v12.8c0 1.765 1.435 3.2 3.2 3.2h24.533c1.762 0 3.195-1.434 3.195-3.195v-21.846c0.001-0.009 0.005-0.017 0.005-0.026s-0.005-0.017-0.005-0.026zM5.867 28.8c0 1.177-0.957 2.133-2.133 2.133s-2.133-0.957-2.133-2.133v-11.733h4.267v11.733zM18.133 28.8h-8c-0.295 0-0.533-0.238-0.533-0.533s0.238-0.533 0.533-0.533h8c0.295 0 0.533 0.238 0.533 0.533s-0.238 0.533-0.533 0.533zM9.067 16v-7.467h7.467v7.467h-7.467zM18.133 25.6h-8c-0.295 0-0.533-0.238-0.533-0.533s0.238-0.533 0.533-0.533h8c0.295 0 0.533 0.238 0.533 0.533s-0.238 0.533-0.533 0.533zM18.133 22.4h-8c-0.295 0-0.533-0.238-0.533-0.533s0.238-0.533 0.533-0.533h8c0.295 0 0.533 0.238 0.533 0.533s-0.238 0.533-0.533 0.533zM28.267 28.8h-7.467v-7.467h7.467v7.467zM27.733 19.2h-17.6c-0.295 0-0.533-0.238-0.533-0.533s0.238-0.533 0.533-0.533h17.6c0.295 0 0.533 0.238 0.533 0.533s-0.238 0.533-0.533 0.533zM27.733 16h-8.533c-0.295 0-0.533-0.238-0.533-0.533s0.238-0.533 0.533-0.533h8.533c0.295 0 0.533 0.238 0.533 0.533s-0.238 0.533-0.533 0.533zM27.733 12.8h-8.533c-0.295 0-0.533-0.238-0.533-0.533s0.238-0.533 0.533-0.533h8.533c0.295 0 0.533 0.238 0.533 0.533s-0.238 0.533-0.533 0.533zM27.733 9.6h-8.533c-0.295 0-0.533-0.238-0.533-0.533s0.238-0.533 0.533-0.533h8.533c0.295 0 0.533 0.238 0.533 0.533s-0.238 0.533-0.533 0.533zM30.395 6.4h-23.461v-5.333h23.461v5.333z"></path>
</svg>
