<!-- Generated by IcoMoon.io -->
<svg version="1.1" xmlns="http://www.w3.org/2000/svg" width="32" height="32" viewBox="0 0 32 32">
<title>import_excel</title>
<path fill="#464545" d="M31 5.001h-13v-3c0-0.298-0.132-0.58-0.362-0.77-0.228-0.19-0.534-0.272-0.822-0.212l-16 3c-0.474 0.088-0.816 0.5-0.816 0.982v22c0 0.48 0.342 0.894 0.816 0.982l16 3c0.060 0.012 0.122 0.018 0.184 0.018 0.232 0 0.458-0.080 0.638-0.23 0.23-0.19 0.362-0.474 0.362-0.77v-3h13c0.552 0 1-0.448 1-1v-20c0-0.552-0.448-1-1-1zM13.752 19.343c0.364 0.414 0.322 1.046-0.094 1.41-0.19 0.166-0.424 0.248-0.658 0.248-0.278 0-0.554-0.116-0.752-0.342l-2.908-3.322-2.55 3.28c-0.198 0.252-0.494 0.384-0.79 0.384-0.214 0-0.43-0.068-0.614-0.21-0.436-0.34-0.514-0.968-0.176-1.404l2.788-3.584-2.75-3.144c-0.364-0.414-0.322-1.046 0.094-1.41 0.414-0.364 1.044-0.324 1.412 0.094l2.496 2.852 2.962-3.808c0.34-0.434 0.968-0.514 1.404-0.174 0.436 0.338 0.514 0.966 0.174 1.404l-3.2 4.112 3.162 3.614zM30 25.001h-12v-2h3c0.552 0 1-0.448 1-1s-0.448-1-1-1h-3v-2h3c0.552 0 1-0.448 1-1s-0.448-1-1-1h-3v-2h3c0.552 0 1-0.448 1-1s-0.448-1-1-1h-3v-2h3c0.552 0 1-0.448 1-1s-0.448-1-1-1h-3v-2h12v18z"></path>
<path fill="#464545" d="M27 9.001h-2c-0.552 0-1 0.448-1 1s0.448 1 1 1h2c0.552 0 1-0.448 1-1s-0.448-1-1-1z"></path>
<path fill="#464545" d="M27 13.001h-2c-0.552 0-1 0.448-1 1s0.448 1 1 1h2c0.552 0 1-0.448 1-1s-0.448-1-1-1z"></path>
<path fill="#464545" d="M27 17.001h-2c-0.552 0-1 0.448-1 1s0.448 1 1 1h2c0.552 0 1-0.448 1-1s-0.448-1-1-1z"></path>
<path fill="#464545" d="M27 21.001h-2c-0.552 0-1 0.448-1 1s0.448 1 1 1h2c0.552 0 1-0.448 1-1s-0.448-1-1-1z"></path>
<path fill="#2ab22a" d="M16.41 18.887l-0.003-4.203-9.814 7.363 9.825 7.348-0.003-4.308c7.014-0.005 11.925 1.672 15.434 5.347-1.407-5.253-5.619-10.503-15.439-11.547z"></path>
</svg>
