<!-- Generated by IcoMoon.io -->
<svg version="1.1" xmlns="http://www.w3.org/2000/svg" width="32" height="32" viewBox="0 0 32 32">
<title>invio_corrispettivi_telematici</title>
<path fill="#464545" d="M24.361 8.856h-20.484c-1.802 0-3.876 1.601-3.876 3.144v12.415c0 1.421 1.757 2.448 3.443 2.606l-1.097 4.164 7.029-4.135h14.985c1.802 0 3.465-1.093 3.465-2.635v-12.415c0-1.543-1.664-3.144-3.465-3.144zM7.002 19.336c-1.022 0-1.85-0.828-1.85-1.85s0.828-1.85 1.85-1.85c1.021 0 1.85 0.828 1.85 1.85s-0.829 1.85-1.85 1.85zM13.913 19.336c-1.022 0-1.85-0.828-1.85-1.85s0.828-1.85 1.85-1.85 1.85 0.828 1.85 1.85-0.828 1.85-1.85 1.85zM20.826 19.336c-1.022 0-1.852-0.828-1.852-1.85s0.829-1.85 1.852-1.85c1.020 0 1.85 0.828 1.85 1.85s-0.831 1.85-1.85 1.85z"></path>
<path fill="#2ab22a" d="M22.833 0.815l9.167 9.198-9.167 9.198v-4.599h-9.211v-9.198h9.211v-4.599z"></path>
</svg>
