<!-- Generated by IcoMoon.io -->
<svg version="1.1" xmlns="http://www.w3.org/2000/svg" width="32" height="32" viewBox="0 0 32 32">
<title>istanze</title>
<path fill="#464545" d="M3.070 0v32h25.86v-2.233h-15.421v-0.967h-7.206v-25.6h12.93v5.418c0.807-0.634 1.826-1.013 2.934-1.013 2.62 0 4.741 2.116 4.741 4.728 0 1.213-0.458 2.319-1.21 3.155v6.389h3.232v-15.478l-6.465-6.4h-19.395z"></path>
<path fill="#464545" d="M14.599 27.309h14.166v1.611h-14.166z"></path>
<path fill="#464545" d="M28.050 23.412h-12.967c-0.708 0-1.281 0.668-1.281 1.498v1.746h15.544v-1.746c0-0.83-0.583-1.498-1.295-1.498h0z"></path>
<path fill="#464545" d="M18.772 12.325c0-1.83 1.486-3.312 3.321-3.312s3.321 1.482 3.321 3.312c0 1.83-1.486 3.312-3.321 3.312s-3.321-1.482-3.321-3.312z"></path>
<path fill="#464545" d="M20.888 15.229h2.485v9.188h-2.485v-9.188z"></path>
<path fill="#b80404" d="M16.798 6.912l0.681-0.658-0.134-0.201c-0.243-0.362-0.516-0.691-0.812-0.977s-0.637-0.55-1.011-0.784l-0.208-0.13-0.681 0.658c-0.751-0.385-1.585-0.589-2.431-0.589-2.871 0-5.207 2.255-5.207 5.028 0 0.817 0.212 1.623 0.61 2.347l-0.681 0.658 0.134 0.201c0.475 0.709 1.089 1.302 1.824 1.761l0.208 0.13 0.681-0.658c0.75 0.385 1.585 0.589 2.431 0.589 2.871 0 5.207-2.255 5.207-5.028 0-0.817-0.212-1.623-0.61-2.347l-0-0zM7.607 9.259c0-2.446 2.061-4.436 4.594-4.436 0.683 0 1.358 0.152 1.975 0.437l-0.467 0.45c-0.483-0.193-0.988-0.296-1.509-0.296-2.195 0-3.982 1.725-3.982 3.845 0 0.503 0.107 0.991 0.307 1.457l-0.466 0.451c-0.296-0.597-0.453-1.248-0.453-1.908l-0 0zM9 10.258c-0.11-0.324-0.168-0.658-0.168-0.999 0-1.794 1.512-3.253 3.369-3.253 0.354 0 0.7 0.056 1.035 0.163l-4.236 4.090zM9.010 13.596c-0.505-0.346-0.941-0.767-1.299-1.255l7.682-7.418c0.259 0.177 0.496 0.369 0.707 0.573s0.409 0.432 0.593 0.682l-7.682 7.418zM15.57 9.259c0 1.794-1.512 3.253-3.369 3.253-0.354 0-0.7-0.056-1.035-0.163l4.236-4.090c0.11 0.324 0.168 0.658 0.168 1h-0zM12.201 13.695c-0.683 0-1.358-0.152-1.976-0.437l0.467-0.45c0.483 0.193 0.989 0.296 1.509 0.296 2.195 0 3.982-1.725 3.982-3.845 0-0.503-0.107-0.991-0.307-1.457l0.466-0.451c0.296 0.597 0.453 1.248 0.453 1.908 0 2.446-2.061 4.436-4.594 4.436l0-0z"></path>
<path fill="#b80404" d="M15.334 4.349l1.888 1.912-8.116 8.015-1.888-1.912 8.116-8.015z"></path>
</svg>
