<!-- Generated by IcoMoon.io -->
<svg version="1.1" xmlns="http://www.w3.org/2000/svg" width="32" height="32" viewBox="0 0 32 32">
<title>listaAccompagnatoriaProt</title>
<path fill="#464545" d="M13.889 8.143h6.205v2.342h-6.205v-2.342z"></path>
<path fill="#464545" d="M3.352 27.461v-22.948c0-0.646 0.525-1.171 1.171-1.171h16.736c0.646 0 1.171 0.525 1.171 1.171v11.469l2.342-2.408v-9.062c0-1.937-1.576-3.512-3.512-3.512h-16.736c-1.937 0-3.513 1.576-3.513 3.512v22.948c0 1.937 1.576 3.512 3.512 3.512h8.939l0.532-2.342h-9.471c-0.646 0-1.171-0.525-1.171-1.171z"></path>
<path fill="#464545" d="M13.889 15.168h6.205v2.342h-6.205v-2.342z"></path>
<path fill="#464545" d="M11.606 12.754l-2.866 3.25-1.426-1.339-1.603 1.707 3.187 2.993 4.464-5.063z"></path>
<path fill="#464545" d="M11.606 5.671l-2.866 3.25-1.426-1.339-1.603 1.707 3.187 2.993 4.464-5.063z"></path>
<path fill="#464545" d="M7.315 21.69l-1.603 1.707 3.187 2.993 4.464-5.063-1.756-1.549-2.866 3.25z"></path>
<path fill="#219db0" d="M21.957 14.108l8.817 8.847-8.817 8.847v-4.424h-8.86v-8.847h8.86v-4.424z"></path>
</svg>
