<!-- Generated by IcoMoon.io -->
<svg version="1.1" xmlns="http://www.w3.org/2000/svg" width="32" height="32" viewBox="0 0 32 32">
<title>log</title>
<path fill="#464545" d="M14.946 24.345c-1.056 0-1.671 1.004-1.671 2.347 0 1.353 0.635 2.306 1.681 2.306 1.056 0 1.66-1.004 1.66-2.347 0-1.24-0.594-2.306-1.67-2.306z"></path>
<path fill="#464545" d="M27.602 7.668c-0.002-0.147-0.048-0.292-0.149-0.406l-6.17-7.048c-0.001-0.002-0.003-0.003-0.005-0.004-0.037-0.041-0.079-0.075-0.124-0.105-0.013-0.009-0.027-0.017-0.041-0.024-0.040-0.021-0.081-0.039-0.124-0.052-0.012-0.003-0.022-0.008-0.034-0.011-0.047-0.011-0.095-0.018-0.144-0.018h-15.164c-0.692 0-1.255 0.563-1.255 1.255v29.49c0 0.692 0.563 1.255 1.255 1.255h20.706c0.692 0 1.255-0.563 1.255-1.255v-23.006c0-0.024-0.004-0.047-0.006-0.070zM11.409 30.125h-4.315v-6.907h1.568v5.596h2.747v1.312zM14.874 30.238c-2.050 0-3.249-1.547-3.249-3.515 0-2.071 1.322-3.618 3.361-3.618 2.122 0 3.28 1.589 3.28 3.495 0 2.265-1.373 3.638-3.392 3.638zM25.063 29.808c-0.482 0.164-1.394 0.389-2.306 0.389-1.26 0-2.173-0.318-2.808-0.933-0.636-0.595-0.984-1.497-0.974-2.511 0.010-2.296 1.68-3.608 3.946-3.608 0.892 0 1.578 0.175 1.916 0.338l-0.328 1.251c-0.379-0.164-0.85-0.297-1.609-0.297-1.302 0-2.286 0.738-2.286 2.234 0 1.425 0.892 2.265 2.173 2.265 0.358 0 0.645-0.041 0.768-0.102v-1.445h-1.066v-1.22h2.572v3.638h0zM5.647 21.307v-20.052h14.536v6.421c0 0.346 0.281 0.627 0.628 0.627h5.542l0.001 13.004h-20.706z"></path>
<path fill="#464545" d="M20.732 5.333h-0.889v1.517c0 0.274-0.222 0.497-0.497 0.497s-0.497-0.222-0.497-0.497v-1.517h-1.569v1.517c0 0.274-0.222 0.497-0.497 0.497s-0.497-0.222-0.497-0.497v-1.517h-1.935v1.517c0 0.274-0.222 0.497-0.497 0.497s-0.497-0.222-0.497-0.497v-1.517h-1.569v1.517c0 0.274-0.222 0.497-0.497 0.497s-0.497-0.222-0.497-0.497v-1.517h-0.418c-0.52 0-0.941 0.421-0.941 0.941v12.235c0 0.52 0.421 0.941 0.941 0.941h10.353c0.52 0 0.941-0.421 0.941-0.941v-12.235c-0.001-0.52-0.422-0.941-0.942-0.941zM20.889 18.51h-10.876v-9.412h10.876v9.412z"></path>
<path fill="#464545" d="M11.791 5.176c0-0.274-0.222-0.497-0.497-0.497s-0.497 0.222-0.497 0.497v0.157h0.994v-0.157h-0z"></path>
<path fill="#464545" d="M14.353 5.176c0-0.274-0.222-0.497-0.497-0.497s-0.497 0.222-0.497 0.497v0.157h0.994v-0.157h-0z"></path>
<path fill="#464545" d="M17.281 5.176c0-0.274-0.222-0.497-0.497-0.497s-0.497 0.222-0.497 0.497v0.157h0.994v-0.157h-0z"></path>
<path fill="#464545" d="M19.843 5.176c0-0.274-0.222-0.497-0.497-0.497s-0.497 0.222-0.497 0.497v0.157h0.994v-0.157h-0z"></path>
<path fill="#464545" d="M11.294 10.902h8.052c0.087 0 0.157-0.070 0.157-0.157s-0.070-0.157-0.157-0.157h-8.052c-0.087 0-0.157 0.070-0.157 0.157s0.070 0.157 0.157 0.157z"></path>
<path fill="#464545" d="M11.294 12.732h8.052c0.087 0 0.157-0.070 0.157-0.157s-0.070-0.157-0.157-0.157h-8.052c-0.087 0-0.157 0.070-0.157 0.157s0.070 0.157 0.157 0.157z"></path>
<path fill="#464545" d="M11.294 14.876h8.052c0.087 0 0.157-0.070 0.157-0.157s-0.070-0.157-0.157-0.157h-8.052c-0.087 0-0.157 0.070-0.157 0.157s0.070 0.157 0.157 0.157z"></path>
<path fill="#464545" d="M11.294 16.706h8.052c0.087 0 0.157-0.070 0.157-0.157s-0.070-0.157-0.157-0.157h-8.052c-0.087 0-0.157 0.070-0.157 0.157s0.070 0.157 0.157 0.157z"></path>
</svg>
