<!-- Generated by IcoMoon.io -->
<svg version="1.1" xmlns="http://www.w3.org/2000/svg" width="32" height="32" viewBox="0 0 32 32">
<title>log_caricamenti</title>
<path fill="#464545" d="M18.362 21.561l-0.919-3.215c0.269-0.236 0.522-0.489 0.761-0.759l3.213 0.919c0.339-0.494 0.631-1.018 0.892-1.562l-2.391-2.314c0.115-0.34 0.214-0.686 0.285-1.043l3.223-0.808c0.024-0.298 0.046-0.596 0.046-0.901s-0.024-0.602-0.046-0.9l-3.223-0.808c-0.072-0.357-0.171-0.703-0.285-1.043l2.392-2.314c-0.262-0.543-0.554-1.069-0.893-1.562l-3.213 0.918c-0.237-0.269-0.491-0.522-0.761-0.759l0.919-3.214c-0.494-0.338-1.019-0.631-1.563-0.892l-2.314 2.392c-0.339-0.115-0.686-0.213-1.043-0.285l-0.806-3.224c-0.299-0.022-0.596-0.046-0.901-0.046s-0.602 0.024-0.9 0.046l-0.808 3.224c-0.357 0.072-0.703 0.17-1.043 0.285l-2.314-2.392c-0.543 0.264-1.067 0.556-1.561 0.895l0.919 3.214c-0.269 0.236-0.523 0.49-0.759 0.758l-3.214-0.919c-0.339 0.494-0.631 1.019-0.892 1.563l2.392 2.314c-0.113 0.34-0.213 0.686-0.285 1.043l-3.224 0.808c-0.022 0.298-0.046 0.596-0.046 0.9s0.024 0.602 0.046 0.901l3.224 0.808c0.072 0.357 0.171 0.703 0.285 1.043l-2.392 2.314c0.261 0.543 0.553 1.069 0.892 1.562l3.214-0.919c0.236 0.27 0.49 0.522 0.759 0.759l-0.919 3.215c0.494 0.338 1.019 0.629 1.562 0.892l2.314-2.392c0.34 0.115 0.686 0.214 1.043 0.285l0.808 3.223c0.298 0.024 0.596 0.046 0.901 0.046s0.602-0.024 0.901-0.046l0.806-3.223c0.357-0.072 0.704-0.171 1.043-0.285l2.315 2.392c0.542-0.265 1.067-0.556 1.561-0.894zM11.735 15.892c-2.216 0-4.014-1.797-4.014-4.014s1.797-4.013 4.014-4.013 4.013 1.796 4.013 4.013-1.796 4.014-4.013 4.014zM30.029 24.281c0.022-0.646-0.071-1.304-0.272-1.953l1.469-2.094c-0.222-0.413-0.472-0.805-0.757-1.162l-2.506 0.525c-0.505-0.43-1.080-0.765-1.696-1.005l-0.721-2.455c-0.456-0.080-0.918-0.124-1.385-0.125l-1.15 2.286c-0.329 0.064-0.659 0.151-0.982 0.275-0.303 0.116-0.587 0.26-0.858 0.417l-2.369-0.967c-0.351 0.309-0.671 0.644-0.96 1.006l1.071 2.324c-0.306 0.585-0.516 1.214-0.613 1.872l-2.233 1.252c0.022 0.458 0.090 0.916 0.194 1.376l2.485 0.613c0.273 0.619 0.639 1.173 1.082 1.645l-0.416 2.525c0.378 0.272 0.779 0.505 1.196 0.709l2.025-1.559c0.633 0.166 1.295 0.23 1.963 0.177l1.715 1.898c0.236-0.067 0.471-0.139 0.704-0.228 0.207-0.078 0.401-0.17 0.596-0.263l0.044-2.557c0.537-0.4 0.995-0.882 1.36-1.424l2.552-0.158c0.18-0.424 0.329-0.864 0.435-1.317l-1.971-1.632zM25.113 26.651c-1.418 0.541-3.005-0.17-3.547-1.588s0.169-3.006 1.587-3.548c1.418-0.541 3.008 0.17 3.55 1.588 0.541 1.418-0.171 3.006-1.589 3.548z"></path>
</svg>
