<!-- Generated by IcoMoon.io -->
<svg version="1.1" xmlns="http://www.w3.org/2000/svg" width="32" height="32" viewBox="0 0 32 32">
<title>lotti_fatture</title>
<path fill="#464545" d="M2 5c-1.105 0-2 0.894-2 2v16c0 1.084 0.863 1.953 1.939 1.988l4.057-10.817c0.676-1.809 2.642-3.172 4.574-3.172h17.43c0-1.106-0.894-2-2-2h-14l-2-4zM10.571 13c-1.1 0-2.316 0.844-2.703 1.873l-4.547 12.127h10.049c0.002-0.302 0.021-0.604 0.057-0.904 0.032-0.27 0.12-0.771 0.221-1.043 0.011-0.029 0.023-0.057 0.036-0.085 0.009-0.036 0.018-0.072 0.028-0.108-0.919-1.32-1.452-2.888-1.452-4.569 0-3.091 1.8-5.797 4.496-7.292zM26.442 13c2.080 1.153 3.625 3.027 4.224 5.242l1.222-3.363c0.377-1.033-0.217-1.879-1.316-1.879zM27.528 26.881c-0.054 0.040-0.108 0.080-0.163 0.12h0.119z"></path>
<path fill="#8c8c8c" d="M21.333 10.887c-5.892 0-10.665 4.729-10.665 10.566s4.773 10.566 10.665 10.566c5.892 0 10.665-4.728 10.665-10.566s-4.773-10.566-10.665-10.566zM20.574 13.243h1.555c0.298 0.008 0.542 0.21 0.589 0.498l0.251 1.517c0.612 0.148 1.186 0.389 1.712 0.7l1.28-0.894c0.236-0.171 0.558-0.14 0.762 0.062l1.084 1.089c0.204 0.202 0.228 0.521 0.063 0.755l-0.911 1.26c0.306 0.513 0.534 1.066 0.683 1.657l1.547 0.264c0.283 0.047 0.487 0.296 0.502 0.568v1.54c-0.008 0.296-0.212 0.537-0.502 0.583l-1.547 0.249c-0.157 0.583-0.393 1.136-0.699 1.649l0.887 1.268c0.173 0.233 0.141 0.552-0.063 0.755l-1.099 1.073c-0.204 0.202-0.526 0.226-0.762 0.062l-1.272-0.902c-0.518 0.303-1.076 0.529-1.672 0.677l-0.267 1.532c-0.047 0.288-0.298 0.49-0.589 0.49h-1.555c-0.298-0.008-0.542-0.21-0.589-0.498l-0.251-1.532c-0.573-0.148-1.123-0.373-1.625-0.669l-1.288 0.902c-0.236 0.171-0.557 0.14-0.762-0.062l-1.084-1.089c-0.204-0.202-0.228-0.521-0.063-0.755l0.911-1.252c-0.298-0.506-0.542-1.058-0.691-1.649l-1.555-0.272c-0.291-0.047-0.495-0.296-0.495-0.583v-1.54c0.008-0.296 0.212-0.537 0.502-0.583l1.531-0.249c0.149-0.583 0.377-1.136 0.683-1.649l-0.911-1.276c-0.173-0.233-0.141-0.552 0.063-0.755l1.099-1.073c0.204-0.202 0.526-0.226 0.762-0.062l1.256 0.91c0.51-0.296 1.068-0.537 1.665-0.684l0.275-1.54c0.047-0.288 0.298-0.49 0.589-0.49zM21.386 17.49c-0.299-0.001-0.602 0.032-0.906 0.101-2.159 0.49-3.51 2.621-3.015 4.76s2.646 3.477 4.805 2.987c2.159-0.498 3.502-2.629 3.015-4.76-0.425-1.838-2.074-3.085-3.899-3.088z"></path>
</svg>
