<!-- Generated by IcoMoon.io -->
<svg version="1.1" xmlns="http://www.w3.org/2000/svg" width="32" height="32" viewBox="0 0 32 32">
<title>modellatoreProcessi</title>
<path fill="#464545" d="M22.808 23.83c-1.646 0-3.057 0.98-3.704 2.383h-5.658c-1.409 0-2.553-1.144-2.553-2.553v-6.553c0.776 0.371 1.636 0.596 2.553 0.596h5.658c0.647 1.403 2.056 2.383 3.704 2.383 2.257 0 4.085-1.83 4.085-4.085s-1.828-4.085-4.085-4.085c-1.646 0-3.057 0.98-3.704 2.383h-5.658c-1.409 0-2.553-1.144-2.553-2.553v-3.956c1.404-0.647 2.383-2.058 2.383-3.704 0-2.257-1.828-4.085-4.085-4.085s-4.085 1.828-4.085 4.085c0 1.646 0.98 3.057 2.383 3.704v15.871c0 3.29 2.667 5.957 5.957 5.957h5.658c0.647 1.403 2.056 2.383 3.704 2.383 2.257 0 4.085-1.83 4.085-4.085s-1.828-4.085-4.085-4.085zM22.808 13.643c1.3 0 2.356 1.054 2.356 2.357 0 1.3-1.055 2.357-2.356 2.357-1.304 0-2.357-1.057-2.357-2.357 0.002-1.304 1.055-2.357 2.357-2.357zM9.191 1.728c1.3 0 2.356 1.054 2.356 2.357 0 1.3-1.055 2.357-2.356 2.357-1.302 0-2.356-1.057-2.356-2.357 0-1.304 1.054-2.357 2.356-2.357zM22.808 30.272c-1.304 0-2.357-1.057-2.357-2.357 0-1.304 1.054-2.357 2.357-2.357 1.3 0 2.356 1.054 2.356 2.357 0 1.3-1.055 2.357-2.356 2.357z"></path>
</svg>
