<!-- Generated by IcoMoon.io -->
<svg version="1.1" xmlns="http://www.w3.org/2000/svg" width="32" height="32" viewBox="0 0 32 32">
<title>monitoraggioOperazioniBatch</title>
<path fill="#454545" d="M2.341 3.777c-1.090 0-1.975 0.881-1.975 1.971v19.727c0 1.088 0.885 1.972 1.975 1.972h10.58c0.087-0.473 0.049-0.97-0.142-1.431-0.082-0.198-0.192-0.375-0.314-0.541h-10.124v-16.746h23.679v5.64c0.634-0.071 1.248-0.353 1.664-0.811 0.086-0.094 0.196-0.146 0.311-0.178v-7.633c0-1.089-0.887-1.971-1.975-1.971zM3.819 5.257c0.545 0 0.986 0.438 0.986 0.985 0 0.545-0.441 0.984-0.986 0.984s-0.987-0.439-0.987-0.984c0-0.547 0.442-0.985 0.987-0.985zM6.781 5.257c0.544 0 0.986 0.438 0.986 0.985 0 0.545-0.442 0.984-0.986 0.984-0.548 0-0.989-0.439-0.989-0.984 0-0.547 0.442-0.985 0.989-0.985z"></path>
<path fill="#454545" d="M5.008 15.495v1.395l6.337-2.896v-1.213l-6.337-2.896v1.396l4.901 2.094v0.027z"></path>
<path fill="#8c8c8c" d="M21.323 10.247c-5.908 0-10.694 4.859-10.694 10.859s4.786 10.859 10.694 10.859c5.908 0 10.694-4.859 10.694-10.859s-4.786-10.859-10.694-10.859zM20.561 12.668h1.559c0.299 0.008 0.543 0.216 0.59 0.512l0.252 1.559c0.614 0.152 1.189 0.4 1.716 0.72l1.283-0.919c0.236-0.176 0.559-0.144 0.764 0.064l1.086 1.119c0.205 0.208 0.228 0.535 0.063 0.775l-0.913 1.295c0.307 0.528 0.535 1.095 0.685 1.703l1.551 0.272c0.283 0.048 0.488 0.304 0.504 0.584v1.583c-0.008 0.304-0.212 0.552-0.504 0.6l-1.551 0.256c-0.157 0.6-0.394 1.167-0.701 1.695l0.89 1.303c0.173 0.24 0.142 0.568-0.063 0.775l-1.102 1.103c-0.205 0.208-0.527 0.232-0.764 0.064l-1.275-0.927c-0.52 0.312-1.079 0.544-1.677 0.695l-0.268 1.575c-0.047 0.296-0.299 0.504-0.59 0.504h-1.559c-0.299-0.008-0.543-0.216-0.59-0.512l-0.252-1.575c-0.575-0.152-1.126-0.384-1.63-0.688l-1.291 0.927c-0.236 0.176-0.559 0.144-0.764-0.064l-1.086-1.119c-0.205-0.208-0.228-0.536-0.063-0.775l0.913-1.287c-0.299-0.52-0.543-1.087-0.693-1.695l-1.559-0.28c-0.291-0.048-0.496-0.304-0.496-0.6v-1.583c0.008-0.304 0.212-0.552 0.504-0.6l1.535-0.256c0.15-0.6 0.378-1.167 0.685-1.695l-0.913-1.311c-0.173-0.24-0.142-0.568 0.063-0.775l1.102-1.103c0.205-0.208 0.527-0.232 0.764-0.064l1.26 0.935c0.512-0.304 1.071-0.552 1.669-0.703l0.276-1.583c0.047-0.296 0.299-0.504 0.591-0.504zM21.375 17.033c-0.3-0.001-0.604 0.033-0.908 0.104-2.165 0.503-3.519 2.694-3.023 4.892s2.653 3.573 4.818 3.070c2.165-0.511 3.511-2.702 3.023-4.892-0.426-1.889-2.079-3.17-3.91-3.174z"></path>
</svg>
