<!-- Generated by IcoMoon.io -->
<svg version="1.1" xmlns="http://www.w3.org/2000/svg" width="32" height="32" viewBox="0 0 32 32">
<title>monitoraggioPdV</title>
<path fill="#464545" d="M1.132 4.489l11.025 2.135c0.461 0.089 0.958 0.177 1.13 0.2l0.61 0.004 0.027-0.004c0.172-0.023 0.669-0.111 1.13-0.2l11.025-2.135c0.166-0.032 0.67-0.13 0.668-0.562s-0.507-0.525-0.674-0.556l-11.581-2.128c-0.24-0.044-0.555-0.068-0.887-0.068s-0.647 0.024-0.887 0.068l-11.581 2.128c-0.166 0.031-0.671 0.123-0.673 0.556s0.503 0.53 0.668 0.562z"></path>
<path fill="#464545" d="M31.577 28.358l-3.68-3.68c0.849-1.25 1.307-2.723 1.307-4.268 0-1.919-0.706-3.729-1.993-5.136v-7.076c0-0.625-0.461-1.096-1.072-1.096-0.076 0-0.153 0.008-0.229 0.022l-10.374 2.009c-0.438 0.085-1.155 0.195-1.591 0.245-0.003 0-0.077 0.006-0.339 0.006s-0.335-0.007-0.331-0.005c-0.444-0.050-1.161-0.161-1.599-0.245l-10.374-2.009c-0.076-0.015-0.154-0.022-0.229-0.022-0.611 0-1.072 0.471-1.072 1.096v14.238c0 0.654 0.503 1.264 1.145 1.388l11.572 2.241c0.241 0.047 0.556 0.072 0.889 0.072s0.648-0.026 0.889-0.072l1.655-0.32c0.017 0.017 0.033 0.036 0.051 0.053 1.439 1.439 3.352 2.231 5.386 2.231 1.544 0 3.018-0.457 4.268-1.307l3.68 3.68c0.282 0.282 0.652 0.423 1.022 0.423s0.74-0.141 1.022-0.423c0.564-0.564 0.564-1.479-0-2.043zM17.951 24.046c-0.971-0.971-1.506-2.262-1.506-3.635s0.535-2.664 1.506-3.635c0.971-0.971 2.262-1.506 3.635-1.506s2.664 0.535 3.635 1.506c0.971 0.971 1.506 2.262 1.506 3.635s-0.535 2.664-1.506 3.635c-0.971 0.971-2.262 1.506-3.635 1.506s-2.664-0.535-3.635-1.506z"></path>
</svg>
