<!-- Generated by IcoMoon.io -->
<svg version="1.1" xmlns="http://www.w3.org/2000/svg" width="32" height="32" viewBox="0 0 32 32">
<title>news</title>
<path fill="#464545" d="M29.536 6.563c-0.186-2.41-2.205-4.315-4.662-4.315h-20.196c-2.579 0-4.678 2.099-4.678 4.678v18.149c0 2.579 2.099 4.678 4.678 4.678h22.644c2.579 0 4.678-2.099 4.678-4.678v-14.394c-0-1.779-0.999-3.327-2.464-4.118zM27.018 25.075c0 1.183-0.962 2.145-2.145 2.145h-20.196c-1.183 0-2.145-0.962-2.145-2.145v-18.149c0-1.183 0.962-2.145 2.145-2.145h20.196c1.183 0 2.145 0.962 2.145 2.145v18.149z"></path>
<path fill="#464545" d="M5.088 11.741h0.053c0.364 0 0.66-0.295 0.66-0.66v-2.326l1.97 2.714c0.124 0.171 0.323 0.272 0.534 0.272h0.064c0.002 0 0.005-0.001 0.007-0.001 0.003 0 0.007 0.001 0.010 0.001h0.053c0.364 0 0.66-0.295 0.66-0.66v-4.335c0-0.364-0.295-0.66-0.66-0.66h-0.053c-0.365 0-0.66 0.295-0.66 0.66v2.326l-1.97-2.714c-0.124-0.171-0.323-0.272-0.534-0.272h-0.064c-0.002 0-0.005 0-0.007 0s-0.007-0-0.010-0h-0.053c-0.364 0-0.66 0.295-0.66 0.66v4.335c0 0.365 0.295 0.66 0.66 0.66z"></path>
<path fill="#464545" d="M13.139 10.421h-2.058v-0.887h1.68c0.364 0 0.66-0.295 0.66-0.66v-0.053c0-0.365-0.295-0.66-0.66-0.66h-1.68v-0.702h1.97c0.364 0 0.66-0.295 0.66-0.66v-0.053c0-0.364-0.295-0.66-0.66-0.66h-2.682c-0.364 0-0.66 0.295-0.66 0.66v4.335c0 0.365 0.295 0.66 0.66 0.66h2.771c0.364 0 0.66-0.295 0.66-0.66s-0.296-0.66-0.66-0.66z"></path>
<path fill="#464545" d="M16.095 11.741h0.041c0.001 0 0.002-0 0.003-0s0.002 0 0.003 0h0.034c0.283 0 0.535-0.181 0.625-0.449l0.825-2.449 0.821 2.448c0.090 0.269 0.342 0.45 0.626 0.45h0.041c0.001 0 0.002-0 0.003-0s0.002 0 0.003 0h0.034c0.283 0 0.534-0.18 0.625-0.448l1.47-4.335c0.068-0.201 0.035-0.423-0.089-0.596s-0.324-0.275-0.536-0.275h-0.068c-0.284 0-0.537 0.182-0.626 0.452l-0.814 2.457-0.818-2.457c-0.090-0.27-0.342-0.451-0.626-0.451h-0.092c-0.285 0-0.537 0.182-0.626 0.452l-0.814 2.457-0.818-2.457c-0.090-0.27-0.342-0.451-0.626-0.451h-0.067c-0.213 0-0.412 0.103-0.536 0.275s-0.157 0.395-0.089 0.596l1.47 4.335c0.091 0.268 0.342 0.448 0.625 0.448z"></path>
<path fill="#464545" d="M23.419 11.741c1.463 0 2.118-0.851 2.118-1.69 0.010-1.309-1.129-1.653-1.809-1.858-0.755-0.228-0.826-0.32-0.826-0.505 0-0.11 0.264-0.228 0.657-0.228 0.263 0 0.574 0.077 0.757 0.188 0.309 0.187 0.71 0.091 0.901-0.215l0.024-0.039c0.093-0.149 0.123-0.33 0.082-0.502s-0.148-0.32-0.299-0.411c-0.404-0.246-0.952-0.393-1.466-0.393-1.402 0-2.029 0.804-2.029 1.601 0 1.274 1.079 1.601 1.792 1.817 0.777 0.235 0.846 0.329 0.844 0.542 0 0.222-0.386 0.322-0.745 0.322-0.349 0-0.731-0.149-0.952-0.37-0.124-0.124-0.292-0.194-0.467-0.194-0 0-0 0-0.001 0-0.175 0-0.343 0.070-0.467 0.193l-0.036 0.036c-0.125 0.125-0.194 0.294-0.193 0.471s0.073 0.345 0.2 0.468c0.487 0.474 1.221 0.768 1.916 0.768z"></path>
<path fill="#464545" d="M11.919 13.664h-6.276c-0.699 0-1.266 0.567-1.266 1.267s0.567 1.267 1.266 1.267h6.276c0.699 0 1.267-0.567 1.267-1.267s-0.567-1.267-1.266-1.267z"></path>
<path fill="#464545" d="M11.919 17.886h-6.276c-0.699 0-1.266 0.567-1.266 1.267s0.567 1.267 1.266 1.267h6.276c0.699 0 1.267-0.567 1.267-1.267s-0.567-1.267-1.266-1.267z"></path>
<path fill="#464545" d="M11.919 22.107h-6.276c-0.699 0-1.266 0.567-1.266 1.267s0.567 1.267 1.266 1.267h6.276c0.699 0 1.267-0.567 1.267-1.267s-0.567-1.267-1.266-1.267z"></path>
<path fill="#464545" d="M24.804 13.485h-9.679c-0.405 0-0.733 0.328-0.733 0.733v9.868c0 0.405 0.328 0.733 0.733 0.733h9.679c0.405 0 0.733-0.328 0.733-0.733v-9.868c0-0.405-0.328-0.733-0.733-0.733z"></path>
</svg>
