<!-- Generated by IcoMoon.io -->
<svg version="1.1" xmlns="http://www.w3.org/2000/svg" width="30" height="32" viewBox="0 0 30 32">
<title>numerazione_provvisoria</title>
<path fill="#464545" d="M3.2 0v32h25.6v-25.6l-6.4-6.4h-19.2zM19.547 0.937c0.243-0.005 0.498 0.025 0.767 0.099l5.009 2.874c2.184 1.516-0.351 4.973-0.421 4.928l-0.424 0.762h1.123v19.2h-13.267c-2.166 1.222-4.214 1.53-5.901 1.906l-0.051-0.038c0.047-2.059-1.198-4.37-0.384-8.004l0.403-0.731v-18.733h10.219c0.555-0.993 1.524-2.231 2.928-2.263z"></path>
<path fill="#219db0" d="M23.679 4.758l-3.003-1.601c-0.758-0.403-1.706-0.132-2.123 0.605l-1.032 1.834 5.745 3.061 1.033-1.833c0.414-0.739 0.138-1.663-0.62-2.066h0zM8.613 21.439l5.745 3.061 8.16-14.51-5.747-3.062-8.158 14.511zM8.033 25.788l0.074 3.186 5.397-3.193-5.542-2.955 0.071 2.962z"></path>
</svg>
