<!-- Generated by IcoMoon.io -->
<svg version="1.1" xmlns="http://www.w3.org/2000/svg" width="32" height="32" viewBox="0 0 32 32">
<title>oggettario</title>
<path fill="#464545" d="M7.589 14.033c-0.855 0-0.855 1.328 0 1.328 3.404 0 6.807 0 10.21 0 0.856 0 0.856-1.328 0-1.328-3.403 0-6.806 0-10.21 0z"></path>
<path fill="#464545" d="M3.163 7.244v24.756h19.064v-21.322l-3.542-3.435h-15.522zM20.579 30.352h-15.768v-21.46h13.024v2.615h2.742v18.845h0.001z"></path>
<path fill="#464545" d="M6.385 3.45v2.865h1.649v-1.218h13.025v2.615h2.743v18.845h-0.724v1.648h2.373v-21.322l-3.542-3.434z"></path>
<path fill="#464545" d="M25.294 0h-15.522v2.866h1.648v-1.218h13.025v2.615h2.743v18.845h-0.724v1.648h2.373v-21.322z"></path>
</svg>
