<!-- Generated by IcoMoon.io -->
<svg version="1.1" xmlns="http://www.w3.org/2000/svg" width="32" height="32" viewBox="0 0 32 32">
<title>organigramma</title>
<path fill="#464545" d="M28.25 22.72v-2.97c0-1.551-1.262-2.813-2.813-2.813h-2.875v-2.813c0-1.551-1.262-2.813-2.813-2.813h-2.813v-2.032c2.137-0.436 3.75-2.329 3.75-4.593 0-2.585-2.103-4.688-4.688-4.688s-4.688 2.103-4.688 4.688c0 2.264 1.613 4.157 3.75 4.593v2.032h-2.813c-1.551 0-2.813 1.262-2.813 2.813v2.813h-2.875c-1.551 0-2.813 1.262-2.813 2.813v2.97c-2.137 0.436-3.75 2.329-3.75 4.593 0 2.585 2.103 4.688 4.688 4.688s4.688-2.103 4.688-4.688c0-2.264-1.613-4.157-3.75-4.593v-2.97c0-0.517 0.42-0.938 0.938-0.938 0.276 0 8.22 0 8.5 0v3.907c-2.137 0.436-3.75 2.329-3.75 4.593 0 2.585 2.103 4.688 4.688 4.688s4.688-2.103 4.688-4.688c0-2.264-1.613-4.157-3.75-4.593v-3.907c0.281 0 8.225 0 8.5 0 0.517 0 0.938 0.42 0.938 0.938v2.97c-2.137 0.436-3.75 2.329-3.75 4.593 0 2.585 2.103 4.688 4.688 4.688s4.688-2.103 4.688-4.688c0-2.264-1.613-4.157-3.75-4.593zM20.688 16.938h-9.375v-2.813c0-0.517 0.42-0.938 0.938-0.938h7.5c0.517 0 0.938 0.42 0.938 0.938v2.813z"></path>
<path fill="#04b804" d="M20.791 4.699c0 2.6-2.123 4.71-4.747 4.722h-0.001c-0.007 0-0.014 0-0.022 0-2.619 0-4.745-2.089-4.77-4.676l-0-0.002c-0-0.013-0-0.028-0-0.044 0-2.585 2.098-4.685 4.7-4.722l0.004-0c0.020-0 0.043-0 0.066-0 2.603 0 4.72 2.065 4.769 4.63l0 0.005z"></path>
<path fill="#219db0" d="M9.372 27.287c0 2.6-2.123 4.71-4.747 4.722h-0.001c-0.007 0-0.014 0-0.022 0-2.619 0-4.745-2.089-4.77-4.676l-0-0.002c-0-0.013-0-0.028-0-0.044 0-2.585 2.098-4.685 4.7-4.722l0.004-0c0.020-0 0.043-0 0.066-0 2.603 0 4.72 2.065 4.769 4.63l0 0.005z"></path>
<path fill="#219db0" d="M20.777 27.35c0 2.6-2.123 4.71-4.747 4.722h-0.001c-0.007 0-0.014 0-0.022 0-2.619 0-4.745-2.089-4.77-4.676l-0-0.002c-0-0.013-0-0.028-0-0.044 0-2.585 2.098-4.685 4.7-4.722l0.004-0c0.020-0 0.043-0 0.066-0 2.603 0 4.72 2.065 4.769 4.63l0 0.005z"></path>
<path fill="#219db0" d="M32.063 27.337c0 2.6-2.123 4.71-4.747 4.722h-0.001c-0.007 0-0.014 0-0.022 0-2.619 0-4.745-2.089-4.77-4.676l-0-0.002c-0-0.013-0-0.028-0-0.044 0-2.585 2.098-4.685 4.7-4.722l0.004-0c0.020-0 0.043-0 0.066-0 2.603 0 4.72 2.065 4.769 4.63l0 0.005z"></path>
</svg>
