<!-- Generated by IcoMoon.io -->
<svg version="1.1" xmlns="http://www.w3.org/2000/svg" width="32" height="32" viewBox="0 0 32 32">
<title>postainarrivo</title>
<path fill="#464545" d="M24 8h-16c-0.694 0-1.356 0.116-2 0.284v-2.284h7c0.552 0 1-0.448 1-1v-4c0-0.552-0.448-1-1-1h-8c-0.552 0-1 0.448-1 1v8.112c-2.38 1.388-4 3.94-4 6.888v11c0 0.552 0.448 1 1 1h17v3c0 0.552 0.448 1 1 1h2c0.552 0 1-0.448 1-1v-3h9c0.552 0 1-0.448 1-1v-11c0-4.418-3.582-8-8-8zM14 26h-12v-10c0-3.308 2.692-6 6-6s6 2.692 6 6v10z"></path>
<path fill="#454545" d="M4.959 0h8.082c0.53 0 0.959 0.429 0.959 0.959v4.082c0 0.53-0.429 0.959-0.959 0.959h-8.082c-0.53 0-0.959-0.429-0.959-0.959v-4.082c0-0.53 0.429-0.959 0.959-0.959z"></path>
</svg>
