<!-- Generated by IcoMoon.io -->
<svg version="1.1" xmlns="http://www.w3.org/2000/svg" width="32" height="32" viewBox="0 0 32 32">
<title>procedimenti_personali</title>
<path fill="#454545" d="M15.998 0.225c-0.404 0-0.8 0.030-1.198 0.061l-1.386 4.297c-1.054 0.226-2.054 0.592-2.985 1.075l-3.812-2.394c-0.649 0.468-1.266 0.976-1.837 1.533l1.69 4.156c-0.659 0.845-1.21 1.776-1.625 2.78l-4.416 0.611c-0.194 0.766-0.351 1.546-0.431 2.352l3.963 2.097c0.045 1.104 0.228 2.174 0.552 3.181l-2.99 3.306c0.348 0.721 0.735 1.421 1.183 2.077l4.401-0.945c0.722 0.785 1.544 1.473 2.451 2.042l-0.167 4.504c0.723 0.326 1.474 0.599 2.248 0.817l2.785-3.579c0.494 0.063 0.994 0.106 1.505 0.106 0.488 0 0.966-0.039 1.438-0.098-0.012-0.007-0.025-0.013-0.037-0.020-0.017-0.040-0.038-0.078-0.061-0.117-0.023-0.006-0.045-0.013-0.067-0.021-0.025-0.009 0.020 0.007 0.063 0.013-0.028-0.049-0.058-0.097-0.085-0.147-0.010-0.005-0.027-0.015-0.035-0.020-0.099-0.060-0.2-0.116-0.301-0.172-0.049 0.001-0.116-0.047-0.154-0.073 0.012-0.001 0.016-0.001 0.019-0.001-0.003-0.002-0.006-0.003-0.009-0.005-0.021-0.005-0.065-0.016-0.122-0.041-0.086-0.038-0.057-0.045-0.147-0.070-0.051-0.015-0.105-0.019-0.156-0.035-0.054-0.017-0.106-0.042-0.158-0.064-0.064-0.029-0.13-0.056-0.193-0.088-0.032-0.016-0.286-0.17-0.302-0.18-0.153-0.092-0.369-0.193-0.353-0.431-0.015-0.007-0.031-0.014-0.046-0.021-0.045-0.022-0.119-0.028-0.13-0.077-0.009-0.041-0.011-0.083-0.009-0.125-0.007-0.006-0.016-0.014-0.027-0.022-0.032-0.024-0.066-0.045-0.1-0.067-0.017-0.013-0.035-0.026-0.052-0.039-0.035-0.017-0.070-0.033-0.105-0.050-0 0.028-0.004 0.055-0.015 0.081-0.051 0.12-0.11 0.267-0.231 0.316-0.22 0.088-0.3-0.14-0.362-0.257-0.049-0.174-0.056-0.193-0.066-0.245-0.122-0.025-0.194-0.171-0.268-0.274-0.035-0.048-0.031-0.114-0.042-0.172-0.013-0.069-0.020-0.118-0.024-0.162-0.045-0.015-0.092-0.038-0.141-0.070-0.050-0.033-0.094-0.075-0.14-0.113-0.055-0.064-0.124-0.117-0.164-0.191-0.035-0.065-0.038-0.144-0.055-0.216-0.010-0.042 0.015 0.048 0.014 0.011-0.001-0.032-0.040-0.086-0.049-0.103 0.003-0.013 0.006-0.025 0.009-0.038-0.179 0.091-0.344 0.193-0.545 0.234-0.061 0.013-0.156 0.057-0.186 0.003-0.251-0.444-0.13-0.447 0.116-0.657 0.027-0.017 0.054-0.035 0.081-0.053-0.076-0.001-0.152-0.001-0.228 0.001-0.015-0.018-0.030-0.035-0.045-0.053-0.059 0.001-0.118 0.001-0.178 0.003-0.033 0.001-0.114 0.050-0.097 0.021 0.038-0.063 0.081-0.122 0.128-0.18-0.085-0.089-0.165-0.181-0.212-0.292-0.012-0.028 0.018-0.035 0.059-0.035s0.092 0.007 0.123 0.006c0.3-0.008 0.601-0.005 0.901 0.002 0.080 0.002 0.161 0.004 0.241 0.006 0.040-0.129 0.094-0.252 0.169-0.365 0.045-0.028 0.084-0.069 0.131-0.090 0.003-0.009 0.006-0.019 0.009-0.028 0.019-0.044 0.038-0.087 0.058-0.131 0.056-0.125-0.018 0.053-0.001 0.144 0.003-0 0.006-0 0.009-0 0.203-0.172 0.311-0.256 0.369-0.261 0.056-0.005 0.066 0.067 0.072 0.2 0.003 0 0.007 0 0.010 0 0.010-0.012 0.016-0.015 0.019 0 0.018 0 0.036 0 0.054 0 0.057-0.083 0.12-0.133 0.248-0.069 0.055-0.041 0.107-0.087 0.162-0.128 0.354-0.262 0.72-0.511 1.13-0.679 0.162-0.066 0.332-0.112 0.498-0.167 0.387-0.109 0.766-0.242 1.155-0.344 0.047-0.012 0.093-0.027 0.14-0.035 0.021-0.003 0.047-0.015 0.069-0.017 0.013-0.001 0.024 0.002 0.032 0.012 0.082 0.118 0.114 0.263 0.171 0.394-0.049 0.030-0.067 0.043-0.091 0.058 0.191-0.051 0.381-0.102 0.573-0.151l-0.481-0.739c-0.623 0.24-1.293 0.385-1.999 0.385-3.087 0-5.588-2.502-5.588-5.588 0-3.087 2.501-5.588 5.588-5.588v-0c1.52 0 2.897 0.607 3.905 1.591 0.15-0.024 0.301-0.050 0.451-0.076-0.047-0.023-0.049-0.082 0.001-0.238-0.059-0.201-0.027-0.228 0.082-0.228 0.019-0.049 0.106 0.001 0.159 0.001 0.297 0.001 0.367 0.001 0.691 0.001 0.166 0.001 0.332 0.001 0.499 0.001 0.022-0.001 0.044-0.001 0.066-0.002 0.163-0.006 0.326-0.023 0.49-0.029 0.064-0.026 0.128-0.051 0.192-0.076 0.11-0.041 0.246-0.105 0.338-0.103 0.079 0.002 0.125 0.053 0.093 0.207 0.041 0 0.083 0 0.124 0 0.049-0.019 0.096-0.034 0.121 0 0.042 0 0.083 0 0.125 0-0.019 0.072-0.030 0.147-0.044 0.221 0.008 0.051 0.014 0.103 0.022 0.155 0.298-0.066 0.617-0.133 0.882-0.174 0.128-0.020 0.257-0.040 0.387-0.038 0.059 0.001 0.18-0.014 0.171 0.044-0.034 0.225-0.078 0.354-0.144 0.435 0.006-0.001 0.013-0.001 0.019-0.002 0.013-0.002-0.001 0.002-0.021 0.005-0.1 0.121-0.25 0.135-0.491 0.207 0 0.003 0.001 0.005 0.001 0.008 0.092-0.002 0.184-0.003 0.277-0.005 0.147-0.004 0.294-0.013 0.441-0.014 0.104-0.001 0.256-0.079 0.313 0.009 0.066 0.101 0.103 0.182 0.119 0.246 0.147 0.017 0.24 0.073 0.093 0.22 0.012 0.010 0.022 0.019 0.032 0.028 0.016-0 0.033-0 0.049-0 0.023-0.001 0.028-0.001 0.053-0.001 0.105-0.003 0.21-0.001 0.316-0.001 0.045-0.004 0.121-0.041 0.124 0 0.007 0.080-0.008 0.159-0.028 0.238 0.021 0.080 0.037 0.16 0.030 0.241-0.003 0.044-0.087 0-0.131 0.001-0.117 0-0.233 0.001-0.35 0.001-0.004 0-0.008 0-0.013 0-1.639 0.044 0.35 0.010-0.782 0.034 0.012 0.022 0.023 0.044 0.033 0.066 0.009 0.020-0.044-0.002-0.066-0.002-0.074-0.002-0.148-0.003-0.221-0.005-0.001 0.002-0.002 0.003-0.003 0.005-0.116-0.002-0.232-0.003-0.348-0.003-0.001 0.066-0.018 0.131-0.041 0.194 0.010 0.050 0.019 0.101 0.021 0.151 0.191-0.002 0.381-0.003 0.572-0.006 0.193-0.002 0.65-0.106 0.441 0.426-0.024 0.060-0.087 0.077-0.16 0.083-0.032 0.037-0.096 0.032-0.177 0.007-0.007 0.001-0.014 0.001-0.020 0.002-0.028 0.004-0.081 0.007-0.143 0.009-0.031 0.060-0.072 0.113-0.124 0.153-0.142 0.109-0.352 0.060-0.53 0.076-0.050 0.005-0.101 0.008-0.152 0.012 0.111 0.323 0.308 0.9 0.479 1.398 0.801 0.083 1.602 0.169 2.405 0.239 0.074 0.006 0.193-0.051 0.221 0.017 0.063 0.15-0.007 0.324-0.011 0.487-0.009 0.002-0.024 0.005-0.034 0.007-0.012 0.015-0.033 0.016-0.059 0.012-0.238 0.047-0.563 0.112-0.749 0.14-0.242 0.037-0.485 0.062-0.728 0.093-0.261 0.037-0.522 0.071-0.783 0.111-0.273 0.339-0.887 0.57-1.586 0.633 0.024 0.088-0.016 0.194-0.114 0.33-0.041 0.057-0.131 0.047-0.197 0.071-0.483 0.127-0.977 0.19-1.474 0.229-0.009 0.020-0.018 0.040-0.027 0.059 0.26-0.001 0.521-0.002 1.073-0.002 0.32-0 0.641 0.007 0.961 0.002-0.036-0.406 0.145-0.364 0.443-0.427 0.085-0.022 0.17-0.045 0.255-0.067 0.062-0.015 0.124-0.030 0.185-0.046 0.014-0.045 0.031-0.089 0.068-0.115 0.165-0.114 0.299-0.069 0.414 0.028 0.193-0.009 0.241-0.001 0.184 0.203 0.030 0.039 0.060 0.077 0.088 0.11 0.010 0.012 0.011 0.013 0.020 0.023 0.195-0.007 0.39-0.017 0.585-0.019 0.090-0.001 0.193-0.039 0.269 0.007 0.295 0.179 0.319 0.306 0.127 0.505-0.037 0.038-0.094 0.049-0.141 0.074-0.021 0.006-0.043 0.011-0.064 0.017 0.032-0.004 0.063-0 0.088 0.019 0.010 0.008 0.018 0.014 0.028 0.022 0.023-0.004 0.045-0.008 0.068-0.012-0.035 0.010-0.053 0.014-0.061 0.017 0.004 0.003 0.009 0.007 0.013 0.010 0.014 0.004 0.032 0.011 0.051 0.026 0.058-0.004 0.114 0.002 0.167 0.027 0.010 0.005 0.019 0.010 0.028 0.015 0.105-0.011 0.072-0.005 0.225-0.031-0.029 0.065-0.047 0.14-0.067 0.213 0.037 0.066 0.070 0.139 0.108 0.204 0.026 0.002 0.052 0.004 0.079 0.006 0.111 0.009 0.295-0.054 0.33 0.052 0.020 0.062 0.011 0.124-0.011 0.187 0.009 0.006 0.017 0.011 0.026 0.017 0.036-0.007 0.070-0.005 0.1 0.016 0.019 0.013 0.012 0.024-0.007 0.035 0.116 0.060 0.234 0.118 0.281 0.231 0.038 0.090-0.118 0.168-0.207 0.208-0.113 0.051-0.244 0.042-0.367 0.050-0.243 0.016-0.486 0.020-0.729 0.024-0.015 0.031-0.035 0.055-0.058 0.074 0.155 0.453 0.307 0.898 0.458 1.337 0.026-0.011 0.050-0.023 0.072-0.038 0.041 0.010 0.083 0.017 0.123 0.030 0.019 0.006 0.037 0.016 0.053 0.028 0.053 0.041 0.108 0.080 0.152 0.13 0.016 0.018 0.027 0.041 0.037 0.064 0.035 0.012 0.069 0.023 0.103 0.038 0.214 0.093 0.233 0.112 0.429 0.23 0.225 0.103 0.406 0.174 0.228 0.503 0.409-0 0.817 0 1.226 0.002 0.031 0 0.061 0 0.092 0 0.050-0.002 0.124-0.037 0.166-0.022 0.027-0.004 0.050-0.001 0.057 0.021 0.37-0.027 0.742-0.038 1.113-0.032l-2.488-2.752c0.297-0.954 0.462-1.961 0.51-3l-0-0 4.105-2.171c-0.081-0.805-0.237-1.585-0.432-2.352l-4.559-0.631c-0.395-0.951-0.916-1.833-1.529-2.642l1.738-4.275c-0.571-0.557-1.188-1.065-1.838-1.533l-3.871 2.43c-0.908-0.478-1.886-0.84-2.913-1.073l-1.399-4.335c-0.397-0.029-0.794-0.061-1.198-0.061zM24.539 12.415c0.001-0.001 0.002-0.002 0.002-0.003-0.014 0.002-0.029 0.003-0.043 0.005 0.013 0.001 0.027 0 0.040-0.001zM24.339 14.613c0.006 0.038 0.008 0.051 0.004 0.001-0.001-0-0.002-0.001-0.004-0.001zM24.322 16.694c0.017 0.050 0.027 0.078 0.044 0.129 0.167-0.026 0.334-0.049 0.502-0.072-0.182-0.019-0.364-0.038-0.546-0.057zM23.283 18.315c-0.005 0-0.016 0.025-0.008 0.025 0.006 0 0.011 0 0.017 0.001-0.002-0.009-0.004-0.016-0.007-0.025-0-0.001-0.001-0.001-0.002-0.001zM26.103 22.366l-0 0c0 0 0 0 0 0s-0-0-0-0zM18.7 22.691c-0.017 0.001-0.037 0-0.056 0-0.049 0.023-0.115 0.042-0.194 0.072-0.2 0.096-0.359 0.163-0.543 0.285-0.038 0.025-0.071 0.058-0.106 0.088 0.189-0.044 0.382-0.088 0.55-0.123 0.034-0.018 0.067-0.032 0.094-0.024 0.050-0.020 0.108-0.052 0.124-0.012 0.045 0.111 0.067 0.239 0.055 0.359 0.007 0.038 0.013 0.077 0.016 0.115 0.002 0.022-0.020 0.024-0.049 0.023-0.032 0.061-0.147 0.032-0.218 0.048-0.058 0.013-0.116 0.026-0.174 0.038l-0.209 0.609c0.25 0.025 0.5 0.053 0.749 0.082 1.263 0.169 1.92 0.264 3.142 0.405 0.198 0.023 0.613 0.066 1.016 0.109 0.211 0.020 0.422 0.041 0.633 0.062-0.013-0.075-0.022-0.152-0.043-0.224 0.053 0 0.106 0.001 0.16 0.001-0.008-0.061-0.009-0.122-0.005-0.179 0.004-0.052 0.091-0.015 0.154-0.004 0.094-0.073 0.241-0.006 0.367 0.004 0.146 0 0.292 0.001 0.438 0.001 0.046 0 0.092 0 0.138 0 0.012-0.013 0.023-0.025 0.035-0.037l0.14 0.030c0.005-0.035 0.010-0.070 0.014-0.104 0-0.001 0-0.003 0-0.004-0.102-0.008-0.207-0.014-0.32-0.019-0.083 0.027-0.167 0.057-0.236 0.017-0.011-0.006-0.021-0.013-0.031-0.019-0.046 0.002-0.093 0.004-0.139 0.005 0.208-0.042 0.043 0.005 0.015-0.111-0.082-0.088-0.144-0.196-0.184-0.306-0.012-0.032 0.030-0.041 0.077-0.046-0.063-0.066-0.123-0.133-0.122-0.218 0-0.017 0.005-0.033 0.013-0.047-0.474 0.098-0.999 0.153-1.55 0.153-1.17 0-2.226-0.245-2.914-0.635l-0.408 0.265zM29.514 23.136c0.067 0.076 0.088 0.179 0.024 0.321 0.163 0.027 0.326 0.052 0.49 0.073 0.101 0.013 0.202 0.025 0.304 0.036 0.047-0.095 0.094-0.19 0.14-0.285l-0.12-0.133c-0.008-0.001-0.017-0.003-0.026-0.006-0.078 0.007-0.177-0.003-0.286-0.002-0.175-0.002-0.35-0.002-0.526-0.004zM28.586 23.146c-0.012 0.001-0.025 0.002-0.037 0.003-0.103 0.010-0.205 0.020-0.308 0.030 0.142 0.036 0.285 0.071 0.429 0.104-0.046-0.042-0.073-0.090-0.083-0.137zM12.581 24.656c-0.006 0.001-0.017 0.022-0.010 0.020 0.008-0.002 0.016-0.004 0.025-0.006-0.004-0.005-0.008-0.009-0.012-0.014-0.001-0.001-0.001-0.001-0.002-0.001zM17.696 28.356l2.659 3.419c0.775-0.218 1.525-0.491 2.248-0.817l-0.048-1.288c-0.214 0.006-0.429-0.006-0.638-0.036 0.002 0.021 0.004 0.043 0.005 0.065s-0.042-0.002-0.063-0.003c-0.003-0-0.006-0-0.009-0-0 0.002-0.001 0.003-0.001 0.005-0.069-0-0.139 0.009-0.208-0-0.011-0.001-0.022-0.003-0.033-0.005-0.044 0.002-0.088 0.006-0.132 0.013-0.081 0.010-0.211 0.033-0.291 0.010-0.102-0.030-0.185-0.081-0.244-0.155-0.063-0.012-0.126-0.025-0.189-0.037-0.32-0.061-0.641-0.115-0.961-0.172-0.051 0.003-0.101 0.006-0.138 0.011-0.067 0.008-0.279 0.052-0.334 0.041-0.102-0.021-0.193-0.076-0.289-0.114-0.018-0.028-0.038-0.055-0.054-0.084-0.035-0.069 0.027-0.003 0.051-0.018-0.126-0.046-0.202-0.118-0.076-0.278-0.224-0.093-0.449-0.184-0.68-0.255-0.057-0.059-0.107-0.101-0.14-0.139-0.147-0.050-0.292-0.102-0.435-0.161z"></path>
<path fill="#f2641d" d="M21.213 10.24c-5.985 0-10.836 4.889-10.836 10.92s4.851 10.92 10.836 10.92c5.985 0 10.836-4.889 10.836-10.92s-4.852-10.92-10.836-10.92zM21.691 12.19c0.518 0 1.092 0.214 1.218 0.625 0.191 0.618 0.492 1.596 0.843 2.737-0.255 0.521-1.125 0.856-2.061 0.856s-1.807-0.335-2.062-0.856c0.352-1.141 0.653-2.12 0.843-2.737 0.127-0.412 0.701-0.625 1.218-0.625zM24.516 18.030c0.317 1.031 0.641 2.080 0.937 3.042-0.101 1.023-1.769 1.806-3.762 1.806h-0c-1.993 0-3.66-0.784-3.761-1.806 0.296-0.962 0.619-2.011 0.937-3.041 0.221 0.735 1.438 1.254 2.825 1.254s2.604-0.518 2.825-1.254zM17.502 22.372l-0.36 1.164c0.018 1.234 2.088 2.217 4.55 2.217s4.532-0.983 4.55-2.217l-0.36-1.164 3.131 1.459c0.878 0.409 0.915 1.167 0.082 1.684l-5.888 3.653c-0.833 0.517-2.196 0.517-3.028 0l-5.888-3.653c-0.833-0.517-0.796-1.274 0.082-1.684z"></path>
</svg>
