<!-- Generated by IcoMoon.io -->
<svg version="1.1" xmlns="http://www.w3.org/2000/svg" width="32" height="32" viewBox="0 0 32 32">
<title>procedimenti_in_lavorazione</title>
<path fill="#464545" d="M15.998 0.225c-0.404 0-0.8 0.031-1.198 0.061l-1.386 4.297c-1.054 0.226-2.054 0.592-2.985 1.075l-3.811-2.394c-0.649 0.468-1.266 0.976-1.837 1.533l1.69 4.156c-0.659 0.845-1.21 1.776-1.625 2.78l-4.415 0.611c-0.194 0.766-0.351 1.546-0.431 2.352l3.963 2.097c0.045 1.104 0.228 2.174 0.552 3.181l-2.989 3.306c0.348 0.721 0.735 1.421 1.183 2.077l4.401-0.945c0.722 0.785 1.544 1.473 2.451 2.042l-0.167 4.504c0.723 0.326 1.474 0.599 2.248 0.817l2.325-2.989c-0.012-0.027-0.024-0.054-0.030-0.082-0.010-0.042-0.015-0.084-0.016-0.127-0.066 0.028-0.142 0.026-0.23-0.033-0.068-0.045-0.082-0.142-0.124-0.213 0.001-0.17 0-0.34-0.001-0.51-0.010 0.025-0.022 0.051-0.035 0.082-0.022 0.049-0.053 0.093-0.080 0.139-0.151-0.049-0.307-0.087-0.454-0.147-0.011-0.004 0.004-0.023 0.007-0.035 0.010-0.051 0.012-0.026 0.003-0.115-0.005-0.052-0.059-0.397-0.059-0.401-0.023-0.274-0.051-0.402-0.001-0.681 0.080-0.448 0.341-0.831 0.499-1.251 0.005-0.045 0.011-0.090 0.016-0.135 0.003-0.034 0.005-0.068 0.008-0.102-0.006-0.052-0.036-0.118 0.006-0.136 0.001-0 0.002-0.001 0.003-0.001 0.007-0.109 0.024-0.138 0.194-0.075 0.026-0.009 0.050-0.017 0.072-0.023 0.029-0.091 0.059-0.181 0.090-0.271-0.018-0.202 0.126-0.494 0.225-0.676 0.009-0.029 0.019-0.058 0.028-0.087 0.001-0.026 0.002-0.047 0.002-0.051 0.006-0.454 0.028-0.912 0.105-1.361 0.031-0.182 0.106-0.512 0.182-0.818-2.33-0.673-4.033-2.822-4.033-5.368 0-3.087 2.501-5.588 5.588-5.588 1.177 0 2.27 0.364 3.17 0.986 0.033-0.002 0.066-0.004 0.099-0.006 0.002-0.019 0.004-0.041 0.007-0.064-0.010-0.118-0.012-0.174 0.017-0.192 0-0.003 0-0.005 0.001-0.008 0.002-0.023 0.047-0.001 0.070-0.001 0.086-0.001 0.172-0.001 0.258-0.002 0.142-0.001 0.284-0.001 0.426-0.001 0.152-0 0.305 0 0.457 0-0.005-0.048-0.009-0.095-0.012-0.141-0.002-0.030 0.061-0.001 0.091-0.002 0.013-0 0.027 0 0.040-0 0.042-0.051 0.132-0.012 0.205-0 0.784 0 1.568 0.018 2.352 0.013 0.114-0.005 0.228-0.008 0.341-0.016 0.076-0.005 0.174-0.079 0.228-0.025l0 0c0.011-0.002 0.021-0.005 0.032-0.007 0.049-0.010 0.096-0.019 0.134-0.019 0.085 0.001 0.124 0.051 0.044 0.247 0.194 0.226 0.076 0.208-0.079 0.24-0.015 0.003-0.030 0.006-0.045 0.010-0.029 0.051-0.098 0.044-0.167 0.035-0.038 0.008-0.077 0.017-0.115 0.025-0.114 0.023-0.228 0.046-0.342 0.069 0.010-0 0.020-0.001 0.030-0.001 0.034-0.001 0.066-0.003 0.099-0.004 0.051-0.012 0.105-0.028 0.136-0.002 0.016 0 0.032 0 0.049 0.001 0.191 0.010 0.38 0.048 0.571 0.060 0.007-0 0.015-0 0.022-0 0.074-0 0.147-0.001 0.221-0.001 0.004-0 0.009-0.001 0.013-0.001 0 0 0 0.001 0 0.001 0.020-0 0.039-0 0.059-0 0.026-0 0.081-0.027 0.078-0.001-0.001 0.006-0.002 0.012-0.003 0.018 0.035-0.001 0.065 0.007 0.088 0.032 0 0 0.001 0.001 0.001 0.001 0.010 0 0.010 0 0.020 0 0.037 0 0.112-0.037 0.11-0-0.001 0.012-0.002 0.025-0.002 0.037 0.214 0.018 0.428 0.037 0.641 0.057 0.038 0.003 0.897 0.084 1.034 0.109 0.058 0.011 0.11 0.039 0.166 0.058-0.034 0.162-0.006 0.351-0.101 0.486-0.052 0.074-0.178 0.028-0.268 0.038-0.198 0.022-0.397 0.033-0.597 0.039 0.039 0.017 0.070 0.034 0.085 0.048 0.18 0.164 0.19 0.28-0.051 0.445 0.019 0.055 0.035 0.111 0.044 0.168h0.311c0.050 0 0.119-0.032 0.165-0.026 0.041-0.008 0.076-0.008 0.088 0.026 0.026 0.075 0.033 0.157 0.024 0.239 0.008 0.070 0.004 0.141-0.014 0.208 0.178 0.030 0.309 0.068 0.544 0.127 0.059 0.055 0.222 0.097 0.177 0.164-0.103 0.15-0.209 0.241-0.319 0.295 0.009 0.002 0.015 0.004 0.024 0.006-0.011-0-0.021-0.002-0.030-0.003 0.002-0.001 0.004-0.002 0.006-0.003-0.020-0.005-0.036-0.009-0.054-0.014 0.014 0.008 0.029 0.014 0.048 0.017-0.060 0.029-0.122 0.047-0.186 0.057-0.008 0.086-0.028 0.177-0.025 0.259-0.054-0.008-0.079-0.012-0.108-0.017-0.022 0.018-0.048 0.024-0.077 0.024-0.001 0.016-0.001 0.032-0.001 0.048-0.027 0.014-0.054 0.030-0.082 0.044 0.002 0.002 0.004 0.005 0.005 0.007 0.004 0.008 0.008 0.014 0.012 0.022 0.121-0.022 0.272-0.161 0.146 0.054 0.036 0.010 0.070 0.021 0.099 0.035 0.055 0.027 0.096 0.075 0.144 0.113-0.029 0.122-0.034 0.253-0.085 0.367 0.037 0.043 0.053 0.094 0.032 0.152-0.071 0.202-0.254 0.268-0.446 0.292 0.095 0.134 0.104 0.181-0.003 0.197 0 0.001 0 0.001 0 0.002 0.005 0.034-0.065 0.021-0.098 0.029-0.052 0.014-0.105 0.022-0.156 0.038-0.025 0.008-0.046 0.024-0.070 0.035-0.113 0.042-0.229 0.056-0.346 0.057 0.068 0.039 0.122 0.1 0.155 0.211 0.016 0.053-0.002 0.109-0.016 0.165 0.157 0.081 0.245 0.247 0.192 0.433-0.019 0.065-0.061 0.12-0.11 0.169-0.009 0.103-0.033 0.216-0.028 0.307 0 0.006 0 0.012 0.001 0.019 0.075-0.063 0.149-0.124 0.256-0.213 0.306 0.149 0.636 0.255 0.918 0.446 0.064 0.043 0.049 0.146 0.068 0.22 0.036 0.139 0.089 0.276 0.098 0.42 0.022 0.358-0.069 0.675-0.232 0.961 0.029 0.116 0.017 0.294-0.008 0.522 0.069 0.058-0.036 0.224-0.041 0.329-0.011 0.267 0 0.335-0.014 0.394 0.065 0.069 0.042 0.094-0.037 0.089-0.021 0.040-0.055 0.105-0.1 0.193-0.006 0.034-0.012 0.068-0.018 0.102 0.149-0.001 0.297-0.001 0.446 0.003 0.118 0.004 0.235 0.014 0.352 0.025 0.056 0.006 0.12-0.003 0.168 0.027 0.039 0.024 0.071 0.057 0.102 0.092 0.167 0 0.334-0 0.501 0 0.101-0.001 0.236-0.076 0.3 0l0.071 0c0.009 0 0.028-0.009 0.026 0-0.011 0.076-0.011 0.16-0.018 0.24 0.003 0.031 0.004 0.062 0.006 0.094 0.096-0.003 0.154-0.007 0.191 0.004 0.049 0 0.097 0 0.146 0 0.006 0 0.019-0.006 0.017-0.001-0.028 0.085-0.046 0.152-0.061 0.21 0.017 0.068 0.038 0.151 0.074 0.267h0.052c-0.015 0.076-0.014 0.159-0.020 0.24 0 0 0 0 0 0 0.268-0 0.537-0 0.805-0l-2.171-2.401c0.297-0.954 0.462-1.961 0.51-3l-0-0 4.105-2.171c-0.081-0.805-0.237-1.585-0.432-2.352l-4.559-0.631c-0.395-0.951-0.916-1.833-1.529-2.642l1.738-4.275c-0.571-0.557-1.188-1.065-1.838-1.533l-3.871 2.43c-0.908-0.478-1.886-0.839-2.913-1.073l-1.399-4.335c-0.397-0.029-0.794-0.061-1.198-0.061zM25.388 16.836c-0.016 0.014-0.025 0.026-0.015 0.032s0.015-0.018 0.015-0.029zM28.019 22.028v0h0.028zM30.035 22.798c-0 0.001-0.001 0.003-0.001 0.004 0.017 0.055 0.031 0.111 0.038 0.168 0.003 0.026-0.051-0.006-0.077-0.006-0.005 0-0.009 0-0.014 0-0.002 0.006-0.003 0.012-0.005 0.017-0.097 0.002-0.194 0.003-0.291 0.005 0.024 0.065 0.043 0.131 0.051 0.199 0.004 0.037-0.074-0.002-0.11-0.003-0.018-0-0.036-0.001-0.055-0.001-0 0.001-0.001 0.002-0.001 0.003-0.155 0.012-0.31 0.021-0.465 0.028-0.059 0.069-0.183 0.012-0.275 0.016-0.020 0.001-0.040 0.001-0.061 0.002-0.039 0.004-0.079 0.008-0.118 0.013 0.013 0.026 0.026 0.053 0.037 0.080 0.176 0 0.267 0 0.397 0h0.008c0.041 0 0.073-0.001 0.101-0.001 0.029-0.004 0.074-0.025 0.077 0.001 0 0.004 0.001 0.006 0.001 0.010 0.039 0.019 0.039 0.073 0.025 0.208 0.133 0.045 0.261 0.103 0.38 0.179 0.051 0.005 0.088 0.023 0.089 0.069 0.004 0.141-0.168 0.216-0.282 0.312 0.031 0.015 0.063 0.042 0.091 0.089 0.018 0.030-0.062 0.035-0.096 0.044-0.109 0.029-0.222 0.050-0.337 0.066-0.002 0.025-0.008 0.052-0.016 0.081 0.007 0.018 0.015 0.037 0.023 0.054-0.016 0.006-0.031 0.011-0.047 0.017-0.002 0.005-0.004 0.010-0.006 0.016-0.009 0.023-0.024 0.041-0.041 0.058 0.014 0.010 0.029 0.020 0.044 0.032 0.019 0.014 0.037 0.030 0.049 0.050 0.019 0.033 0.034 0.069 0.049 0.105 0.128 0.003 0.255 0.006 0.383 0.007 0.047-0.014 0.095-0.031 0.138-0.033 0.273-0.454 0.522-0.924 0.754-1.405zM28.967 24.012c0.001 0.002 0.003 0.003 0.004 0.005 0.001-0.001-0.001-0.003-0.004-0.005zM29.361 24.083c-0.012 0.009-0.022 0.016-0.028 0.020 0.009-0.005 0.023-0.009 0.040-0.014-0.004-0.002-0.008-0.004-0.012-0.006zM29.371 25.235c-0.175 0.022-0.244 0.036-0.418 0.051l0.335 0.072c0.028-0.041 0.055-0.082 0.083-0.123zM19.134 30.204l1.221 1.57c0.775-0.218 1.525-0.491 2.248-0.817l-0.019-0.516c-0.166 0.004-0.336 0.006-0.512 0.006-1.194 0-2.159-0.096-2.938-0.244z"></path>
<path fill="#219db0" d="M21.501 10.538c-5.868 0-10.624 4.841-10.624 10.811s4.757 10.811 10.624 10.811c5.868 0 10.624-4.84 10.624-10.811s-4.757-10.811-10.624-10.811zM20.355 14.006c3.058 0.001 5.536 2.644 5.537 5.908-0.001 1.119-0.298 2.162-0.805 3.054l3.764 4.015-1.867 1.993-3.765-4.015c-0.836 0.541-1.814 0.858-2.864 0.858-3.059 0-5.538-2.643-5.538-5.905 0-3.263 2.479-5.906 5.538-5.907zM20.355 16.259c-1.892 0.005-3.422 1.636-3.425 3.654 0.003 2.017 1.533 3.648 3.425 3.653 1.89-0.005 3.421-1.636 3.425-3.653-0.003-2.018-1.534-3.65-3.425-3.654z"></path>
</svg>
