<!-- Generated by IcoMoon.io -->
<svg version="1.1" xmlns="http://www.w3.org/2000/svg" width="32" height="32" viewBox="0 0 32 32">
<title>protocollazione_entrata</title>
<path fill="#454545" d="M1.858 29.918h28.262v2.14h-28.262v-2.14z"></path>
<path fill="#464545" d="M28.921 23.533h-25.87c-1.414 0-2.556 1.021-2.556 2.29v2.669h31.011v-2.669c0-1.269-1.164-2.29-2.584-2.29z"></path>
<path fill="#464545" d="M13.665 13.822h4.563v14.25h-4.563v-14.25z"></path>
<path fill="#2ab22a" d="M15.163 18.757c-2.377-0.361-4.006-1.162-5.577-2.742-1.388-1.396-2.175-2.848-2.595-4.793-0.197-0.912-0.197-2.82 0-3.732 0.42-1.944 1.207-3.396 2.595-4.793 1.404-1.412 2.937-2.237 4.901-2.637 0.839-0.171 2.731-0.156 3.575 0.029 1.937 0.422 3.38 1.211 4.77 2.608 1.405 1.413 2.228 2.957 2.623 4.928 0.157 0.782 0.157 2.68 0 3.462-0.394 1.966-1.223 3.522-2.623 4.925-1.105 1.107-2.162 1.786-3.504 2.253-1.056 0.367-1.687 0.475-2.904 0.499-0.593 0.011-1.161 0.008-1.262-0.007v0zM19.997 13.133v-0.526h-5.973v-3.404h5.542v-1.053h-5.542v-2.785h5.788v-1.053h-7.389v9.347h7.574v-0.526z"></path>
</svg>
