<!-- Generated by IcoMoon.io -->
<svg version="1.1" xmlns="http://www.w3.org/2000/svg" width="32" height="32" viewBox="0 0 32 32">
<title>protocollazione_interna</title>
<path fill="#464545" d="M1.858 29.889h28.262v2.14h-28.262v-2.14z"></path>
<path fill="#464545" d="M28.921 23.504h-25.87c-1.414 0-2.556 1.021-2.556 2.29v2.669h31.011v-2.669c0-1.269-1.164-2.29-2.584-2.29h-0z"></path>
<path fill="#464545" d="M13.665 16.625h4.563v11.418h-4.563z"></path>
<path fill="#f2641d" d="M16 0.066c-5.163 0-9.348 4.19-9.348 9.359v0c0 0 0 0 0 0 0 5.169 4.185 9.359 9.348 9.359v0c5.163 0 9.348-4.19 9.348-9.359 0 0 0 0 0-0v0c0-5.169-4.185-9.359-9.348-9.359v0zM14.97 3.095h1.901v12.985h-1.901z"></path>
</svg>
