<!-- Generated by IcoMoon.io -->
<svg version="1.1" xmlns="http://www.w3.org/2000/svg" width="32" height="32" viewBox="0 0 32 32">
<title>protocollazione_I</title>
<path fill="#464545" d="M1.858 29.918h28.262v2.14h-28.262v-2.14z"></path>
<path fill="#464545" d="M28.921 23.533h-25.87c-1.414 0-2.556 1.021-2.556 2.29v2.669h31.011v-2.669c0-1.269-1.164-2.29-2.584-2.29h-0z"></path>
<path fill="#464545" d="M13.665 16.398h4.563v11.674h-4.563z"></path>
<path fill="#a50303" d="M19.143 9.375c0 1.707-1.385 3.099-3.083 3.099s-3.083-1.392-3.083-3.099 1.385-3.099 3.083-3.099 3.083 1.392 3.083 3.099zM16.059 2.789c-3.613 0-6.552 2.954-6.552 6.586s2.939 6.586 6.552 6.586 6.552-2.954 6.552-6.586-2.939-6.586-6.552-6.586v0zM25.309 9.375c0 5.133-4.143 9.298-9.25 9.298s-9.25-4.165-9.25-9.298 4.143-9.298 9.25-9.298v0c5.107 0 9.25 4.165 9.25 9.298v0z"></path>
</svg>
