<!-- Generated by IcoMoon.io -->
<svg version="1.1" xmlns="http://www.w3.org/2000/svg" width="32" height="32" viewBox="0 0 32 32">
<title>protocollazione_uscita</title>
<path fill="#464545" d="M1.858 29.842h28.262v2.14h-28.262v-2.14z"></path>
<path fill="#454545" d="M28.921 23.456h-25.87c-1.414 0-2.556 1.021-2.556 2.29v2.669h31.011v-2.669c0-1.269-1.164-2.29-2.584-2.29h-0z"></path>
<path fill="#464545" d="M13.665 16.018h4.563v11.977h-4.563v-11.977z"></path>
<path fill="#464545" d="M13.242 11.691c0 0 0 0 0 0s0 0 0 0 0 0 0 0 0 0 0 0z"></path>
<path fill="#219db0" d="M14.871 19.288c-2.444-0.37-4.118-1.19-5.733-2.808-1.427-1.43-2.235-2.917-2.668-4.908-0.203-0.935-0.203-2.888 0-3.822 0.432-1.991 1.24-3.478 2.668-4.908 1.444-1.446 3.020-2.291 5.039-2.7 0.862-0.175 2.808-0.159 3.676 0.029 1.992 0.432 3.475 1.24 4.904 2.671 1.445 1.447 2.29 3.029 2.696 5.047 0.161 0.8 0.161 2.745 0 3.545-0.405 2.013-1.257 3.607-2.696 5.044-1.136 1.134-2.222 1.829-3.602 2.307-1.086 0.376-1.734 0.487-2.985 0.511-0.609 0.012-1.193 0.009-1.298-0.007v-0zM17.22 14.509c1.851-0.232 2.937-1.018 3.418-2.472 0.105-0.316 0.117-0.667 0.137-3.788l0.022-3.439h-1.653l-0.001 3.185c-0.001 3.48-0.024 3.751-0.36 4.371-0.237 0.437-0.68 0.776-1.243 0.954-0.383 0.121-0.596 0.143-1.371 0.143s-0.988-0.022-1.373-0.143c-0.741-0.233-1.127-0.594-1.426-1.336-0.144-0.356-0.145-0.384-0.164-3.766l-0.019-3.407h-1.64l0.001 3.249c0.001 2.608 0.019 3.335 0.094 3.687 0.323 1.526 1.417 2.453 3.226 2.735 0.637 0.099 1.684 0.111 2.351 0.028v0h0z"></path>
</svg>
