<!-- Generated by IcoMoon.io -->
<svg version="1.1" xmlns="http://www.w3.org/2000/svg" width="32" height="32" viewBox="0 0 32 32">
<title>protocollazione_U</title>
<path fill="#454545" d="M3.063 29.864h25.855v2.136h-25.855v-2.136z"></path>
<path fill="#454545" d="M27.82 23.491h-23.667c-1.293 0-2.338 1.019-2.338 2.286v2.665h28.369v-2.665c0-1.267-1.064-2.286-2.364-2.286z"></path>
<path fill="#454545" d="M13.192 10.638v11.402h5.59v-11.402c1.802-0.966 3.024-2.821 3.024-4.976 0-3.122-2.593-5.662-5.819-5.662s-5.819 2.54-5.819 5.662c0.007 2.162 1.221 4.016 3.024 4.976z"></path>
<path fill="#219db0" d="M22.202 11.888l10.007 9.96-9.926 10.040-0.020-5-10.014 0.040-0.040-10 10.014-0.040-0.020-5z"></path>
</svg>
