<!-- Generated by IcoMoon.io -->
<svg version="1.1" xmlns="http://www.w3.org/2000/svg" width="32" height="32" viewBox="0 0 32 32">
<title>pubblicazione_albo_ricerca_pubblicazioni</title>
<path fill="#464545" d="M15.152 0.74c-7.92 0-14.34 6.544-14.34 14.615s6.42 14.615 14.34 14.615c1.372 0 2.695-0.208 3.951-0.574-1.998-0.422-3.699-1.579-4.894-3.197l-0.013-0.018v1.699c-0.436-0.13-0.869-0.347-1.293-0.652-0.794-0.571-1.554-1.449-2.197-2.541-0.445-0.755-0.829-1.596-1.15-2.512h2.98c-0.082-0.47-0.13-1.012-0.131-1.565v-0.001c0.004-0.147 0.010-0.28 0.019-0.412l-0.002 0.029h-3.428c-0.287-1.247-0.46-2.552-0.516-3.896h4.932c0.662-1.301 1.572-2.372 2.667-3.165l0.030-0.021v-2.66h5.199c0.092 0.401 0.152 0.818 0.221 1.23 0.752 0.093 1.437 0.282 2.083 0.556l-0.056-0.021c-0.077-0.602-0.17-1.194-0.289-1.766h3.361c0.51 1.245 0.816 2.553 0.916 3.898h-0.986c1.253 1.406 2.085 3.261 2.275 5.322l0.003 0.037c0.427-1.385 0.658-2.858 0.658-4.387 0-8.071-6.422-14.615-14.342-14.615zM14.197 2.83v5.705h-4.641c0.321-0.916 0.706-1.757 1.15-2.512 0.643-1.092 1.403-1.97 2.197-2.541 0.424-0.305 0.857-0.522 1.293-0.652zM16.109 2.832c0.436 0.13 0.867 0.345 1.291 0.65 0.794 0.571 1.554 1.451 2.197 2.543 0.445 0.755 0.829 1.596 1.15 2.512l-4.639-0.002v-5.703zM9.791 3.926c-0.925 1.252-1.692 2.82-2.25 4.609h-2.865c0.482-0.768 1.046-1.481 1.688-2.135h0.002c1.006-1.025 2.156-1.855 3.426-2.475zM20.512 3.926c1.271 0.62 2.423 1.45 3.428 2.475 0.642 0.654 1.206 1.367 1.688 2.135h-2.863c-0.556-1.789-1.327-3.357-2.252-4.609zM3.678 10.484h3.361c-0.256 1.232-0.419 2.538-0.471 3.896h-3.809c0.099-1.346 0.408-2.651 0.918-3.896zM8.996 10.484h5.201v3.896h-5.717c0.056-1.345 0.229-2.649 0.516-3.896zM2.76 16.33h3.809c0.053 1.358 0.215 2.667 0.471 3.898h-3.361c-0.51-1.245-0.817-2.553-0.918-3.898zM4.678 22.176h2.863c0.557 1.789 1.327 3.359 2.252 4.611-1.271-0.62-2.423-1.45-3.428-2.475-0.641-0.654-1.205-1.369-1.688-2.137z"></path>
<path fill="#219db0" d="M21.45 10.39c-5.868 0-10.624 4.841-10.624 10.811s4.757 10.811 10.624 10.811c5.868 0 10.624-4.84 10.624-10.811s-4.757-10.811-10.624-10.811zM20.304 13.858c3.058 0.001 5.536 2.644 5.537 5.908-0.001 1.119-0.298 2.162-0.805 3.054l3.764 4.015-1.867 1.993-3.765-4.015c-0.836 0.541-1.814 0.858-2.864 0.858-3.059 0-5.538-2.643-5.538-5.905s2.479-5.906 5.538-5.907zM20.303 16.112c-1.892 0.005-3.422 1.636-3.425 3.654 0.003 2.017 1.533 3.648 3.425 3.653 1.89-0.005 3.421-1.636 3.425-3.653-0.003-2.018-1.534-3.65-3.425-3.654z"></path>
</svg>
