<!-- Generated by IcoMoon.io -->
<svg version="1.1" xmlns="http://www.w3.org/2000/svg" width="32" height="32" viewBox="0 0 32 32">
<title>pubblicazione_albo_consultazione_richieste</title>
<path fill="#464545" d="M16 1.385c-7.92 0-14.341 6.544-14.341 14.615s6.421 14.615 14.341 14.615c7.92 0 14.341-6.544 14.341-14.615s-6.421-14.615-14.341-14.615zM24.114 20.872c0.256-1.232 0.418-2.539 0.47-3.897h3.808c-0.099 1.346-0.407 2.652-0.917 3.897h-3.361zM7.886 11.128c-0.256 1.232-0.418 2.539-0.47 3.897h-3.808c0.099-1.346 0.407-2.652 0.917-3.897h3.361zM22.156 11.128c0.287 1.247 0.46 2.553 0.516 3.897h-5.716v-3.897h5.2zM16.956 9.18v-5.704c0.436 0.13 0.868 0.346 1.292 0.651 0.794 0.571 1.554 1.45 2.197 2.542 0.445 0.755 0.829 1.596 1.15 2.512h-4.639zM11.555 6.668c0.643-1.092 1.403-1.971 2.197-2.542 0.424-0.305 0.856-0.521 1.292-0.651v5.704h-4.639c0.321-0.916 0.706-1.757 1.15-2.512zM15.044 11.128v3.897h-5.716c0.056-1.345 0.229-2.65 0.516-3.897h5.2zM4.525 20.872c-0.51-1.245-0.816-2.552-0.917-3.897h3.808c0.053 1.358 0.214 2.666 0.47 3.897zM9.328 16.974h5.716v3.897h-5.2c-0.287-1.247-0.46-2.553-0.516-3.897zM15.044 22.82v5.704c-0.436-0.13-0.868-0.346-1.292-0.651-0.794-0.571-1.554-1.45-2.197-2.542-0.445-0.755-0.829-1.596-1.15-2.512h4.639zM20.445 25.332c-0.643 1.092-1.403 1.971-2.197 2.542-0.424 0.304-0.856 0.521-1.292 0.651v-5.704h4.639c-0.321 0.916-0.706 1.756-1.15 2.512zM16.956 20.872v-3.897h5.716c-0.056 1.345-0.229 2.65-0.516 3.897zM24.585 15.026c-0.053-1.358-0.214-2.666-0.47-3.897h3.361c0.51 1.245 0.817 2.552 0.917 3.897h-3.808zM26.476 9.18h-2.865c-0.556-1.789-1.326-3.359-2.251-4.611 1.271 0.62 2.422 1.45 3.427 2.475 0.642 0.654 1.206 1.368 1.688 2.136zM7.212 7.044c1.006-1.025 2.157-1.855 3.427-2.475-0.925 1.252-1.693 2.822-2.251 4.611h-2.865c0.482-0.768 1.046-1.482 1.688-2.136zM5.524 22.82h2.865c0.557 1.789 1.326 3.359 2.251 4.611-1.271-0.62-2.422-1.45-3.427-2.475-0.641-0.654-1.206-1.368-1.688-2.136zM24.788 24.956c-1.006 1.025-2.157 1.855-3.427 2.475 0.924-1.252 1.693-2.822 2.251-4.611h2.865c-0.482 0.768-1.046 1.482-1.688 2.136z"></path>
</svg>
