<!-- Generated by IcoMoon.io -->
<svg version="1.1" xmlns="http://www.w3.org/2000/svg" width="32" height="32" viewBox="0 0 32 32">
<title>pubblicazione_albo_nuova_richiesta</title>
<path fill="#464545" d="M14.341 0c-7.92 0-14.341 6.544-14.341 14.615s6.421 14.615 14.341 14.615c0.832 0 1.646-0.073 2.439-0.212-2.075-1.6-3.389-4-3.395-6.686v-0.001c0.002-1.989 0.72-3.821 1.928-5.284l-0.016 0.020v-1.479h1.526c1.582-1.208 3.624-1.943 5.85-1.949h0.001c0.005 0 0.010 0 0.016 0 2.272 0 4.354 0.759 5.97 2.021l-0.015-0.011c0.023-0.342 0.036-0.687 0.036-1.035 0-8.071-6.421-14.615-14.341-14.615zM13.385 2.090v5.704h-4.639c0.321-0.916 0.706-1.757 1.15-2.512v0.001c0.643-1.092 1.403-1.971 2.197-2.542 0.424-0.305 0.856-0.521 1.292-0.651zM15.297 2.091c0.436 0.13 0.868 0.346 1.292 0.651 0.794 0.571 1.554 1.45 2.197 2.542 0.445 0.755 0.829 1.596 1.15 2.512l-4.639-0.001v-5.704zM8.98 3.184c-0.925 1.252-1.693 2.822-2.251 4.611h-2.865c0.482-0.768 1.046-1.482 1.688-2.136h0c1.006-1.025 2.157-1.855 3.427-2.475zM19.701 3.184c1.271 0.62 2.422 1.45 3.427 2.475 0.642 0.654 1.206 1.368 1.688 2.136h-2.865c-0.556-1.789-1.326-3.359-2.25-4.611zM2.865 9.743h3.361c-0.256 1.232-0.418 2.539-0.47 3.897h-3.808c0.099-1.346 0.407-2.652 0.917-3.897zM8.185 9.743h5.2v3.897h-5.716c0.056-1.345 0.229-2.65 0.516-3.897zM15.297 9.743h5.2c0.287 1.247 0.46 2.553 0.516 3.897h-5.716v-3.897zM22.456 9.743h3.361c0.51 1.245 0.817 2.552 0.917 3.897h-3.808c-0.053-1.358-0.214-2.666-0.47-3.897zM1.948 15.589h3.808c0.053 1.358 0.214 2.666 0.47 3.897h-3.362c-0.51-1.245-0.816-2.552-0.917-3.897zM7.668 15.589h5.716v3.897h-5.2c-0.287-1.247-0.46-2.553-0.516-3.897zM8.746 21.434l4.639 0.001v5.704c-0.436-0.13-0.868-0.346-1.291-0.651-0.794-0.571-1.554-1.45-2.197-2.542-0.445-0.755-0.829-1.596-1.15-2.512zM3.864 21.435h2.865c0.557 1.789 1.326 3.359 2.251 4.611-1.271-0.62-2.422-1.45-3.428-2.475-0.641-0.654-1.206-1.368-1.688-2.136z"></path>
<path fill="#2ab22a" d="M20.985 10.586c-2.929-0.009-5.823 1.167-7.899 3.494-1.996 2.238-2.85 5.106-2.609 7.915 0.231 2.685 1.464 5.311 3.658 7.269 4.487 4.006 11.291 3.702 15.199-0.678 1.91-2.142 2.774-4.861 2.634-7.546v-0.004c-0.146-2.811-1.39-5.587-3.683-7.634h-0c-2.103-1.878-4.715-2.808-7.3-2.816zM19.372 14.306h3.995v4.931h5.432v3.98h-5.432v5.454h-3.995v-5.454h-4.106l-0.602 0.025-0.005-0.025h-0.563v-3.98h5.276v-4.93z"></path>
</svg>
