<!-- Generated by IcoMoon.io -->
<svg version="1.1" xmlns="http://www.w3.org/2000/svg" width="32" height="32" viewBox="0 0 32 32">
<title>pubblicazione_albo</title>
<path fill="#464545" d="M16 0c-8.836 0-16 7.164-16 16s7.164 16 16 16c8.836 0 16-7.164 16-16s-7.164-16-16-16zM25.053 21.333c0.286-1.348 0.466-2.78 0.525-4.267h4.248c-0.111 1.473-0.454 2.904-1.023 4.267h-3.75zM6.947 10.667c-0.286 1.348-0.466 2.78-0.525 4.267h-4.249c0.111-1.473 0.454-2.904 1.023-4.267h3.75zM22.868 10.667c0.32 1.365 0.513 2.795 0.576 4.267h-6.378v-4.267h5.802zM17.067 8.533v-6.244c0.486 0.142 0.969 0.379 1.441 0.713 0.886 0.625 1.733 1.587 2.451 2.783 0.496 0.827 0.925 1.747 1.283 2.75h-5.175zM11.041 5.783c0.718-1.196 1.565-2.158 2.451-2.783 0.473-0.334 0.955-0.571 1.441-0.713v6.244h-5.175c0.358-1.003 0.787-1.923 1.283-2.75zM14.933 10.667v4.267h-6.378c0.063-1.472 0.256-2.901 0.576-4.267h5.802zM3.197 21.333c-0.569-1.363-0.911-2.794-1.023-4.267h4.249c0.059 1.487 0.239 2.918 0.525 4.267h-3.75zM8.556 17.067h6.378v4.267h-5.802c-0.32-1.365-0.513-2.795-0.576-4.267zM14.933 23.467v6.244c-0.486-0.142-0.969-0.379-1.441-0.713-0.886-0.625-1.733-1.587-2.451-2.783-0.496-0.827-0.925-1.747-1.283-2.75h5.175zM20.959 26.216c-0.718 1.196-1.565 2.158-2.451 2.783-0.473 0.333-0.955 0.571-1.441 0.713v-6.244h5.175c-0.358 1.003-0.787 1.922-1.283 2.75zM17.067 21.333v-4.267h6.378c-0.063 1.472-0.256 2.901-0.576 4.267h-5.802zM25.579 14.933c-0.059-1.487-0.239-2.918-0.525-4.267h3.75c0.569 1.363 0.912 2.794 1.023 4.267h-4.248zM27.689 8.533h-3.197c-0.621-1.958-1.479-3.677-2.511-5.048 1.418 0.678 2.702 1.587 3.824 2.709 0.716 0.716 1.345 1.498 1.884 2.338zM6.195 6.195c1.122-1.122 2.406-2.031 3.824-2.709-1.031 1.371-1.889 3.089-2.511 5.048h-3.197c0.538-0.841 1.167-1.622 1.884-2.338zM4.311 23.467h3.197c0.622 1.958 1.479 3.677 2.511 5.047-1.418-0.678-2.702-1.587-3.824-2.709-0.716-0.716-1.345-1.498-1.884-2.338zM25.805 25.805c-1.122 1.122-2.406 2.031-3.824 2.709 1.031-1.371 1.889-3.089 2.511-5.047h3.197c-0.538 0.841-1.167 1.622-1.884 2.338z"></path>
</svg>
