<!-- Generated by IcoMoon.io -->
<svg version="1.1" xmlns="http://www.w3.org/2000/svg" width="32" height="32" viewBox="0 0 32 32">
<title>punti_vendita</title>
<path fill="#464545" d="M31.125 27.999h-1.187v-12.473c1.212-0.63 2.010-1.862 2.047-3.22 0.003-0.031 0.015-0.063 0.015-0.094 0-0.125-0.020-0.244-0.066-0.352l-1.074-3.226c-0.124-0.371-0.469-0.633-0.859-0.633h-9.153v-1.939h4.361c0.502 0 0.851-0.452 0.851-0.954v-4.194c0-0.502-0.349-0.912-0.851-0.912h-18.338c-0.502 0-0.932 0.41-0.932 0.912v4.194c0 0.502 0.429 0.954 0.932 0.954h4.159v1.939h-8.951c-0.391 0-0.738 0.263-0.862 0.633l-1.098 3.283c-0.001 0.002-0.001 0.007-0.001 0.009-0.021 0.064-0.035 0.132-0.041 0.201-0.001 0.011-0.001 0.022-0.002 0.032-0.001 0.017-0.003 0.035-0.003 0.052 0 0.008 0.001 0.016 0.001 0.024 0 0.004-0.020 0.008-0.020 0.011 0.014 1.381 0.918 2.64 2.009 3.28v12.473h-1.106c-0.502 0-0.954 0.408-0.954 0.91v2.177c0 0.502 0.452 0.912 0.954 0.912h30.171c0.502 0 0.873-0.41 0.873-0.912v-2.177c0-0.502-0.371-0.91-0.873-0.91zM19.029 6.061v1.939h-6.181v-1.939h6.181zM17.793 9.819l0.209 1.454h-3.926l0.21-1.454h3.507zM17.892 13.091c-0.358 0.606-1.043 1.091-1.657 1.091h-0.391c-0.615 0-1.299-0.485-1.657-1.091h3.706zM23.574 9.819l0.349 1.454h-4.084l-0.209-1.454h3.944zM23.916 13.091c-0.358 0.606-1.043 1.091-1.657 1.091h-0.391c-0.614 0-1.299-0.485-1.657-1.091h3.705zM12.449 9.819l-0.21 1.454h-4.084l0.349-1.454h3.944zM11.868 13.091c-0.358 0.606-1.043 1.091-1.657 1.091h-0.391c-0.615 0-1.299-0.485-1.657-1.091h3.705zM2.139 13.091h3.705c-0.358 0.606-1.043 1.091-1.657 1.091h-0.391c-0.615 0-1.299-0.485-1.657-1.091zM26.234 13.091h3.705c-0.358 0.606-1.043 1.091-1.657 1.091h-0.391c-0.614 0-1.299-0.485-1.657-1.091zM29.346 9.819l0.489 1.454h-4.043l-0.349-1.454h3.903zM7.757 1.819h16.484v2.424h-16.484v-2.424zM2.732 9.819h3.904l-0.349 1.454h-4.043l0.489-1.454zM14.060 27.999h-8.121v-11.090c0-0.502 0.447-0.909 0.949-0.909h6.303c0.502 0 0.869 0.407 0.869 0.909v11.090zM26.423 22.242c0 0.502-0.329 0.909-0.831 0.909h-7.252c-0.502 0-1.007-0.407-1.007-0.909v-5.318c0-0.502 0.451-0.909 0.953-0.909l7.287-0c0.241 0 0.448 0.096 0.618 0.266s0.232 0.402 0.232 0.643v5.319z"></path>
</svg>
