<!-- Generated by IcoMoon.io -->
<svg version="1.1" xmlns="http://www.w3.org/2000/svg" width="32" height="32" viewBox="0 0 32 32">
<title>registri_numerazione</title>
<path fill="#464545" d="M17.911 28.012c-0.241 0.34-0.593 0.587-0.995 0.698l-1.998 0.546c-0.157 0.044-0.319 0.067-0.482 0.067-0.368 0-0.724-0.112-1.024-0.324-0.44-0.306-0.717-0.79-0.76-1.313l-0.175-2.063c-0.042-0.423 0.072-0.847 0.313-1.188l0.074-0.106h-7.126c-0.575 0-1.041-0.474-1.041-1.048 0-0.576 0.466-1.050 1.041-1.050h8.626l1.928-2.753h-10.554c-0.575 0-1.041-0.474-1.041-1.049s0.466-1.049 1.041-1.049l12.038-0.031 4.514-6.473v-4.793c0-0.788-0.609-1.424-1.395-1.424h-3.456v2.735c0 1.291-1.055 2.312-2.344 2.312h-6.95c-1.292 0-2.311-1.022-2.311-2.312v-2.735h-3.493c-0.787 0-1.424 0.637-1.424 1.424v24.456c0 0.788 0.637 1.459 1.424 1.459h18.553c0.788 0 1.396-0.672 1.396-1.459v-8.745l-4.377 6.216zM5.737 12.528h11.761c0.574 0 1.040 0.473 1.040 1.048s-0.467 1.049-1.040 1.049h-11.761c-0.575 0-1.041-0.474-1.041-1.049s0.466-1.048 1.041-1.048z"></path>
<path fill="#464545" d="M8.163 8.332h6.944c0.526 0 0.953-0.427 0.953-0.954v-3.994c0-0.527-0.428-0.954-0.953-0.954h-1.046c-0.007-1.343-1.098-2.431-2.444-2.431s-2.436 1.088-2.444 2.431h-1.010c-0.527 0-0.953 0.427-0.953 0.954v3.993c0 0.527 0.426 0.955 0.953 0.955zM11.618 1.354c0.598 0 1.083 0.481 1.089 1.078h-2.18c0.007-0.597 0.493-1.078 1.091-1.078z"></path>
<path fill="#464545" d="M31.073 6.429c-0.032-0.178-0.133-0.333-0.281-0.436l-1.739-1.212c-0.117-0.082-0.253-0.122-0.386-0.122-0.212 0-0.423 0.1-0.553 0.289l-12.316 17.661 2.845 1.984 12.317-17.66c0.102-0.147 0.142-0.328 0.112-0.504z"></path>
<path fill="#464545" d="M13.86 25.492l0.178 2.074c0.009 0.12 0.072 0.226 0.169 0.295 0.069 0.047 0.15 0.074 0.23 0.074 0.035 0 0.071-0.005 0.105-0.015l2.009-0.55c0.091-0.025 0.17-0.081 0.224-0.158l0.754-1.081-2.847-1.985-0.754 1.081c-0.053 0.077-0.078 0.17-0.068 0.264z"></path>
</svg>
