<!-- Generated by IcoMoon.io -->
<svg version="1.1" xmlns="http://www.w3.org/2000/svg" width="32" height="32" viewBox="0 0 32 32">
<title>registro_fatture</title>
<path fill="#464545" d="M7.013 20.777v4.212c0 0.465 0.377 0.842 0.842 0.842h5.615c0.465 0 0.842-0.377 0.842-0.842v-4.212h-7.3z"></path>
<path fill="#464545" d="M13.55 0h-5.615c-0.465 0-0.842 0.377-0.842 0.842v18.25h7.3v-18.25c0-0.465-0.377-0.842-0.842-0.842zM11.584 16.566c0 0.465-0.377 0.842-0.842 0.842s-0.842-0.377-0.842-0.842v-5.616c0-0.465 0.377-0.842 0.842-0.842s0.842 0.377 0.842 0.842v5.616zM11.584 8.423h-1.685c-0.465 0-0.842-0.377-0.842-0.842s0.377-0.842 0.842-0.842h1.685c0.465 0 0.842 0.377 0.842 0.842s-0.377 0.842-0.842 0.842zM11.584 5.054h-1.685c-0.465 0-0.842-0.377-0.842-0.842s0.377-0.842 0.842-0.842h1.685c0.465 0 0.842 0.377 0.842 0.842s-0.377 0.842-0.842 0.842z"></path>
<path fill="#464545" d="M18.277 20.777v4.212c0 0.465 0.377 0.842 0.842 0.842h5.615c0.465 0 0.842-0.377 0.842-0.842v-4.212h-7.3z"></path>
<path fill="#464545" d="M24.734 0.079h-5.615c-0.465 0-0.842 0.377-0.842 0.842v18.25h7.3v-18.25c0-0.465-0.377-0.842-0.842-0.842zM22.769 16.645c0 0.465-0.377 0.842-0.842 0.842s-0.842-0.377-0.842-0.842v-5.616c0-0.465 0.377-0.842 0.842-0.842s0.842 0.377 0.842 0.842v5.616zM22.769 8.502h-1.685c-0.465 0-0.842-0.377-0.842-0.842s0.377-0.842 0.842-0.842h1.685c0.465 0 0.842 0.377 0.842 0.842s-0.377 0.842-0.842 0.842zM22.769 5.133h-1.685c-0.465 0-0.842-0.377-0.842-0.842s0.377-0.842 0.842-0.842h1.685c0.465 0 0.842 0.377 0.842 0.842s-0.377 0.842-0.842 0.842z"></path>
<path fill="#464545" d="M26.269 26.915h-20.539v-2.124h-5.65v7.209h31.838v-7.209h-5.65z"></path>
</svg>
