<!-- Generated by IcoMoon.io -->
<svg version="1.1" xmlns="http://www.w3.org/2000/svg" width="32" height="32" viewBox="0 0 32 32">
<title>regoleCampionamento</title>
<path fill="#464545" d="M14.848 7.856h-7.835c-1.137 1.257-1.822 2.827-1.972 4.523h6.778c0.574 0 1.040 0.472 1.040 1.047s-0.466 1.047-1.040 1.047h-6.691c0.128 0.73 0.357 1.434 0.679 2.094h6.012c0.574 0 1.040 0.472 1.040 1.047s-0.466 1.047-1.040 1.047h-4.525c0.013 0.013 0.026 0.027 0.038 0.041 1.499 1.499 3.478 2.324 5.597 2.324 1.454 0 2.876-0.389 4.049-1.116v-9.928c0-1.194-0.938-2.126-2.132-2.126z"></path>
<path fill="#464545" d="M31.125 26.6l-6.995-6.995c1.102-1.927 1.689-4.115 1.689-6.395 0-3.449-1.342-6.691-3.781-9.129-2.437-2.438-5.679-3.781-9.128-3.781s-6.691 1.343-9.129 3.782c-2.438 2.437-3.781 5.679-3.781 9.128s1.343 6.69 3.781 9.128c2.438 2.439 5.68 3.781 9.129 3.781 2.578 0 5.040-0.75 7.137-2.147l6.852 6.853c0.584 0.583 1.348 0.875 2.113 0.875 0.764 0 1.529-0.292 2.113-0.875 1.166-1.166 1.166-3.058 0-4.225zM19.997 20.297c-1.893 1.893-4.41 2.935-7.087 2.935s-5.194-1.042-7.086-2.935c-1.893-1.893-2.935-4.409-2.935-7.086s1.041-5.194 2.934-7.087c1.893-1.893 4.41-2.935 7.086-2.935 2.678 0 5.194 1.042 7.087 2.935 3.908 3.908 3.908 10.266 0.001 14.173z"></path>
</svg>
