<!-- Generated by IcoMoon.io -->
<svg version="1.1" xmlns="http://www.w3.org/2000/svg" width="32" height="32" viewBox="0 0 32 32">
<title>repertorio</title>
<path fill="#464545" d="M0.533 14.423l10.699-0.007 0.005 0.027 9.566-0.004 0.007-0.033 10.657-0.006v-6.933l-9.803 0.006c-0.708 2.493-3.015 4.26-5.644 4.26-2.621 0-4.926-1.77-5.641-4.267l-9.826 0.006-0.020 6.95z"></path>
<path fill="#464545" d="M16.020 27.2c2.051 0 3.859-1.317 4.525-3.207l-9.048 0.003c0.667 1.889 2.475 3.204 4.523 3.204z"></path>
<path fill="#464545" d="M0.533 15.514v7.419l30.933-0.012v-7.419l-9.814 0.004c-0.719 2.475-3.016 4.227-5.633 4.227-2.613 0-4.91-1.75-5.631-4.223l-9.855 0.004z"></path>
<path fill="#464545" d="M31.142 6.4l-6.933-6.4h-16.417l-6.94 6.406 1.574-0.001 5.783-5.339h15.583l5.779 5.334z"></path>
<path fill="#464545" d="M0.533 24v8l30.933-0.012v-7.988l-9.803 0.006c-0.708 2.493-3.015 4.26-5.644 4.26-2.622 0-4.928-1.763-5.64-4.249l-9.846 0.006z"></path>
<path fill="#464545" d="M16.020 18.667c2.034 0 3.829-1.295 4.508-3.16l-9.015 0.003c0.681 1.863 2.476 3.157 4.507 3.157z"></path>
</svg>
