<!-- Generated by IcoMoon.io -->
<svg version="1.1" xmlns="http://www.w3.org/2000/svg" width="32" height="32" viewBox="0 0 32 32">
<title>repertorio_interno</title>
<path fill="#464545" d="M0.171 11.918l8.642-0.006 0.004 0.022 7.727-0.003 0.006-0.027 8.608-0.005v-5.729l-7.918 0.005c-0.572 2.060-2.436 3.52-4.559 3.52-2.117 0-3.979-1.462-4.556-3.526l-7.937 0.005-0.016 5.743z"></path>
<path fill="#464545" d="M12.68 22.475c1.656 0 3.117-1.088 3.655-2.65l-7.308 0.003c0.539 1.561 1.999 2.648 3.654 2.648z"></path>
<path fill="#464545" d="M8.132 12.816l-7.961 0.003v6.13l12.243-0.005c0.229-1.022 0.59-1.926 1.073-2.753l-0.025 0.047c-0.255 0.044-0.516 0.067-0.781 0.067-2.11 0-3.966-1.446-4.549-3.489z"></path>
<path fill="#464545" d="M24.895 5.288l-5.6-5.288h-13.261l-5.606 5.294 1.271-0.001 4.672-4.411h12.587l4.668 4.408z"></path>
<path fill="#464545" d="M0.171 19.831v6.61l13.423-0.006c-0.552-0.888-0.972-1.923-1.201-3.027l-0.011-0.062c-1.993-0.129-3.71-1.544-4.258-3.501l-7.953 0.005-0-0.019z"></path>
<path fill="#464545" d="M12.68 15.424c1.643 0 3.093-1.070 3.642-2.611l-7.282 0.003c0.55 1.539 2 2.608 3.64 2.608z"></path>
<path fill="#f2641d" d="M21.096 10.474c-5.928 0-10.733 4.819-10.733 10.763v0c0 0 0 0 0 0 0 5.944 4.805 10.763 10.733 10.763v0c5.928 0 10.733-4.819 10.733-10.763 0 0 0-0 0-0v0c-0-5.944-4.805-10.763-10.733-10.763zM19.913 13.957h2.183v14.934h-2.183z"></path>
</svg>
