<!-- Generated by IcoMoon.io -->
<svg version="1.1" xmlns="http://www.w3.org/2000/svg" width="32" height="32" viewBox="0 0 32 32">
<title>repertorio_uscita</title>
<path fill="#464545" d="M0.182 11.919l8.642-0.006 0.004 0.022 7.727-0.003 0.006-0.027 8.608-0.005v-5.729l-7.919 0.005c-0.572 2.060-2.436 3.521-4.559 3.521-2.117 0-3.979-1.462-4.556-3.526l-7.937 0.005-0.016 5.744z"></path>
<path fill="#464545" d="M12.693 22.477c1.656 0 3.117-1.088 3.655-2.651l-7.309 0.003c0.539 1.561 1.999 2.648 3.654 2.648z"></path>
<path fill="#464545" d="M8.144 12.817l-7.961 0.003v6.131l12.244-0.005c0.229-1.022 0.59-1.926 1.073-2.753l-0.025 0.047c-0.255 0.044-0.516 0.067-0.781 0.067-2.111 0-3.967-1.446-4.549-3.49z"></path>
<path fill="#464545" d="M24.908 5.289l-5.601-5.289h-13.262l-5.606 5.294 1.271-0.001 4.672-4.412h12.588l4.668 4.408z"></path>
<path fill="#464545" d="M0.182 19.832v6.611l13.424-0.006c-0.552-0.889-0.973-1.923-1.201-3.027l-0.011-0.062c-1.993-0.129-3.71-1.544-4.258-3.502l-7.954 0.005-0-0.019z"></path>
<path fill="#464545" d="M12.693 15.425c1.643 0 3.093-1.070 3.642-2.611l-7.282 0.003c0.55 1.539 2 2.609 3.64 2.609z"></path>
<path fill="#219db0" d="M20.008 31.984c-2.696-0.413-4.544-1.328-6.326-3.134-1.575-1.596-2.467-3.256-2.944-5.478-0.224-1.043-0.224-3.223 0-4.266 0.477-2.222 1.369-3.882 2.944-5.478 1.593-1.614 3.332-2.557 5.56-3.014 0.951-0.195 3.098-0.178 4.056 0.032 2.198 0.482 3.834 1.384 5.411 2.981 1.594 1.615 2.527 3.38 2.975 5.632 0.178 0.893 0.178 3.064 0 3.957-0.447 2.247-1.387 4.026-2.975 5.629-1.253 1.265-2.452 2.042-3.975 2.575-1.198 0.419-1.913 0.543-3.294 0.57-0.672 0.013-1.317 0.010-1.432-0.008zM22.599 26.65c2.042-0.259 3.241-1.136 3.772-2.759 0.115-0.353 0.129-0.745 0.151-4.227l0.024-3.838h-1.824l-0.001 3.555c-0.001 3.884-0.026 4.187-0.397 4.878-0.262 0.488-0.75 0.867-1.371 1.064-0.423 0.135-0.657 0.159-1.513 0.159s-1.090-0.025-1.515-0.16c-0.818-0.26-1.243-0.663-1.574-1.492-0.159-0.397-0.16-0.429-0.181-4.203l-0.021-3.803h-1.809l0.001 3.626c0.001 2.91 0.021 3.723 0.104 4.115 0.356 1.703 1.563 2.738 3.56 3.052 0.703 0.111 1.858 0.124 2.594 0.031z"></path>
</svg>
