<!-- Generated by IcoMoon.io -->
<svg version="1.1" xmlns="http://www.w3.org/2000/svg" width="32" height="32" viewBox="0 0 32 32">
<title>repertorio_entrata</title>
<path fill="#464545" d="M0.182 11.934l8.653-0.006 0.004 0.022 7.737-0.003 0.006-0.027 8.619-0.005v-5.737l-7.929 0.005c-0.573 2.063-2.439 3.525-4.565 3.525-2.12 0-3.985-1.464-4.562-3.53l-7.948 0.005-0.016 5.751z"></path>
<path fill="#464545" d="M12.708 22.506c1.659 0 3.121-1.090 3.66-2.654l-7.318 0.003c0.54 1.563 2.002 2.651 3.658 2.651z"></path>
<path fill="#464545" d="M8.153 12.833l-7.971 0.003v6.139l12.259-0.005c0.229-1.023 0.591-1.929 1.074-2.756l-0.025 0.047c-0.255 0.044-0.517 0.067-0.782 0.067-2.113 0-3.972-1.448-4.555-3.494z"></path>
<path fill="#464545" d="M24.939 5.295l-5.608-5.295h-13.279l-5.613 5.301 1.273-0.001 4.678-4.417h12.604l4.674 4.414z"></path>
<path fill="#464545" d="M0.182 19.858v6.619l13.441-0.006c-0.553-0.89-0.974-1.926-1.203-3.031l-0.011-0.062c-1.996-0.129-3.714-1.546-4.263-3.506l-7.964 0.005-0-0.019z"></path>
<path fill="#464545" d="M12.708 15.445c1.645 0 3.097-1.071 3.646-2.615l-7.292 0.003c0.55 1.541 2.002 2.612 3.645 2.612z"></path>
<path fill="#2ab22a" d="M20.198 31.984c-2.653-0.412-4.471-1.327-6.225-3.131-1.55-1.594-2.427-3.251-2.897-5.471-0.22-1.042-0.22-3.219 0-4.261 0.469-2.22 1.347-3.877 2.897-5.471 1.568-1.612 3.279-2.554 5.471-3.010 0.936-0.195 3.049-0.178 3.991 0.032 2.162 0.482 3.773 1.382 5.324 2.978 1.569 1.613 2.486 3.376 2.927 5.625 0.175 0.892 0.175 3.060 0 3.952-0.44 2.244-1.365 4.021-2.928 5.622-1.233 1.264-2.412 2.039-3.911 2.572-1.179 0.419-1.883 0.542-3.241 0.57-0.662 0.013-1.296 0.010-1.409-0.008zM25.593 25.563v-0.601h-6.667v-3.886h6.186v-1.201h-6.186v-3.18h6.461v-1.201h-8.248v10.67h8.454z"></path>
</svg>
