<!-- Generated by IcoMoon.io -->
<svg version="1.1" xmlns="http://www.w3.org/2000/svg" width="32" height="32" viewBox="0 0 32 32">
<title>report_fatturazione</title>
<path fill="#464545" d="M14 10.667h-2.667c-0.368 0-0.667 0.299-0.667 0.667v8c0 0.368 0.299 0.667 0.667 0.667h2.667c0.368 0 0.667-0.299 0.667-0.667v-8c0-0.368-0.299-0.667-0.667-0.667z"></path>
<path fill="#464545" d="M8.667 14.667h-2.667c-0.368 0-0.667 0.299-0.667 0.667v4c0 0.368 0.299 0.667 0.667 0.667h2.667c0.368 0 0.667-0.299 0.667-0.667v-4c-0-0.368-0.299-0.667-0.667-0.667z"></path>
<path fill="#464545" d="M19.333 6.667h-2.667c-0.368 0-0.667 0.299-0.667 0.667v12c0 0.368 0.299 0.667 0.667 0.667h2.667c0.368 0 0.667-0.299 0.667-0.667v-12c0-0.368-0.299-0.667-0.667-0.667z"></path>
<path fill="#464545" d="M31.609 29.724l-7.959-7.959c1.883-2.299 3.016-5.235 3.016-8.432 0-7.352-5.981-13.333-13.333-13.333s-13.333 5.981-13.333 13.333 5.981 13.333 13.333 13.333c3.197 0 6.133-1.133 8.432-3.016l7.959 7.959c0.26 0.26 0.601 0.391 0.943 0.391s0.683-0.131 0.943-0.391c0.521-0.521 0.521-1.364-0-1.885zM13.333 24c-5.881 0-10.667-4.785-10.667-10.667s4.785-10.667 10.667-10.667 10.667 4.785 10.667 10.667-4.785 10.667-10.667 10.667z"></path>
</svg>
