<!-- Generated by IcoMoon.io -->
<svg version="1.1" xmlns="http://www.w3.org/2000/svg" width="32" height="32" viewBox="0 0 32 32">
<title>report_fatture</title>
<path fill="#464545" d="M15.159 16.475l7.989 13.838c-2.148 1.070-4.56 1.686-7.123 1.686-8.85 0-16.025-7.175-16.025-16.025-0-8.511 6.641-15.454 15.024-15.975v15.975c-0 0.172 0.045 0.344 0.135 0.501zM32 14.973h-14.973v-14.973c8.048 0.499 14.474 6.925 14.973 14.973zM19.030 12.97h10.673c-1.164-5.319-5.354-9.509-10.673-10.673v10.673zM24.887 29.322c4.055-2.698 6.794-7.193 7.113-12.346h-14.239l7.126 12.346z"></path>
</svg>
