<!-- Generated by IcoMoon.io -->
<svg version="1.1" xmlns="http://www.w3.org/2000/svg" width="32" height="32" viewBox="0 0 32 32">
<title>ricerca_doc_clienti</title>
<path fill="#464545" d="M31.787 30.759l-10.195-10.196c1.943-2.185 3.135-5.052 3.135-8.199 0-6.817-5.547-12.364-12.364-12.364s-12.364 5.546-12.364 12.364 5.547 12.364 12.364 12.364c3.147 0 6.015-1.192 8.2-3.136l10.195 10.196c0.142 0.142 0.328 0.213 0.514 0.213s0.372-0.071 0.514-0.213c0.284-0.284 0.284-0.744-0-1.028zM12.364 23.273c-6.016 0-10.909-4.893-10.909-10.909s4.893-10.909 10.909-10.909 10.909 4.893 10.909 10.909-4.893 10.909-10.909 10.909z"></path>
<path fill="#464545" d="M12.364 11.636c2.006 0 3.636-1.631 3.636-3.636s-1.631-3.636-3.636-3.636c-2.006 0-3.636 1.631-3.636 3.636s1.631 3.636 3.636 3.636zM12.364 5.818c1.203 0 2.182 0.979 2.182 2.182s-0.979 2.182-2.182 2.182c-1.203 0-2.182-0.979-2.182-2.182s0.979-2.182 2.182-2.182z"></path>
<path fill="#464545" d="M17.338 13.864c-1.162-0.685-2.969-1.501-4.974-1.501s-3.813 0.816-4.974 1.501c-0.969 0.572-1.571 1.682-1.571 2.897v0.466c0 0.928 0.699 1.682 1.558 1.682h9.974c0.859 0 1.558-0.754 1.558-1.682v-0.466c-0-1.215-0.602-2.325-1.571-2.897zM17.455 17.227c0 0.151-0.087 0.227-0.104 0.227h-9.974c-0.017 0-0.104-0.076-0.104-0.227v-0.466c0-0.692 0.335-1.337 0.855-1.644 1.006-0.592 2.557-1.299 4.236-1.299s3.23 0.707 4.236 1.299c0.52 0.307 0.855 0.952 0.855 1.644v0.466z"></path>
<path fill="#464545" d="M9.673 7.877c0-1.413 1.211-2.557 2.707-2.557s2.707 1.144 2.707 2.557c0 1.412-1.211 2.557-2.707 2.557s-2.707-1.144-2.707-2.557z"></path>
<path fill="#464545" d="M6.050 15.984c0-1.511 2.741-2.734 6.125-2.734s6.125 1.224 6.125 2.734c0 1.511-2.741 2.734-6.125 2.734s-6.125-1.224-6.125-2.734z"></path>
</svg>
