<!-- Generated by IcoMoon.io -->
<svg version="1.1" xmlns="http://www.w3.org/2000/svg" width="30" height="32" viewBox="0 0 30 32">
<title>ricerca_doc_data</title>
<path fill="#454545" d="M6.398 0c-1.353 0-2.461 1.167-2.461 2.593v1.556h-1.969c-1.077 0-1.969 0.94-1.969 2.075v20.746c0 1.135 0.892 2.075 1.969 2.075h11.461c-0.794-0.556-1.502-1.239-2.085-2.025l-0.034-0.050h-3.928v-4.668h2.218c-0.025-0.4-0.025-0.752-0.004-1.101l-0.001 0.064h-2.213v-5.187h4.194c0.475-0.601 1.036-1.154 1.664-1.633l0.047-0.033v-4.039h4.921v2.17c0.38-0.032 0.715-0.041 1.048-0.033l-0.063 0.001v-2.138h4.429v3.314c0.717 0.399 1.366 0.88 1.942 1.437l0.026 0.027v-8.926h0c0-1.135-0.892-2.075-1.969-2.075h-1.969v-1.556c0-1.426-1.107-2.593-2.461-2.593h-0.984c-1.353 0-2.461 1.167-2.461 2.593v1.556h-5.906v-1.556c0-1.426-1.107-2.593-2.461-2.593h-0.984zM6.398 2.075h0.984c0.261 0 0.492 0.243 0.492 0.519v4.668c0 0.276-0.231 0.519-0.492 0.519h-0.984c-0.261 0-0.492-0.243-0.492-0.519v-4.668c0-0.276 0.231-0.519 0.492-0.519zM18.209 2.075h0.984c0.261 0 0.492 0.243 0.492 0.519v4.668c0 0.276-0.231 0.519-0.492 0.519h-0.984c-0.261 0-0.492-0.243-0.492-0.519v-4.668c0-0.276 0.231-0.519 0.492-0.519zM1.969 10.373h4.429v4.668h-4.429v-4.668zM7.382 10.373h4.921v4.668h-4.921v-4.668zM1.969 16.078h4.429v5.187h-4.429v-5.187zM1.969 22.302h4.429v4.668h-4.429v-4.668zM19.955 26.97l0.395 2.075h0.102l-0.424-2.075h-0.074z"></path>
<path fill="#219db0" d="M18.919 10.557c-5.868 0-10.624 4.84-10.624 10.811s4.757 10.811 10.624 10.811c5.868 0 10.624-4.84 10.624-10.811s-4.757-10.811-10.624-10.811zM17.773 14.025c3.058 0.001 5.536 2.644 5.537 5.908-0.001 1.119-0.298 2.162-0.805 3.054l3.764 4.015-1.867 1.993-3.765-4.015c-0.836 0.541-1.814 0.858-2.864 0.858-3.059 0-5.538-2.643-5.538-5.905 0-3.263 2.479-5.906 5.538-5.907zM17.773 16.278c-1.892 0.005-3.422 1.636-3.425 3.654 0.003 2.017 1.533 3.648 3.425 3.653 1.89-0.005 3.421-1.636 3.425-3.653-0.003-2.018-1.534-3.65-3.425-3.654z"></path>
</svg>
