<!-- Generated by IcoMoon.io -->
<svg version="1.1" xmlns="http://www.w3.org/2000/svg" width="32" height="32" viewBox="0 0 32 32">
<title>richieste_invio_doc_pec</title>
<path fill="#464545" d="M15.657 20.393l-14.942 11.606h30.571l-14.944-11.606c-0.2-0.16-0.485-0.16-0.686 0z"></path>
<path fill="#464545" d="M16.343 0.119c-0.2-0.159-0.482-0.159-0.682 0l-1.318 1.023h3.314l-1.314-1.023z"></path>
<path fill="#464545" d="M22.619 20.154c-0.161 0.128-0.378 0.16-0.569 0.082s-0.325-0.25-0.353-0.454c-0.027-0.204 0.057-0.407 0.221-0.531l9.53-7.4-4.020-3.124v4.415c0 0.316-0.256 0.571-0.571 0.571s-0.571-0.256-0.571-0.571v-10.286c0-0.316-0.256-0.571-0.571-0.571h-19.429c-0.316 0-0.571 0.256-0.571 0.571v10.286c0 0.316-0.256 0.571-0.571 0.571s-0.571-0.256-0.571-0.571v-4.415l-4.020 3.124 9.513 7.387c0.161 0.125 0.244 0.327 0.216 0.529s-0.161 0.375-0.35 0.452c-0.189 0.077-0.405 0.048-0.566-0.078l-9.364-7.271v18.239l14.958-11.618c0.613-0.477 1.471-0.477 2.084 0l14.958 11.618v-18.239l-9.381 7.284zM18.31 12.811c-1.131 1.037-2.813 1.197-4.119 0.391s-1.917-2.381-1.496-3.857c0.421-1.476 1.771-2.492 3.305-2.489 0.316 0 0.571 0.256 0.571 0.571s-0.256 0.571-0.571 0.571c-1.262 0-2.286 1.023-2.286 2.286s1.023 2.286 2.286 2.286c1.262 0 2.286-1.023 2.286-2.286 0-0.316 0.256-0.571 0.571-0.571s0.571 0.256 0.571 0.571v2.286c0 0.631 0.512 1.143 1.143 1.143s1.143-0.512 1.143-1.143v-2.286c0-3.156-2.558-5.714-5.714-5.714s-5.714 2.558-5.714 5.714c0 3.156 2.558 5.714 5.714 5.714 0.316 0 0.571 0.256 0.571 0.571s-0.256 0.571-0.571 0.571c-3.787 0-6.857-3.070-6.857-6.857s3.070-6.857 6.857-6.857c3.787 0 6.857 3.070 6.857 6.857v2.286c0.004 1.215-0.946 2.219-2.159 2.283s-2.263-0.834-2.388-2.043z"></path>
</svg>
