<!-- Generated by IcoMoon.io -->
<svg version="1.1" xmlns="http://www.w3.org/2000/svg" width="32" height="32" viewBox="0 0 32 32">
<title>rubricaemail</title>
<path fill="#464545" d="M16.063 13.125c-1.551 0-2.813 1.262-2.813 2.813s1.262 2.813 2.813 2.813c1.551 0 2.813-1.262 2.813-2.813s-1.262-2.813-2.813-2.813z"></path>
<path fill="#464545" d="M15.938 0c-8.788 0-15.938 7.149-15.938 15.938s7.149 16.063 15.938 16.063 16.063-7.274 16.063-16.063-7.274-15.938-16.063-15.938zM22.625 20.625c-1.267 0-2.384-0.635-3.064-1.6-0.86 0.973-2.102 1.6-3.499 1.6-2.585 0-4.688-2.103-4.688-4.688s2.103-4.688 4.688-4.688c1.059 0 2.027 0.367 2.813 0.961v-0.024c0-0.518 0.419-0.938 0.938-0.938s0.938 0.419 0.938 0.938c0 2.085 0 2.602 0 4.688 0 1.034 0.841 1.875 1.875 1.875s1.875-0.841 1.875-1.875c0-6.274-4.152-9.375-8.438-9.375-4.653 0-8.438 3.785-8.438 8.438s3.785 8.438 8.438 8.438c1.875 0 3.648-0.601 5.129-1.738 0.989-0.755 2.121 0.735 1.143 1.487-1.812 1.391-3.98 2.126-6.271 2.126-5.686 0-10.313-4.626-10.313-10.313s4.626-10.313 10.313-10.313c5.181 0 10.313 3.821 10.313 11.25 0 2.068-1.682 3.75-3.75 3.75z"></path>
</svg>
