<!-- Generated by IcoMoon.io -->
<svg version="1.1" xmlns="http://www.w3.org/2000/svg" width="32" height="32" viewBox="0 0 32 32">
<title>scrivania</title>
<path fill="#464545" d="M31.333 4h-30.667c-0.368 0-0.667 0.298-0.667 0.667v2.667c0 0.368 0.298 0.667 0.667 0.667h0.667v2c0 0.368 0.298 0.667 0.667 0.667h0.667v16.667c0 0.369 0.298 0.667 0.667 0.667h1.333c0.349 0 0.638-0.268 0.664-0.615l1.286-16.718h18.767l1.286 16.718c0.026 0.347 0.315 0.615 0.664 0.615h1.333c0.369 0 0.667-0.298 0.667-0.667v-16.667h0.666c0.369 0 0.667-0.298 0.667-0.667v-2h0.667c0.369 0 0.667-0.298 0.667-0.667v-2.667c-0-0.369-0.298-0.667-0.667-0.667z"></path>
</svg>
