<!-- Generated by IcoMoon.io -->
<svg version="1.1" xmlns="http://www.w3.org/2000/svg" width="32" height="32" viewBox="0 0 32 32">
<title>sinadoc_catasti</title>
<path fill="#464545" d="M26.997 17.648l4.927 10.122c0.2 0.412-0.010 0.748-0.468 0.748h-30.912c-0.458 0-0.668-0.337-0.468-0.748l4.927-10.122c0.078-0.161 0.289-0.293 0.468-0.293h4.225c0.13 0 0.306 0.082 0.391 0.18 0.287 0.331 0.579 0.655 0.87 0.975 0.277 0.304 0.554 0.612 0.83 0.927h-5.014c-0.179 0-0.39 0.132-0.468 0.293l-3.264 6.705h25.917l-3.264-6.705c-0.078-0.161-0.289-0.293-0.468-0.293h-5.025c0.276-0.315 0.554-0.623 0.83-0.927 0.292-0.321 0.586-0.644 0.873-0.976 0.085-0.098 0.261-0.18 0.391-0.18h4.234c0.179 0 0.39 0.132 0.468 0.293zM23.244 10.731c0 5.531-4.604 6.568-6.77 11.883-0.176 0.432-0.784 0.43-0.96-0.002-1.953-4.792-5.89-6.106-6.643-10.376-0.742-4.203 2.168-8.32 6.417-8.721 4.321-0.408 7.955 2.979 7.955 7.216zM19.823 10.731c0-2.114-1.714-3.828-3.828-3.828s-3.828 1.714-3.828 3.828c0 2.114 1.714 3.828 3.828 3.828s3.828-1.714 3.828-3.828z"></path>
</svg>
