<!-- Generated by IcoMoon.io -->
<svg version="1.1" xmlns="http://www.w3.org/2000/svg" width="32" height="32" viewBox="0 0 32 32">
<title>societa</title>
<path fill="#464545" d="M31.261 7.263l-6.147-2.019c-0.001-0.001-0.001-0.001-0.003-0.001h0.001c0 0-0.098-0.037-0.236-0.023s-0.236 0.086-0.236 0.086l-3.446 2.25c-0.156 0.101-0.25 0.275-0.25 0.462v6.164l-0.191-0.014v-9.957c0-0.239-0.153-0.45-0.379-0.524l-11.143-3.66c0 0-0.129-0.041-0.248-0.022-0.143 0.023-0.247 0.099-0.247 0.099l-8.145 5.809c-0.146 0.103-0.232 0.27-0.232 0.449v20.622c0 0.202 0.11 0.387 0.287 0.483l8.148 4.465c0 0 0.084 0.050 0.2 0.064s0.2-0.012 0.2-0.012l22.028-5.561c0.244-0.061 0.416-0.282 0.416-0.534l0.001-18.101c0.001-0.24-0.153-0.451-0.379-0.525zM2.023 24.379c0 0.060-0.029 0.116-0.078 0.15-0.031 0.022-0.068 0.033-0.105 0.033-0.022 0-0.043-0.003-0.064-0.012l-0.476-0.175c-0.072-0.027-0.121-0.096-0.121-0.173v-1.514c0-0.057 0.027-0.112 0.072-0.146s0.106-0.046 0.161-0.031l0.476 0.132c0.079 0.022 0.134 0.095 0.134 0.178v1.557h0.001zM2.023 21.265c0 0.054-0.024 0.106-0.067 0.142-0.033 0.027-0.074 0.042-0.117 0.042-0.012 0-0.022-0.001-0.034-0.003l-0.476-0.089c-0.087-0.016-0.15-0.093-0.15-0.181v-1.514c0-0.052 0.022-0.101 0.061-0.136s0.090-0.052 0.142-0.046l0.476 0.046c0.094 0.010 0.165 0.089 0.165 0.183v1.557h0.001zM2.023 18.152c0 0.049-0.019 0.097-0.054 0.131s-0.081 0.053-0.129 0.053c-0.001 0-0.001 0-0.001 0l-0.476-0.003c-0.101-0.001-0.183-0.083-0.183-0.184v-1.514c0-0.096 0.074-0.176 0.169-0.183l0.476-0.040c0.052-0.005 0.101 0.013 0.14 0.048s0.059 0.084 0.059 0.136v1.557zM2.023 15.040c0 0.089-0.065 0.165-0.153 0.181l-0.476 0.082c-0.011 0.002-0.021 0.003-0.031 0.003-0.044 0-0.085-0.015-0.118-0.043-0.042-0.035-0.066-0.086-0.066-0.142v-1.514c0-0.084 0.056-0.156 0.137-0.178l0.476-0.126c0.056-0.014 0.114-0.002 0.159 0.033s0.071 0.088 0.071 0.146v1.557h0.001zM2.023 11.927c0 0.078-0.049 0.148-0.123 0.174l-0.476 0.168c-0.020 0.007-0.040 0.010-0.061 0.010-0.038 0-0.075-0.012-0.106-0.033-0.048-0.035-0.078-0.091-0.078-0.15v-1.514c0-0.072 0.043-0.138 0.11-0.168l0.476-0.211c0.056-0.025 0.123-0.020 0.175 0.014s0.083 0.093 0.083 0.155v1.556zM2.023 8.814c0 0.069-0.037 0.13-0.097 0.163l-0.476 0.253c-0.027 0.014-0.057 0.022-0.087 0.022-0.033 0-0.066-0.009-0.095-0.027-0.055-0.033-0.089-0.093-0.089-0.157v-1.514c0-0.064 0.033-0.123 0.087-0.156l0.476-0.297c0.057-0.035 0.128-0.037 0.187-0.005s0.095 0.094 0.095 0.161v1.556h0.001zM3.627 24.969c0 0.060-0.029 0.116-0.078 0.15-0.031 0.022-0.069 0.033-0.106 0.033-0.021 0-0.042-0.003-0.063-0.012l-0.567-0.209c-0.072-0.027-0.121-0.095-0.121-0.172v-1.65c0-0.057 0.027-0.111 0.072-0.146s0.105-0.046 0.161-0.031l0.566 0.158c0.080 0.022 0.135 0.095 0.135 0.177v1.701h0.001zM3.627 21.567c0 0.054-0.024 0.106-0.067 0.142-0.033 0.027-0.075 0.042-0.118 0.042-0.012 0-0.022-0.001-0.034-0.003l-0.566-0.106c-0.087-0.016-0.15-0.093-0.15-0.181v-1.65c0-0.052 0.022-0.101 0.061-0.136s0.091-0.052 0.142-0.047l0.567 0.055c0.095 0.009 0.166 0.088 0.166 0.184v1.701zM3.627 18.165c0 0.048-0.019 0.096-0.054 0.13s-0.081 0.053-0.129 0.053c0 0-0.001 0-0.001 0l-0.566-0.004c-0.101-0.001-0.183-0.083-0.183-0.184v-1.649c0-0.096 0.073-0.176 0.169-0.184l0.567-0.046c0.051-0.005 0.101 0.013 0.14 0.048s0.059 0.084 0.059 0.135v1.702zM3.627 14.762c0 0.090-0.065 0.166-0.153 0.182l-0.567 0.097c-0.011 0.002-0.021 0.003-0.031 0.003-0.043 0-0.085-0.016-0.119-0.044-0.042-0.035-0.065-0.086-0.065-0.141v-1.65c0-0.084 0.057-0.157 0.137-0.178l0.567-0.149c0.055-0.014 0.114-0.003 0.159 0.033s0.071 0.088 0.071 0.146v1.701h0.001zM3.627 11.36c0 0.078-0.049 0.148-0.123 0.174l-0.566 0.2c-0.020 0.008-0.041 0.011-0.061 0.011-0.038 0-0.075-0.012-0.106-0.034-0.049-0.035-0.078-0.091-0.078-0.15v-1.65c0-0.072 0.042-0.139 0.11-0.168l0.566-0.251c0.057-0.024 0.123-0.020 0.175 0.014s0.084 0.093 0.084 0.155v1.701zM3.627 7.959c0 0.068-0.037 0.13-0.097 0.162l-0.566 0.302c-0.027 0.014-0.057 0.021-0.086 0.021-0.033 0-0.066-0.009-0.095-0.026-0.055-0.033-0.089-0.093-0.089-0.157v-1.65c0-0.063 0.033-0.123 0.087-0.157l0.567-0.353c0.057-0.035 0.128-0.037 0.187-0.005s0.095 0.094 0.095 0.161v1.701zM5.561 25.68c0 0.061-0.029 0.117-0.078 0.151-0.031 0.022-0.069 0.033-0.105 0.033-0.022 0-0.043-0.004-0.064-0.012l-0.687-0.253c-0.072-0.027-0.121-0.096-0.121-0.173v-1.813c0-0.057 0.027-0.112 0.072-0.146s0.105-0.046 0.16-0.031l0.688 0.191c0.079 0.022 0.134 0.095 0.134 0.177v1.875h0.001zM5.561 21.93c0 0.054-0.025 0.106-0.067 0.142-0.033 0.027-0.075 0.042-0.117 0.042-0.012 0-0.023-0.001-0.034-0.003l-0.688-0.129c-0.087-0.016-0.15-0.093-0.15-0.181v-1.813c0-0.052 0.022-0.101 0.060-0.136s0.091-0.052 0.142-0.047l0.687 0.067c0.095 0.009 0.166 0.088 0.166 0.184v1.874h0.001zM5.561 18.179c0 0.049-0.019 0.097-0.054 0.131-0.034 0.034-0.081 0.053-0.129 0.053-0.001 0-0.001 0-0.002 0l-0.687-0.005c-0.101-0.001-0.182-0.082-0.182-0.184v-1.814c0-0.095 0.073-0.175 0.168-0.182l0.688-0.056c0.051-0.005 0.101 0.013 0.14 0.048s0.059 0.084 0.059 0.135v1.876h-0.001zM5.561 14.429c0 0.089-0.065 0.166-0.153 0.181l-0.688 0.119c-0.010 0.002-0.020 0.003-0.031 0.003-0.043 0-0.085-0.015-0.118-0.043-0.042-0.035-0.065-0.086-0.065-0.141v-1.813c0-0.084 0.056-0.156 0.137-0.178l0.687-0.181c0.055-0.014 0.114-0.003 0.159 0.033s0.072 0.088 0.072 0.146v1.874h0.001zM5.561 10.678c0 0.078-0.049 0.148-0.123 0.174l-0.688 0.242c-0.020 0.007-0.040 0.011-0.061 0.011-0.037 0-0.074-0.012-0.106-0.034-0.048-0.035-0.077-0.091-0.077-0.15v-1.813c0-0.074 0.042-0.139 0.109-0.168l0.687-0.304c0.057-0.025 0.123-0.020 0.175 0.014s0.084 0.093 0.084 0.155v1.875zM5.561 6.928c0 0.068-0.037 0.13-0.097 0.162l-0.688 0.366c-0.027 0.014-0.056 0.021-0.087 0.021-0.033 0-0.066-0.009-0.095-0.026-0.055-0.033-0.089-0.093-0.089-0.157v-1.814c0-0.063 0.033-0.123 0.087-0.156l0.687-0.428c0.058-0.035 0.129-0.037 0.187-0.004s0.095 0.094 0.095 0.161v1.875zM7.936 26.553c0 0.061-0.029 0.117-0.078 0.151-0.032 0.022-0.069 0.033-0.106 0.033-0.021 0-0.042-0.004-0.063-0.012l-0.85-0.313c-0.072-0.027-0.121-0.096-0.121-0.173v-2.013c0-0.057 0.027-0.111 0.072-0.146s0.105-0.046 0.16-0.031l0.85 0.236c0.080 0.022 0.135 0.095 0.135 0.177v2.089h0.001zM7.936 22.375c0 0.055-0.024 0.107-0.067 0.142-0.033 0.028-0.075 0.042-0.118 0.042-0.012 0-0.022-0.001-0.034-0.003l-0.85-0.159c-0.086-0.016-0.15-0.092-0.15-0.181v-2.012c0-0.052 0.022-0.101 0.061-0.136s0.090-0.052 0.141-0.047l0.85 0.083c0.095 0.010 0.166 0.089 0.166 0.183v2.089h0.001zM7.936 18.197c0 0.049-0.019 0.097-0.054 0.131s-0.081 0.053-0.129 0.053c0 0-0.001 0-0.001 0l-0.85-0.007c-0.101-0.001-0.183-0.082-0.183-0.184v-2.013c0-0.096 0.073-0.176 0.169-0.184l0.849-0.069c0.052-0.005 0.102 0.012 0.14 0.048s0.059 0.084 0.059 0.135v2.091zM7.936 14.018c0 0.090-0.065 0.166-0.153 0.182l-0.849 0.146c-0.011 0.002-0.021 0.003-0.032 0.003-0.042 0-0.085-0.014-0.118-0.043-0.042-0.035-0.065-0.086-0.065-0.14v-2.013c0-0.084 0.056-0.157 0.137-0.178l0.85-0.223c0.055-0.014 0.114-0.003 0.159 0.032s0.072 0.088 0.072 0.146v2.088h0.001zM7.936 9.841c0 0.078-0.049 0.148-0.123 0.174l-0.85 0.3c-0.020 0.007-0.041 0.011-0.061 0.011-0.037 0-0.074-0.012-0.106-0.034-0.049-0.035-0.078-0.091-0.078-0.15v-2.013c0-0.072 0.042-0.139 0.109-0.168l0.85-0.377c0.057-0.025 0.123-0.020 0.175 0.014s0.084 0.093 0.084 0.155v2.090zM7.936 5.662c0 0.068-0.037 0.13-0.098 0.162l-0.85 0.453c-0.027 0.014-0.056 0.022-0.086 0.022-0.033 0-0.065-0.009-0.095-0.027-0.055-0.033-0.089-0.093-0.089-0.157v-2.013c0-0.063 0.033-0.123 0.087-0.157l0.85-0.529c0.056-0.035 0.129-0.037 0.187-0.005s0.095 0.094 0.095 0.161v2.090h0.001zM12.449 26.491c0 0.090-0.065 0.166-0.154 0.182l-1.961 0.332c-0.011 0.001-0.020 0.003-0.031 0.003-0.043 0-0.086-0.015-0.119-0.044-0.042-0.035-0.065-0.086-0.065-0.14v-2.156c0-0.093 0.069-0.17 0.16-0.182l1.962-0.251c0.052-0.008 0.105 0.009 0.145 0.044 0.040 0.035 0.063 0.085 0.063 0.138v2.073h0.001zM12.449 22.344c0 0.095-0.073 0.175-0.168 0.182l-1.962 0.17c-0.005 0.001-0.011 0.001-0.016 0.001-0.046 0-0.091-0.016-0.125-0.048-0.038-0.035-0.060-0.084-0.060-0.136v-2.139c0-0.099 0.077-0.18 0.176-0.184l1.962-0.089c0.051-0.003 0.099 0.016 0.135 0.050s0.057 0.083 0.057 0.133v2.059h0.001zM12.449 18.196c0 0.101-0.082 0.184-0.184 0.184l-1.961 0.007c-0.001 0-0.001 0-0.001 0-0.049 0-0.096-0.019-0.13-0.054s-0.054-0.081-0.054-0.129v-2.156c0-0.050 0.020-0.097 0.056-0.132s0.084-0.053 0.134-0.051l1.961 0.074c0.099 0.003 0.177 0.084 0.177 0.183v2.074zM12.449 14.048c0 0.051-0.021 0.101-0.059 0.135-0.035 0.031-0.079 0.049-0.125 0.049-0.005 0-0.009-0.001-0.014-0.001l-1.961-0.156c-0.096-0.008-0.17-0.087-0.17-0.184v-2.155c0-0.052 0.022-0.103 0.062-0.138s0.092-0.052 0.144-0.045l1.961 0.238c0.093 0.012 0.162 0.090 0.162 0.182v2.074zM12.449 9.9c0 0.054-0.024 0.106-0.065 0.14-0.033 0.029-0.076 0.044-0.119 0.044-0.010 0-0.019-0.001-0.029-0.002l-1.962-0.319c-0.089-0.014-0.155-0.091-0.155-0.182v-2.155c0-0.056 0.024-0.108 0.068-0.143 0.042-0.035 0.098-0.048 0.153-0.038l1.961 0.4c0.086 0.018 0.148 0.093 0.148 0.18v2.074zM12.449 5.752c0 0.056-0.026 0.11-0.071 0.145-0.033 0.025-0.074 0.040-0.114 0.040-0.014 0-0.029-0.002-0.044-0.005l-1.961-0.481c-0.082-0.020-0.14-0.095-0.14-0.179v-2.156c0-0.058 0.027-0.112 0.073-0.147s0.106-0.046 0.161-0.030l1.961 0.563c0.079 0.022 0.133 0.095 0.133 0.177v2.075h0.001zM15.958 25.897c0 0.090-0.065 0.166-0.154 0.182l-1.691 0.287c-0.010 0.001-0.020 0.002-0.031 0.002-0.043 0-0.085-0.014-0.118-0.043-0.042-0.035-0.066-0.087-0.066-0.14v-1.999c0-0.093 0.069-0.171 0.161-0.182l1.691-0.217c0.052-0.007 0.105 0.010 0.145 0.044 0.040 0.035 0.063 0.085 0.063 0.138v1.928h0.001zM15.958 22.041c0 0.095-0.073 0.175-0.168 0.182l-1.691 0.146c-0.005 0.001-0.011 0.001-0.016 0.001-0.046 0-0.091-0.017-0.125-0.048-0.038-0.035-0.060-0.084-0.060-0.136v-1.998c0-0.099 0.078-0.18 0.176-0.184l1.691-0.076c0.049-0.003 0.099 0.016 0.135 0.050 0.037 0.035 0.057 0.083 0.057 0.133v1.929zM15.958 18.184c0 0.101-0.082 0.184-0.184 0.184l-1.691 0.006c-0.048 0-0.095-0.018-0.13-0.053s-0.054-0.082-0.054-0.13v-2c0-0.050 0.020-0.098 0.056-0.132s0.085-0.054 0.135-0.051l1.69 0.064c0.099 0.004 0.178 0.085 0.178 0.184v1.927h0.001zM15.958 14.327c0 0.051-0.022 0.1-0.059 0.135-0.035 0.031-0.079 0.048-0.125 0.048-0.005 0-0.010 0-0.015-0.001l-1.691-0.134c-0.096-0.008-0.169-0.087-0.169-0.184v-1.997c0-0.053 0.022-0.103 0.063-0.138s0.091-0.052 0.144-0.045l1.691 0.205c0.093 0.012 0.162 0.089 0.162 0.182v1.927h0.001zM15.958 10.47c0 0.054-0.024 0.105-0.065 0.14-0.033 0.029-0.076 0.044-0.119 0.044-0.010 0-0.020-0.001-0.029-0.003l-1.691-0.274c-0.089-0.014-0.155-0.092-0.155-0.182v-1.999c0-0.055 0.025-0.108 0.068-0.142s0.099-0.049 0.153-0.038l1.691 0.345c0.086 0.017 0.148 0.093 0.148 0.18v1.929zM15.958 6.613c0 0.056-0.026 0.11-0.070 0.144-0.033 0.026-0.074 0.040-0.114 0.040-0.015 0-0.029-0.001-0.044-0.005l-1.691-0.415c-0.082-0.020-0.14-0.094-0.14-0.179v-1.998c0-0.058 0.027-0.112 0.074-0.147s0.106-0.046 0.161-0.030l1.691 0.485c0.079 0.022 0.133 0.095 0.133 0.177v1.928h0.001zM19.007 25.38c0 0.090-0.065 0.166-0.153 0.182l-1.473 0.249c-0.011 0.002-0.020 0.003-0.031 0.003-0.042 0-0.085-0.015-0.119-0.043-0.041-0.035-0.065-0.087-0.065-0.141v-1.863c0-0.093 0.069-0.17 0.16-0.182l1.473-0.188c0.052-0.007 0.105 0.009 0.145 0.044 0.040 0.035 0.063 0.086 0.063 0.138v1.802h0.001zM19.007 21.776c0 0.096-0.073 0.175-0.168 0.183l-1.473 0.127c-0.005 0.001-0.011 0.001-0.016 0.001-0.046 0-0.090-0.017-0.125-0.048-0.038-0.035-0.059-0.084-0.059-0.135v-1.863c0-0.098 0.077-0.18 0.176-0.184l1.473-0.066c0.050-0.003 0.099 0.016 0.135 0.050 0.037 0.035 0.057 0.083 0.057 0.133v1.802h0.001zM19.007 18.173c0 0.101-0.082 0.183-0.184 0.184l-1.473 0.005c0 0 0 0-0.001 0-0.048 0-0.095-0.019-0.129-0.053s-0.054-0.082-0.054-0.13v-1.863c0-0.050 0.020-0.098 0.056-0.132s0.084-0.053 0.134-0.051l1.473 0.056c0.098 0.003 0.177 0.085 0.177 0.183v1.802zM19.007 14.569c0 0.051-0.021 0.101-0.059 0.136-0.034 0.031-0.078 0.048-0.125 0.048-0.005 0-0.010 0-0.014-0.001l-1.473-0.117c-0.095-0.008-0.169-0.088-0.169-0.183v-1.863c0-0.052 0.022-0.102 0.062-0.138s0.092-0.051 0.144-0.044l1.472 0.178c0.093 0.011 0.162 0.089 0.162 0.182v1.801zM19.007 10.965c0 0.054-0.024 0.106-0.065 0.14-0.034 0.029-0.076 0.044-0.12 0.044-0.010 0-0.019-0.001-0.029-0.003l-1.473-0.24c-0.089-0.014-0.154-0.091-0.154-0.182v-1.862c0-0.056 0.024-0.108 0.067-0.143s0.099-0.048 0.154-0.037l1.473 0.3c0.085 0.018 0.147 0.093 0.147 0.18v1.803zM19.007 7.362c0 0.056-0.026 0.11-0.071 0.145-0.033 0.026-0.072 0.040-0.114 0.040-0.014 0-0.029-0.002-0.044-0.005l-1.473-0.362c-0.082-0.020-0.14-0.094-0.14-0.178v-1.863c0-0.058 0.027-0.112 0.073-0.147s0.106-0.046 0.161-0.030l1.473 0.423c0.078 0.022 0.133 0.095 0.133 0.177v1.801h0.001zM25.126 27.44c0 0.084-0.057 0.157-0.139 0.178l-4.74 1.197c-0.014 0.003-0.030 0.006-0.044 0.006-0.041 0-0.080-0.014-0.113-0.039-0.045-0.035-0.071-0.088-0.071-0.146v-10.467c0-0.018 0.029-1.932 2.704-1.831 2.376 0.089 2.403 1.797 2.403 1.815v9.287h-0.001zM27.117 24.007c0 0.090-0.065 0.166-0.153 0.181l-0.967 0.164c-0.011 0.002-0.020 0.003-0.031 0.003-0.043 0-0.085-0.015-0.119-0.043-0.041-0.036-0.065-0.087-0.065-0.142v-1.505c0-0.093 0.069-0.171 0.16-0.182l0.968-0.125c0.052-0.007 0.105 0.010 0.145 0.044 0.039 0.035 0.063 0.085 0.063 0.138v1.466h0zM27.117 21.076c0 0.095-0.073 0.175-0.168 0.182l-0.968 0.084c-0.005 0.001-0.011 0.001-0.016 0.001-0.046 0-0.090-0.017-0.125-0.048-0.038-0.035-0.059-0.084-0.059-0.136v-1.506c0-0.098 0.077-0.179 0.176-0.183l0.968-0.044c0.050-0.003 0.099 0.016 0.135 0.050 0.037 0.035 0.057 0.082 0.057 0.133v1.466zM27.117 18.133c0 0.101-0.082 0.184-0.183 0.184l-0.968 0.003c0 0 0 0-0.001 0-0.048 0-0.095-0.019-0.129-0.054s-0.054-0.081-0.054-0.13v-1.493c0-0.050 0.020-0.097 0.056-0.133s0.084-0.053 0.135-0.051l0.967 0.038c0.099 0.003 0.178 0.084 0.178 0.184v1.452h-0.001zM27.117 15.214c0 0.051-0.022 0.101-0.059 0.135-0.035 0.032-0.079 0.049-0.125 0.049-0.005 0-0.010-0.001-0.014-0.001l-0.968-0.077c-0.095-0.008-0.169-0.087-0.169-0.184v-1.505c0-0.052 0.022-0.102 0.062-0.138s0.092-0.052 0.144-0.044l0.968 0.117c0.093 0.011 0.162 0.089 0.162 0.182v1.465zM27.117 12.283c0 0.054-0.024 0.105-0.065 0.14-0.033 0.029-0.075 0.044-0.119 0.044-0.010 0-0.020-0.001-0.029-0.003l-0.968-0.157c-0.089-0.014-0.155-0.092-0.155-0.182v-1.506c0-0.055 0.025-0.107 0.067-0.142s0.099-0.048 0.154-0.038l0.967 0.197c0.086 0.018 0.148 0.093 0.148 0.18v1.466zM27.117 9.352c0 0.056-0.026 0.11-0.070 0.145-0.033 0.026-0.073 0.040-0.114 0.040-0.014 0-0.029-0.001-0.044-0.005l-0.969-0.238c-0.082-0.020-0.14-0.095-0.14-0.179v-1.505c0-0.058 0.027-0.112 0.074-0.147 0.046-0.035 0.106-0.046 0.161-0.030l0.967 0.278c0.079 0.022 0.133 0.095 0.133 0.177v1.465zM28.905 23.703c0 0.090-0.065 0.166-0.154 0.181l-0.871 0.148c-0.010 0.001-0.020 0.002-0.031 0.002-0.043 0-0.085-0.014-0.119-0.043-0.041-0.035-0.065-0.087-0.065-0.14v-1.428c0-0.093 0.069-0.171 0.161-0.182l0.871-0.112c0.052-0.007 0.105 0.010 0.145 0.045s0.063 0.085 0.063 0.137v1.391h0.001zM28.905 20.921c0 0.096-0.073 0.175-0.168 0.184l-0.871 0.075c-0.005 0.001-0.011 0.001-0.016 0.001-0.046 0-0.091-0.017-0.125-0.048-0.038-0.035-0.060-0.084-0.060-0.136v-1.427c0-0.099 0.078-0.18 0.176-0.184l0.871-0.040c0.050-0.003 0.099 0.016 0.135 0.050 0.037 0.035 0.057 0.082 0.057 0.133v1.392zM28.905 18.139c0 0.101-0.082 0.184-0.184 0.184l-0.871 0.003c-0.048 0-0.095-0.019-0.129-0.054s-0.055-0.081-0.055-0.13v-1.428c0-0.051 0.020-0.099 0.057-0.133s0.084-0.053 0.134-0.051l0.872 0.033c0.099 0.004 0.177 0.085 0.177 0.184v1.392h-0zM28.905 15.356c0 0.051-0.021 0.101-0.059 0.135-0.034 0.032-0.079 0.049-0.125 0.049-0.005 0-0.010-0.001-0.014-0.001l-0.871-0.069c-0.096-0.008-0.17-0.088-0.17-0.184v-1.428c0-0.052 0.022-0.102 0.063-0.138s0.092-0.051 0.144-0.044l0.871 0.105c0.093 0.012 0.162 0.090 0.162 0.182v1.392zM28.905 12.574c0 0.054-0.024 0.106-0.065 0.14-0.034 0.029-0.076 0.044-0.119 0.044-0.010 0-0.019-0.001-0.029-0.002l-0.871-0.142c-0.089-0.014-0.155-0.092-0.155-0.182v-1.428c0-0.055 0.025-0.108 0.068-0.142s0.099-0.049 0.153-0.038l0.871 0.178c0.086 0.017 0.148 0.093 0.148 0.18v1.391zM28.905 9.792c0 0.056-0.026 0.11-0.071 0.145-0.033 0.025-0.073 0.039-0.114 0.039-0.014 0-0.029-0.001-0.044-0.005l-0.87-0.213c-0.082-0.020-0.14-0.094-0.14-0.179v-1.427c0-0.058 0.027-0.112 0.074-0.147s0.106-0.046 0.161-0.030l0.871 0.25c0.079 0.022 0.133 0.095 0.133 0.177v1.391h0.001zM30.521 23.43c0 0.090-0.065 0.166-0.154 0.182l-0.788 0.133c-0.011 0.002-0.020 0.003-0.031 0.003-0.044 0-0.086-0.014-0.119-0.043-0.041-0.035-0.065-0.086-0.065-0.14v-1.357c0-0.093 0.069-0.171 0.161-0.182l0.788-0.101c0.052-0.007 0.105 0.009 0.145 0.044s0.063 0.085 0.063 0.138v1.324h0.001zM30.521 20.781c0 0.096-0.073 0.175-0.168 0.184l-0.788 0.068c-0.005 0.001-0.010 0.001-0.015 0.001-0.046 0-0.091-0.017-0.125-0.048-0.038-0.035-0.060-0.084-0.060-0.136v-1.357c0-0.099 0.077-0.18 0.176-0.184l0.789-0.036c0.049-0.003 0.099 0.016 0.135 0.051s0.057 0.082 0.057 0.133v1.324zM30.521 18.133c0 0.101-0.082 0.184-0.184 0.184l-0.788 0.003c-0.001 0-0.001 0-0.001 0-0.048 0-0.096-0.019-0.13-0.054s-0.054-0.081-0.054-0.13v-1.356c0-0.050 0.020-0.098 0.056-0.133s0.084-0.053 0.134-0.051l0.788 0.030c0.099 0.004 0.177 0.085 0.177 0.184v1.323zM30.521 15.485c0 0.052-0.022 0.1-0.059 0.136-0.035 0.031-0.079 0.048-0.125 0.048-0.005 0-0.010 0-0.014-0.001l-0.788-0.063c-0.096-0.008-0.169-0.088-0.169-0.184v-1.357c0-0.052 0.022-0.102 0.062-0.138s0.092-0.051 0.144-0.045l0.788 0.095c0.093 0.012 0.162 0.090 0.162 0.182v1.325zM30.521 12.837c0 0.054-0.024 0.105-0.065 0.14-0.033 0.029-0.075 0.044-0.119 0.044-0.010 0-0.020-0.001-0.029-0.002l-0.788-0.128c-0.089-0.014-0.154-0.092-0.154-0.182v-1.357c0-0.055 0.024-0.107 0.068-0.142s0.099-0.048 0.153-0.038l0.788 0.161c0.086 0.017 0.148 0.093 0.148 0.18v1.325h-0.001zM30.521 10.188c0 0.056-0.026 0.11-0.071 0.144-0.033 0.026-0.073 0.040-0.114 0.040-0.014 0-0.029-0.001-0.044-0.005l-0.788-0.193c-0.082-0.020-0.14-0.094-0.14-0.178v-1.357c0-0.058 0.027-0.112 0.073-0.147s0.106-0.046 0.161-0.030l0.788 0.226c0.079 0.022 0.133 0.095 0.133 0.177v1.324h0.001z"></path>
</svg>
