<!-- Generated by IcoMoon.io -->
<svg version="1.1" xmlns="http://www.w3.org/2000/svg" width="32" height="32" viewBox="0 0 32 32">
<title>soggetti</title>
<path fill="#464545" d="M16.034 15.634c3.554 0 6.436-3.5 6.436-7.817s-0.946-7.817-6.436-7.817-6.436 3.5-6.436 7.817c0 4.317 2.881 7.817 6.436 7.817z"></path>
<path fill="#464545" d="M28.142 27.287c-0.119-7.52-1.101-9.663-8.617-11.020 0 0-1.058 1.348-3.524 1.348s-3.524-1.348-3.524-1.348c-7.434 1.342-8.476 3.453-8.613 10.776-0.011 0.598-0.016 0.629-0.018 0.56 0 0.13 0.001 0.371 0.001 0.79 0 0 1.789 3.607 12.154 3.607s12.154-3.607 12.154-3.607c0-0.27 0-0.457 0-0.584-0.002 0.043-0.006-0.040-0.014-0.521z"></path>
</svg>
