<!-- Generated by IcoMoon.io -->
<svg version="1.1" xmlns="http://www.w3.org/2000/svg" width="32" height="32" viewBox="0 0 32 32">
<title>stampa_reg_prot</title>
<path fill="#464545" d="M3.070 0v32h25.86v-1.921h-15.546v-1.279h-7.081v-25.6h12.93v5.418c0.807-0.634 1.826-1.013 2.934-1.013 2.62 0 4.741 2.116 4.741 4.728 0 1.213-0.458 2.319-1.21 3.155v6.389h3.232v-15.478l-6.465-6.4h-19.395zM25.697 27.58v0.096h3.232v-0.096h-3.232z"></path>
<path fill="#464545" d="M14.599 27.496h14.166v1.611h-14.166v-1.611z"></path>
<path fill="#464545" d="M28.050 23.412h-12.967c-0.708 0-1.281 0.668-1.281 1.498v1.746h15.544v-1.746c0-0.83-0.583-1.498-1.295-1.498h0z"></path>
<path fill="#464545" d="M18.772 12.325c0-1.83 1.486-3.312 3.321-3.312s3.321 1.482 3.321 3.312c0 1.83-1.486 3.312-3.321 3.312s-3.321-1.482-3.321-3.312z"></path>
<path fill="#464545" d="M20.888 15.229h2.485v9.188h-2.485v-9.188z"></path>
</svg>
