<!-- Generated by IcoMoon.io -->
<svg version="1.1" xmlns="http://www.w3.org/2000/svg" width="32" height="32" viewBox="0 0 32 32">
<title>stampa_reg_proposte_atti</title>
<path fill="#464545" d="M31.068 20.136l-3.573-11.527c0.93-0.364 1.6-1.385 1.6-2.59 0-1.509-1.051-2.732-2.349-2.732-0.066 0-0.132 0.004-0.197 0.010-3.367 0.229-6.627 0.348-9.88 0.362l-0.67-3.433-0.67 3.433c-3.254-0.016-6.515-0.136-9.881-0.361-0.065-0.006-0.13-0.010-0.195-0.010-1.297 0-2.349 1.223-2.349 2.732 0 1.204 0.67 2.226 1.6 2.59l-3.573 11.527h-0.932c0 1.537 2.386 2.784 5.33 2.784s5.33-1.246 5.33-2.784h-0.931l-3.591-11.586c0.859-0.406 1.464-1.386 1.464-2.531 0-0.472-0.103-0.917-0.285-1.304 2.246 1.391 4.887 2.168 7.575 2.334l0.135 13.77c-0.303 0.254-0.53 0.624-0.632 1.054-0.308 0.425-0.494 0.973-0.494 1.573 0 0.672 0.234 1.281 0.612 1.723-0.114 0.262-0.179 0.559-0.179 0.873 0 0.046 0.002 0.092 0.005 0.138-2.087 0.352-3.741 1.35-4.36 2.623h12.041c-0.619-1.274-2.273-2.272-4.36-2.623 0.003-0.046 0.005-0.091 0.005-0.138 0-0.314-0.065-0.611-0.179-0.873 0.378-0.441 0.612-1.050 0.612-1.723 0-0.599-0.186-1.148-0.494-1.573-0.102-0.43-0.329-0.799-0.632-1.054l0.135-13.771c2.69-0.169 5.332-0.95 7.578-2.339-0.183 0.389-0.287 0.835-0.287 1.31 0 1.145 0.606 2.124 1.464 2.531l-3.591 11.586h-0.931c0 1.537 2.386 2.784 5.33 2.784s5.33-1.246 5.33-2.784l-0.932-0zM4.969 20.136h-3.269l3.269-10.547v10.547zM8.961 20.136h-3.269v-10.547l3.269 10.547zM27.031 9.589l3.269 10.547h-3.269v-10.547zM26.309 9.589v10.547h-3.269l3.269-10.547z"></path>
</svg>
