<!-- Generated by IcoMoon.io -->
<svg version="1.1" xmlns="http://www.w3.org/2000/svg" width="32" height="32" viewBox="0 0 32 32">
<title>statisticheDocumenti</title>
<path fill="#464545" d="M0 0v32h24.376v-0.587c-0.351 0.052-0.76 0.084-1.175 0.087l-0.004 0c-1.771-0.003-3.418-0.516-4.796-1.395l0.034 0.020-16.559-0v-28.25h16.235v4.374h4.391v8.116c0.207-0.018 0.449-0.029 0.694-0.030h0.002c0.419 0.004 0.827 0.035 1.227 0.093l-0.048-0.006v-9.497l-4.925-4.924h-19.451zM19.985 3.185l1.188 1.188h-1.188v-1.188z"></path>
<path fill="#464545" d="M4.343 16.548h6.992v-9.376h-6.992v9.376zM6.218 9.047h3.242v5.626h-3.242v-5.625z"></path>
<path fill="#464545" d="M12.93 8.423h6.818v1.875h-6.818v-1.875z"></path>
<path fill="#464545" d="M4.43 19.673h6.818v1.875h-6.818v-1.875z"></path>
<path fill="#464545" d="M4.43 22.923h6.818v1.875h-6.818v-1.875z"></path>
<path fill="#464545" d="M13.216 11.672h6.818v1.875h-6.818v-1.875z"></path>
<path fill="#464545" d="M23.069 23.407l3.694 6.271c-0.993 0.485-2.108 0.764-3.293 0.764-4.092 0-7.409-3.252-7.409-7.262-0-3.857 3.071-7.003 6.946-7.239v7.239c-0 0.078 0.021 0.156 0.062 0.227zM30.855 22.726h-6.923v-6.785c3.721 0.226 6.692 3.138 6.923 6.785zM24.858 21.818h4.935c-0.538-2.41-2.475-4.309-4.935-4.837zM27.566 29.228c1.875-1.222 3.141-3.26 3.289-5.595h-6.584z"></path>
</svg>
