<!-- Generated by IcoMoon.io -->
<svg version="1.1" xmlns="http://www.w3.org/2000/svg" width="32" height="32" viewBox="0 0 32 32">
<title>statisticheMailStoricizzate</title>
<path fill="#464545" d="M0 13.629v17.326l11.632-9.993z"></path>
<path fill="#464545" d="M11.969 22.43l-11.058 9.5h19.274c-4.397-0.571-7.833-4.524-8.214-9.461l-0.002-0.039zM27.706 29.023c-1.445 1.585-3.351 2.645-5.471 2.903l-0.041 0.004h8.895l-3.383-2.907z"></path>
<path fill="#464545" d="M32 13.629l-2.084 1.314c1.291 1.773 2.077 4.061 2.084 6.555v0.002-7.871zM32 21.529c-0.005 2.799-0.988 5.339-2.586 7.211l0.003-0.004 2.583 2.219v-9.426z"></path>
<path fill="#464545" d="M16 0.070l-4.795 3.858h-6.538v5.26l-4.047 3.256 5.38 3.392v-10.574h20v6.514c1.182 0.512 2.195 1.236 3.055 2.143l-0.005-0.005 2.309-1.456-4.026-3.247v-5.282h-6.55l-4.784-3.858z"></path>
<path fill="#464545" d="M19.333 6.597v4.633c0.58-0.151 1.247-0.241 1.933-0.247l0.004-0c0.733 0.002 1.444 0.099 2.127 0.28l-0.063-0.014v-4.653h-4z"></path>
<path fill="#464545" d="M14 8.45v8.147h0.322c0.814-1.918 2.076-3.47 3.636-4.522l0.042-0.026v-3.599h-4z"></path>
<path fill="#464545" d="M8.667 10.93h4v5.667h-4v-5.667z"></path>
<path fill="#3590cd" d="M21.53 10.499c-5.899 0-10.699 4.846-10.699 10.803s4.8 10.803 10.699 10.803c5.899 0 10.699-4.846 10.699-10.803s-4.8-10.803-10.699-10.803zM21.53 29.808c-4.644 0-8.423-3.815-8.423-8.505s3.779-8.505 8.423-8.505c4.644 0 8.423 3.815 8.423 8.505s-3.779 8.505-8.423 8.505z"></path>
<path fill="#3590cd" d="M27.105 20.969h-4.808v-5.838c0-0.491-0.394-0.89-0.881-0.89s-0.881 0.398-0.881 0.89v6.727c0 0.491 0.394 0.89 0.881 0.89h5.689c0.486 0 0.881-0.398 0.881-0.89s-0.394-0.89-0.881-0.89z"></path>
</svg>
