<!-- Generated by IcoMoon.io -->
<svg version="1.1" xmlns="http://www.w3.org/2000/svg" width="32" height="32" viewBox="0 0 32 32">
<title>amministrazione_trasparente</title>
<path fill="#1a1a1a" d="M3.897 23.777h15.739v-15.013h-5.247v-5.005h-10.492zM1.274 25.029v-23.771h15.739l5.247 5.005v20.018h-20.985z"></path>
<path fill="#1a1a1a" d="M18.964 20.364l-3.7-3.731c0.499-0.829 0.791-1.798 0.792-2.838-0.001-3.033-2.436-5.49-5.443-5.491-3.007 0.001-5.443 2.458-5.443 5.49 0 3.031 2.437 5.488 5.443 5.488 1.032 0 1.994-0.295 2.815-0.798l3.701 3.731zM7.245 13.795c0.002-1.876 1.508-3.392 3.366-3.396 1.858 0.004 3.363 1.52 3.366 3.396-0.004 1.875-1.508 3.39-3.366 3.395-1.86-0.004-3.363-1.52-3.366-3.395z"></path>
<path fill="#fff" opacity="0.99" d="M20.484 14.36h0.012c1.399 0 2.533 1.134 2.533 2.533v8.444c0 1.399-1.134 2.533-2.533 2.533h-0.012c-1.399 0-2.533-1.134-2.533-2.533v-8.444c0-1.399 1.134-2.533 2.533-2.533z"></path>
<path fill="#2ab22a" d="M22.133 19.547l-0.186 0.004c-0.598 0-1.202-0.099-1.794-0.273l1.631 2.124-1.463 1.202 1.507 7.784c0.013 0.067 0.080 0.116 0.161 0.116 0.079 0 0.147-0.048 0.161-0.116l1.507-7.784-1.465-1.202 1.607-2.092c-0.525 0.131-1.080 0.218-1.664 0.238z"></path>
<path fill="#666" d="M17.613 13.539c0.078 0.4 0.197 0.66 0.337 0.821 0.332 2.578 2.406 4.775 4.072 4.684 2.119-0.116 3.622-2.664 3.958-4.684 0.139-0.161 0.274-0.504 0.355-0.907 0.090-0.463 0.187-1.161-0.063-1.531-0.015-0.019-0.11-0.117-0.126-0.133 0.238-0.96 0.762-2.671-0.542-4.21-0.707-0.834-1.688-1.252-2.574-1.583-2.618-0.976-4.465 0.393-5.319 2.668-0.062 0.161-0.46 1.184 0.022 3.125-0.047 0.035-0.089 0.079-0.125 0.133-0.251 0.368-0.088 1.154 0.004 1.617z"></path>
<path fill="#666" d="M31.152 27.719c-0.073-1.775-0.163-4.587-1.553-6.887 0 0-0.396-0.602-1.336-1.003 0 0-2.040-0.693-2.98-1.443l-0.429 0.328 0.047 3.112-2.576 7.673c-0.056 0.168-0.2 0.28-0.36 0.28s-0.304-0.111-0.36-0.28l-2.575-7.673c0 0 0.047-3.103 0.047-3.112 0.006 0.026-0.43-0.328-0.43-0.328-0.938 0.749-2.979 1.443-2.979 1.443-0.939 0.4-1.336 1.003-1.336 1.003-1.389 2.301-1.48 5.113-1.553 6.887-0.050 1.226 0.18 1.684 0.47 1.814 3.594 1.609 13.838 1.609 17.433 0 0.291-0.129 0.52-0.588 0.471-1.814z"></path>
</svg>
