<!-- Generated by IcoMoon.io -->
<svg version="1.1" xmlns="http://www.w3.org/2000/svg" width="32" height="32" viewBox="0 0 32 32">
<title>statisticheCogito</title>
<path fill="#464545" d="M32.189 16.478c-0.572 0.671-1.33 0.881-2.166 0.894s-1.664 0.023-2.494 0c-0.991-0.033-1.539-0.572-1.515-1.421 0.021-0.791 0.528-1.216 1.514-1.23 1.021-0.016 2.044 0 3.066-0.007 0.661 0 1.209 0.209 1.595 0.767z"></path>
<path fill="#464545" d="M0 15.476c0.508-0.572 1.156-0.787 1.913-0.77 0.974 0.021 1.95-0.009 2.924 0.014 0.794 0.017 1.229 0.378 1.325 1.030 0.012 0.064 0.018 0.137 0.018 0.211 0 0.607-0.436 1.112-1.012 1.218l-0.008 0.001c-1.402 0.326-2.827 0.286-4.24 0.034-0.429-0.076-0.69-0.399-0.918-0.742z"></path>
<path fill="#464545" d="M16.567 25.944c-1.288 0.029-2.413-0.153-3.549-0.265-0.001 0-0.003 0-0.004 0-0.273 0-0.499-0.201-0.538-0.463l-0-0.003c-0.429-2.046-1.574-3.763-2.575-5.542-1.97-3.464-1.073-7.71 2.146-9.788 2.405-1.555 4.96-1.598 7.451-0.202 2.432 1.366 3.828 3.455 3.85 6.319 0.009 1.093-0.363 2.113-0.858 3.067-0.687 1.306-1.422 2.587-2.154 3.863-0.36 0.574-0.602 1.258-0.674 1.991l-0.002 0.019c-0.036 0.554-0.349 0.81-0.868 0.848-0.794 0.064-1.569 0.236-2.223 0.156zM11.913 17.157c0.715-2.8 2.575-4.528 5.352-5.591-1.761-0.459-3.147-0.056-4.276 1.084-1.245 1.26-1.714 2.767-1.076 4.506z"></path>
<path fill="#464545" d="M15.887 27.060c0.266-0.022 0.575-0.034 0.888-0.034 0.666 0 1.318 0.057 1.953 0.166l-0.068-0.010c0.94 0.177 1.106 0.371 1.11 1.319 0 0.167 0 0.333 0 0.501 0 1.619 0.057 1.495-1.288 1.92-0.285 0.098-0.531 0.237-0.747 0.413l0.004-0.003c-1.145 0.891-2.156 0.9-3.26-0.031-0.378-0.319-0.784-0.556-1.269-0.585-0.625-0.036-0.814-0.369-0.791-0.937 0.013-0.235 0.020-0.51 0.020-0.787s-0.007-0.552-0.022-0.825l0.002 0.038c-0.039-0.628 0.286-0.916 0.847-1.031 0.182-0.052 0.397-0.091 0.617-0.111l0.014-0.001c0.658-0.009 1.325 0 1.99 0z"></path>
<path fill="#464545" d="M24.007 22.604c0.196 0.054 0.367 0.125 0.527 0.214l-0.012-0.006c1.185 0.777 2.226 1.717 2.996 2.911 0.429 0.671 0.298 1.315-0.286 1.767-0.429 0.329-0.847 0.389-1.305 0.057-1.209-0.878-2.173-1.983-3.004-3.215-0.273-0.406-0.216-0.808 0.037-1.203 0.227-0.348 0.552-0.506 1.047-0.525z"></path>
<path fill="#464545" d="M14.851 3.083c0-0.597-0.009-1.193 0-1.788 0.013-0.681 0.403-1.16 1.017-1.273s1.144 0.213 1.382 0.876c0.349 0.993 0.26 2.024 0.176 3.044-0.031 0.557-0.165 1.075-0.383 1.547l0.011-0.026c-0.226 0.466-0.559 0.825-1.11 0.701-0.587-0.132-1.063-0.465-1.087-1.144-0.023-0.642 0-1.288 0-1.93z"></path>
<path fill="#464545" d="M5.612 27.79c-0.858 0-1.488-1.001-1.070-1.725 0.825-1.431 2.086-2.456 3.445-3.349 0.401-0.263 0.785-0.011 1.080 0.293s0.536 0.674 0.286 1.087c-0.869 1.452-2.011 2.653-3.364 3.564l-0.040 0.025c-0.098 0.050-0.212 0.087-0.332 0.104l-0.006 0.001z"></path>
<path fill="#464545" d="M5.481 4.306c0.302 0 0.544 0.165 0.774 0.33 1.151 0.859 2.129 1.871 2.926 3.018l0.028 0.043c0.341 0.484 0.302 0.934-0.114 1.343s-0.907 0.605-1.462 0.206c-1.216-0.886-2.227-1.973-3.002-3.221l-0.028-0.048c-0.445-0.714 0.099-1.677 0.878-1.671z"></path>
<path fill="#464545" d="M22.738 8.252c0.002-0.245 0.089-0.47 0.233-0.646l-0.001 0.002c0.797-1.069 1.655-2.082 2.718-2.894 0.715-0.542 1.199-0.534 1.701-0.011s0.492 0.957-0.017 1.648c-0.811 1.1-1.841 1.977-2.89 2.833-0.305 0.259-0.645 0.402-1.041 0.179-0.395-0.228-0.665-0.634-0.702-1.105l-0-0.005z"></path>
</svg>
