<!-- Generated by IcoMoon.io -->
<svg version="1.1" xmlns="http://www.w3.org/2000/svg" width="32" height="32" viewBox="0 0 32 32">
<title>strumenti</title>
<path fill="#464545" d="M4.756 7.853c0.063-0.031 0.124-0.064 0.183-0.097 0.030 0.040 0.061 0.077 0.098 0.114l3.458 3.459c0.216-0.254 0.535-0.414 0.88-0.414 0.112 0 0.223 0.016 0.33 0.048l0.431 0.128 0.268-0.903-3.843-3.843c-0.061-0.060-0.127-0.111-0.197-0.154l0.009-0.040c0.009-0.037 0.021-0.064 0.032-0.096 0.009-0.024 0.018-0.048 0.027-0.074 0.011-0.025 0.022-0.052 0.034-0.080 0.019-0.046 0.039-0.097 0.065-0.148l0.072-0.147 0.082-0.145c0.035-0.067 0.074-0.125 0.119-0.191 0.024-0.035 0.048-0.072 0.072-0.109 0.022-0.029 0.044-0.058 0.067-0.089 0.056-0.074 0.108-0.144 0.165-0.205l0.040-0.044c0.075-0.082 0.15-0.167 0.237-0.239 0.028-0.025 0.049-0.044 0.071-0.064 0.029-0.027 0.059-0.056 0.091-0.081l0.168-0.122c0.006-0.003 0.010-0.007 0.013-0.011 0.067-0.054 0.148-0.099 0.235-0.148 0.035-0.019 0.068-0.038 0.102-0.058 0.072-0.046 0.147-0.076 0.226-0.108 0.040-0.017 0.079-0.033 0.119-0.050 0.023-0.009 0.047-0.020 0.070-0.030 0.025-0.010 0.050-0.023 0.075-0.029l0.185-0.052c0.037-0.009 0.079-0.021 0.123-0.034 0.060-0.018 0.118-0.034 0.158-0.040l0.496-0.073c0.072-0.010 0.136-0.044 0.185-0.093 0.054-0.054 0.090-0.128 0.095-0.209 0.011-0.154-0.087-0.295-0.235-0.339l-0.489-0.139c-0.085-0.026-0.175-0.039-0.262-0.051-0.039-0.006-0.078-0.012-0.12-0.019l-0.214-0.033c-0.067-0.011-0.13-0.012-0.186-0.014-0.022-0.001-0.044-0.001-0.067-0.002-0.056-0.001-0.097-0.003-0.139-0.005-0.125-0.005-0.266-0.011-0.415 0.009l-0.095 0.008c-0.143 0.012-0.308 0.025-0.472 0.065l-0.264 0.053c-0.081 0.020-0.149 0.041-0.218 0.062l-0.083 0.026c-0.191 0.053-0.372 0.129-0.547 0.203l-0.024 0.010c-0.15 0.062-0.286 0.135-0.418 0.205l-0.109 0.058c-0.008 0.004-0.013 0.008-0.021 0.012-0.042 0.026-0.085 0.052-0.127 0.078-0.114 0.069-0.233 0.141-0.343 0.222l-0.183 0.13c-0.004 0.003-0.022 0.016-0.026 0.020l-0.181 0.144c-0.049 0.038-0.094 0.076-0.137 0.114-0.326 0.054-0.639 0.205-0.89 0.457l-0.387 0.387c-0.178 0.179-0.346 0.429-0.483 0.709-0.607-0.117-1.431 0.78-2.66 2.009l2.748 2.747c0.942-0.943 2.125-2.053 2.008-2.66z"></path>
<path fill="#464545" d="M26.304 7.682l1.731 0.335 1.762-2.225c0.322-0.404 0.857-0.589 1.356-0.47v-0.958h-2.602v2.082h-2.803l0.556 1.237z"></path>
<path fill="#464545" d="M10.593 8.245l0.534-1.799h-2.333z"></path>
<path fill="#464545" d="M31.154 17.634v-6.669c-0.047 0.064-0.093 0.129-0.143 0.192-0.724 0.915-1.685 1.573-2.763 1.923h0.304v4.554h-6.973l3.267-4.455c0.059-0.076 0.114-0.154 0.164-0.234 1.825 0.457 3.834-0.152 5.076-1.72 0.906-1.144 1.259-2.622 0.966-4.054-0.032-0.162-0.157-0.291-0.318-0.33s-0.33 0.020-0.434 0.15l-2.106 2.659-2.738-0.53-1.143-2.544 2.107-2.659c0.103-0.13 0.121-0.308 0.047-0.456s-0.228-0.24-0.393-0.235c-1.462 0.043-2.82 0.724-3.727 1.868-1.241 1.567-1.375 3.66-0.514 5.332-0.065 0.069-0.129 0.141-0.191 0.219l-4.228 5.030 1.023 1.023c0.265 0.265 0.451 0.586 0.55 0.936h-0.456c-0.083-0.23-0.215-0.445-0.4-0.63l-5.82-5.821-0.151 0.507 0.394 0.117c0.297 0.088 0.541 0.286 0.689 0.558s0.18 0.585 0.092 0.882c-0.048 0.159-0.129 0.305-0.237 0.429 0.030 0.272 0.007 0.547-0.073 0.812l-0.523 1.76 1.384 1.383h-2.384l1.028-3.46c0.088-0.295 0.081-0.595-0.002-0.869 0.145-0.074 0.261-0.205 0.311-0.373 0.096-0.326-0.089-0.67-0.416-0.766l-0.913-0.272 2.483-8.357 0.078 0.023 0.643-1.245 0.252-1.942-1.072-0.318-0.834 1.77-0.134 1.396 0.079 0.024-2.483 8.358-0.951-0.282c-0.325-0.097-0.669 0.089-0.766 0.415-0.047 0.158-0.027 0.319 0.042 0.455-0.229 0.186-0.407 0.44-0.497 0.744l-1.395 4.701h-1.305v-4.553h1.728l0.309-1.041c0.078-0.261 0.131-0.333 0.286-0.55l-2.79-2.858c-0.382 0.526-0.76 1.072-1.349 1.656l-0.787 0.786v6.561h-0.846v9.108c0 2.874 2.331 5.204 5.205 5.204h19.386c2.875 0 5.204-2.33 5.204-5.204v-9.108h-0.846zM10.726 14.399c0.103-0.347 0.467-0.543 0.813-0.441 0.345 0.103 0.543 0.467 0.44 0.813l-0.85 2.863h-1.364l0.961-3.235zM8.618 13.773c0.103-0.346 0.467-0.543 0.813-0.441s0.543 0.467 0.44 0.813l-1.036 3.489h-1.364l1.147-3.861z"></path>
<path fill="#464545" d="M14.102 6.445l-1.007 3.389 3.247 3.246h1.74l2.895-3.443c-0.398-1.028-0.487-2.135-0.29-3.192h-6.585z"></path>
</svg>
