<!-- Generated by IcoMoon.io -->
<svg version="1.1" xmlns="http://www.w3.org/2000/svg" width="32" height="32" viewBox="0 0 32 32">
<title>tipologieDocumentaliPubblicabili</title>
<path fill="#464545" d="M1.915 32h8.395v-32h-8.395v32zM4.076 2.998h4.071v6.784h-4.071v-6.784zM4.076 12.128h4.071v2.814h-4.071v-2.814zM6.112 24.933c1.125 0 2.036 0.909 2.036 2.035 0 1.122-0.91 2.035-2.037 2.035-1.123 0-2.034-0.912-2.034-2.035-0.001-1.125 0.91-2.035 2.034-2.035z"></path>
<path fill="#464545" d="M11.802 32h8.395v-32h-8.395v32zM13.966 2.998h4.071v6.784h-4.071v-6.784zM13.966 12.128h4.071v2.814h-4.071v-2.814zM16 24.933c1.125 0 2.037 0.909 2.037 2.035 0 1.122-0.91 2.035-2.037 2.035-1.123 0-2.034-0.912-2.034-2.035 0-1.125 0.911-2.035 2.034-2.035z"></path>
<path fill="#464545" d="M21.69 0v32h8.395v-32h-8.395zM25.889 29.003c-1.123 0-2.035-0.912-2.035-2.035 0-1.125 0.91-2.035 2.035-2.035s2.037 0.909 2.037 2.035c0 1.123-0.912 2.035-2.037 2.035zM27.925 14.942h-4.072v-2.814h4.072v2.814zM27.925 9.783h-4.072v-6.785h4.072v6.785z"></path>
<path fill="#fff" d="M14.229 31.383c-4.035-2.017-6.769-6.218-6.769-11.079 0-1.912 0.423-3.723 1.178-5.336l-0.031 0.073c1.949-4.175 6.011-7.003 10.711-7.003 1.848 0 3.598 0.437 5.157 1.218l-0.071-0.032c4.036 2.016 6.771 6.218 6.771 11.080 0 1.912-0.423 3.721-1.177 5.334l0.031-0.073c-1.949 4.176-6.011 7.005-10.712 7.005-1.847 0-3.596-0.437-5.155-1.217l0.071 0.032 5.084-11.081z"></path>
<path fill="#008080" d="M19.433 8.088c-6.68 0-12.095 5.509-12.095 12.304s5.416 12.304 12.095 12.304c6.68 0 12.095-5.509 12.095-12.304s-5.416-12.304-12.095-12.304zM26.277 24.493c0.216-1.037 0.352-2.138 0.397-3.281h3.211c-0.084 1.133-0.343 2.233-0.773 3.281zM12.59 16.291c-0.216 1.037-0.352 2.138-0.397 3.281h-3.212c0.084-1.133 0.343-2.233 0.773-3.281h2.835zM24.625 16.291c0.242 1.050 0.388 2.149 0.435 3.281h-4.822v-3.281zM20.24 14.65v-4.802c0.367 0.109 0.733 0.291 1.089 0.548 0.67 0.481 1.31 1.22 1.853 2.14 0.375 0.636 0.699 1.344 0.97 2.115h-3.912zM15.684 12.535c0.543-0.92 1.183-1.66 1.853-2.14 0.358-0.257 0.722-0.439 1.089-0.548v4.802h-3.912c0.271-0.771 0.595-1.479 0.97-2.115zM18.627 16.291v3.281h-4.822c0.048-1.132 0.194-2.231 0.435-3.281zM9.755 24.493c-0.43-1.048-0.689-2.149-0.773-3.281h3.212c0.045 1.144 0.181 2.244 0.397 3.281h-2.835zM13.806 21.213h4.822v3.281h-4.386c-0.242-1.050-0.388-2.149-0.435-3.281zM18.627 26.134v4.802c-0.367-0.109-0.733-0.291-1.089-0.548-0.67-0.481-1.31-1.22-1.853-2.14-0.375-0.636-0.699-1.343-0.97-2.115h3.912zM23.182 28.248c-0.543 0.92-1.183 1.66-1.853 2.14-0.358 0.256-0.722 0.439-1.089 0.548v-4.802h3.912c-0.271 0.771-0.595 1.478-0.97 2.115zM20.24 24.493v-3.281h4.822c-0.048 1.132-0.194 2.231-0.435 3.281zM26.675 19.572c-0.045-1.144-0.181-2.244-0.397-3.281h2.835c0.43 1.048 0.689 2.149 0.773 3.281zM28.27 14.65h-2.417c-0.469-1.506-1.118-2.828-1.898-3.882 1.072 0.521 2.043 1.22 2.891 2.083 0.541 0.551 1.017 1.152 1.424 1.798zM12.021 12.852c0.848-0.863 1.819-1.562 2.891-2.083-0.779 1.054-1.428 2.376-1.898 3.882h-2.417c0.407-0.647 0.882-1.247 1.424-1.798zM10.597 26.134h2.417c0.47 1.506 1.118 2.828 1.898 3.881-1.072-0.521-2.043-1.22-2.891-2.083-0.541-0.551-1.017-1.152-1.424-1.798zM26.846 27.932c-0.848 0.863-1.819 1.562-2.891 2.083 0.779-1.054 1.428-2.376 1.898-3.881h2.417c-0.407 0.647-0.882 1.247-1.424 1.798z"></path>
</svg>
