<!-- Generated by IcoMoon.io -->
<svg version="1.1" xmlns="http://www.w3.org/2000/svg" width="32" height="32" viewBox="0 0 32 32">
<title>tipo_fascicoli_aggr</title>
<path fill="#464545" d="M23.397 28.455h-14.793l-2.771 3.545h20.336z"></path>
<path fill="#464545" d="M23.442 8.488c-0.166 0.295-0.478 0.477-0.817 0.477h-5.688v-1.875h5.14l4-7.090h-20.155l4 7.090h5.14v1.875h-5.688c-0.338 0-0.65-0.182-0.816-0.477l-4.121-7.305v29.556l2.97-3.8c0.178-0.227 0.45-0.36 0.739-0.36h15.708c0.288 0 0.561 0.133 0.739 0.36l2.97 3.8v-29.556l-4.121 7.305zM13.813 3.545c0-1.206 0.981-2.188 2.188-2.188s2.188 0.981 2.188 2.188c0 0.879-0.522 1.639-1.272 1.986-0.092-0.421-0.467-0.736-0.915-0.736s-0.823 0.315-0.915 0.736c-0.75-0.347-1.272-1.107-1.272-1.986zM16 14.385c-1.206 0-2.188-0.981-2.188-2.188 0-0.871 0.512-1.624 1.25-1.976v0.101c0 0.518 0.42 0.938 0.938 0.938s0.938-0.42 0.938-0.938v-0.101c0.738 0.352 1.25 1.105 1.25 1.976 0 1.206-0.981 2.188-2.188 2.188z"></path>
</svg>
