<!-- Generated by IcoMoon.io -->
<svg version="1.1" xmlns="http://www.w3.org/2000/svg" width="32" height="32" viewBox="0 0 32 32">
<title>tipologieDocumentali</title>
<path fill="#464545" d="M1.915 32h8.395v-32h-8.395v32zM4.076 2.998h4.071v6.784h-4.071v-6.784zM4.076 12.128h4.071v2.814h-4.071v-2.814zM6.112 24.933c1.125 0 2.036 0.909 2.036 2.035 0 1.122-0.91 2.035-2.037 2.035-1.123 0-2.034-0.912-2.034-2.035-0.001-1.125 0.91-2.035 2.034-2.035z"></path>
<path fill="#464545" d="M11.802 32h8.395v-32h-8.395v32zM13.966 2.998h4.071v6.784h-4.071v-6.784zM13.966 12.128h4.071v2.814h-4.071v-2.814zM16 24.933c1.125 0 2.037 0.909 2.037 2.035 0 1.122-0.91 2.035-2.037 2.035-1.123 0-2.034-0.912-2.034-2.035 0-1.125 0.911-2.035 2.034-2.035z"></path>
<path fill="#464545" d="M21.69 0v32h8.395v-32h-8.395zM25.889 29.003c-1.123 0-2.035-0.912-2.035-2.035 0-1.125 0.91-2.035 2.035-2.035s2.037 0.909 2.037 2.035c0 1.123-0.912 2.035-2.037 2.035zM27.925 14.942h-4.072v-2.814h4.072v2.814zM27.925 9.783h-4.072v-6.785h4.072v6.785z"></path>
</svg>
