<!-- Generated by IcoMoon.io -->
<svg version="1.1" xmlns="http://www.w3.org/2000/svg" width="32" height="32" viewBox="0 0 32 32">
<title>titolario</title>
<path fill="#454545" d="M6.286 8h19.429v-1.143h-19.429v1.143z"></path>
<path fill="#454545" d="M3.428 11.428h-3.428v20.572h32v-20.572h-28.572zM20 19.428h-8c-1.261 0-2.286-1.025-2.286-2.286s1.025-2.286 2.286-2.286h8c1.261 0 2.286 1.025 2.286 2.286s-1.026 2.286-2.286 2.286z"></path>
<path fill="#454545" d="M2.857 10.286v-1.714c0-0.316 0.256-0.572 0.571-0.572h1.714v-1.714c0-0.316 0.256-0.571 0.572-0.571h0.571v-1.714c0-0.316 0.256-0.572 0.572-0.572h18.286c0.315 0 0.572 0.256 0.572 0.572v1.714h0.571c0.315 0 0.572 0.255 0.572 0.571v1.714h1.714c0.315 0 0.571 0.255 0.571 0.572v1.714h2.585l-4.114-10.286h-23.226l-4.114 10.286h2.585z"></path>
<path fill="#454545" d="M7.428 4.572h17.143v1.143h-17.143v-1.143z"></path>
<path fill="#454545" d="M20 16h-8c-0.63 0-1.143 0.512-1.143 1.143s0.512 1.143 1.143 1.143h8c0.63 0 1.143-0.512 1.143-1.143s-0.512-1.143-1.143-1.143z"></path>
<path fill="#454545" d="M4 10.286h24v-1.143h-24v1.143z"></path>
</svg>
