<!-- Generated by IcoMoon.io -->
<svg version="1.1" xmlns="http://www.w3.org/2000/svg" width="46" height="32" viewBox="0 0 46 32">
<title>U</title>
<path fill="#219db0" d="M21.417 31.976c-4.061-0.614-6.843-1.975-9.527-4.66-2.372-2.373-3.715-4.84-4.433-8.145-0.337-1.551-0.337-4.792 0-6.343 0.718-3.304 2.061-5.772 4.433-8.145 2.399-2.4 5.018-3.802 8.374-4.481 1.433-0.29 4.666-0.264 6.108 0.048 3.31 0.717 5.775 2.058 8.149 4.433 2.401 2.401 3.805 5.026 4.48 8.374 0.268 1.328 0.268 4.555 0 5.883-0.673 3.341-2.089 5.985-4.481 8.37-1.887 1.881-3.692 3.036-5.986 3.829-1.804 0.623-2.881 0.808-4.961 0.848-1.012 0.020-1.983 0.015-2.156-0.012zM25.32 24.046c3.076-0.386 4.881-1.689 5.68-4.102 0.174-0.525 0.195-1.107 0.228-6.285l0.036-5.707h-2.747l-0.002 5.286c-0.002 5.775-0.039 6.225-0.598 7.253-0.394 0.725-1.129 1.288-2.065 1.582-0.637 0.2-0.99 0.237-2.279 0.237-1.29 0-1.642-0.037-2.281-0.238-1.232-0.387-1.872-0.986-2.37-2.218-0.239-0.591-0.241-0.638-0.272-6.249l-0.031-5.654h-2.725l0.002 5.391c0.001 4.327 0.032 5.535 0.156 6.118 0.536 2.532 2.354 4.071 5.361 4.538 1.058 0.164 2.798 0.185 3.906 0.046z"></path>
</svg>
