<!-- Generated by IcoMoon.io -->
<svg version="1.1" xmlns="http://www.w3.org/2000/svg" width="32" height="32" viewBox="0 0 32 32">
<title>uo</title>
<path fill="#464545" d="M21.483 8.473c-1.674 0-3.060 0.74-4.165 2.215-1.083 1.44-1.627 3.216-1.627 5.329 0 2.106 0.544 3.875 1.627 5.309 1.105 1.467 2.491 2.203 4.165 2.203 1.685 0 3.078-0.729 4.177-2.183 1.078-1.433 1.619-3.209 1.619-5.329 0-2.099-0.546-3.875-1.635-5.329-1.111-1.474-2.498-2.215-4.161-2.215zM0.128 8.852c-0.057 0-0.099 0.019-0.128 0.060v1.875c0.016 0.605 0.017 1.021 0.048 1.843 0.060 1.576 0.088 2.762 0.088 3.55 0 0.272-0.008 0.681-0.024 1.231s-0.024 0.965-0.024 1.243c0 1.202 0.071 2.038 0.212 2.506 0.282 0.958 0.892 1.607 1.835 1.947 0.591 0.211 1.432 0.316 2.526 0.316 2.422 0 3.938-0.576 4.545-1.731 0.33-0.632 0.496-1.813 0.496-3.546 0-0.217-0.003-0.545-0.008-0.979-0.005-0.442-0.008-0.77-0.008-0.987 0-0.788 0.023-1.974 0.072-3.55 0.054-1.576 0.080-2.753 0.080-3.534 0-0.163-0.079-0.244-0.236-0.244-0.32 0-0.798 0.018-1.443 0.052s-1.127 0.048-1.447 0.048c-0.135 0-0.204 0.105-0.204 0.316 0 0.985 0.018 2.463 0.056 4.433s0.056 3.448 0.056 4.433c0 1.352-0.552 2.027-1.663 2.027-0.758 0-1.257-0.254-1.495-0.764-0.179-0.374-0.268-1.092-0.268-2.159 0-0.897 0.021-2.239 0.064-4.026 0.049-1.793 0.072-3.141 0.072-4.037 0-0.149-0.068-0.224-0.204-0.224-0.33 0-0.831-0.014-1.503-0.048-0.666-0.034-1.165-0.052-1.495-0.052zM21.483 12.274c0.802 0 1.46 0.376 1.975 1.123 0.493 0.713 0.74 1.579 0.74 2.598 0 0.971-0.254 1.825-0.764 2.558-0.536 0.768-1.187 1.151-1.951 1.151-0.818 0-1.482-0.364-1.991-1.091-0.482-0.693-0.724-1.559-0.724-2.598 0-0.971 0.261-1.831 0.776-2.578 0.531-0.774 1.175-1.163 1.939-1.163zM12.896 18.49c-0.531 0-0.983 0.24-1.351 0.716s-0.552 1.045-0.552 1.711c0 0.666 0.183 1.241 0.552 1.723 0.368 0.476 0.82 0.712 1.351 0.712s0.979-0.236 1.347-0.712c0.374-0.476 0.56-1.050 0.56-1.723 0-0.666-0.186-1.235-0.56-1.711-0.368-0.476-0.816-0.716-1.347-0.716zM30.089 18.49c-0.531 0-0.979 0.24-1.347 0.716s-0.556 1.045-0.556 1.711c0 0.666 0.187 1.241 0.556 1.723 0.368 0.476 0.816 0.712 1.347 0.712s0.983-0.236 1.351-0.712c0.374-0.476 0.56-1.050 0.56-1.723 0-0.666-0.186-1.235-0.56-1.711-0.368-0.476-0.82-0.716-1.351-0.716z"></path>
</svg>
