<!-- Generated by IcoMoon.io -->
<svg version="1.1" xmlns="http://www.w3.org/2000/svg" width="32" height="32" viewBox="0 0 32 32">
<title>update_rubrica</title>
<path fill="#464545" d="M4 0l-0 0v32h24v-3.738c-1.527 1.472-3.589 2.378-5.858 2.382h-0.001c-3.994-0.001-7.351-2.798-8.303-6.583l-0.013-0.061h-3.825v-2c0-2.209 1.791-4 4-4h0.446c0.374-0.77 0.819-1.434 1.341-2.024l-0.007 0.007c-2.102-0.114-3.771-1.854-3.771-3.984 0-2.203 1.786-3.99 3.99-3.99s3.99 1.786 3.99 3.99c0 0.51-0.096 0.997-0.27 1.446 0.718-0.226 1.543-0.357 2.397-0.361h0.002c0 0 0.001 0 0.002 0 2.278 0 4.348 0.909 5.884 2.392l-0.004-0.004v-15.473z"></path>
<path fill="#454545" d="M0 2h3v6h-3v-6z"></path>
<path fill="#454545" d="M0 10h3v6h-3v-6z"></path>
<path fill="#454545" d="M0 18h3v6h-3v-6z"></path>
<path fill="#454545" d="M0 26h3v6h-3v-6z"></path>
<path fill="#219db0" d="M21.341 10.392c-5.868 0-10.624 4.84-10.624 10.811s4.757 10.811 10.624 10.811c5.868 0 10.624-4.84 10.624-10.811s-4.757-10.811-10.624-10.811zM20.195 13.86c3.058 0.001 5.536 2.644 5.537 5.908-0.001 1.119-0.298 2.162-0.805 3.054l3.764 4.015-1.867 1.993-3.765-4.015c-0.836 0.541-1.814 0.858-2.864 0.858-3.059 0-5.538-2.643-5.538-5.905 0-3.263 2.479-5.906 5.538-5.907zM20.194 16.113c-1.892 0.005-3.422 1.636-3.425 3.654 0.003 2.017 1.533 3.648 3.425 3.653 1.89-0.005 3.421-1.636 3.425-3.653-0.003-2.018-1.534-3.65-3.425-3.654z"></path>
</svg>
