<!-- Generated by IcoMoon.io -->
<svg version="1.1" xmlns="http://www.w3.org/2000/svg" width="32" height="32" viewBox="0 0 32 32">
<title>verificaRaffinamentoCampioni</title>
<path fill="#4d4d4d" d="M19.239 14.667h-6.477c-0.736 0-1.333-0.597-1.333-1.333s0.597-1.333 1.333-1.333h6.476c0.736 0 1.333 0.597 1.333 1.333 0.001 0.736-0.596 1.333-1.332 1.333z"></path>
<path fill="#4d4d4d" d="M30.667 29.333h-29.333c-0.736 0-1.333-0.597-1.333-1.333s0.597-1.333 1.333-1.333h29.333c0.736 0 1.333 0.597 1.333 1.333s-0.597 1.333-1.333 1.333z"></path>
<path fill="#4d4d4d" d="M4 29.333c-0.736 0-1.333-0.597-1.333-1.333v-12c0-2.205 1.795-4 4-4h0.667c0.736 0 1.333 0.597 1.333 1.333s-0.597 1.333-1.333 1.333h-0.667c-0.735 0-1.333 0.599-1.333 1.333v12c0 0.736-0.597 1.333-1.333 1.333z"></path>
<path fill="#4d4d4d" d="M28 29.333c-0.736 0-1.333-0.597-1.333-1.333v-12c0-0.735-0.599-1.333-1.333-1.333h-0.667c-0.736 0-1.333-0.597-1.333-1.333s0.597-1.333 1.333-1.333h0.667c2.205 0 4 1.795 4 4v12c0 0.736-0.597 1.333-1.333 1.333z"></path>
<path fill="#00bcd4" d="M9.652 25.316c-1.735-0.177-2.985-1.761-2.985-3.505 0-5.048 0-17.811 0-17.811h6.667v18c0 1.953-1.688 3.519-3.681 3.316z"></path>
<path fill="#ffc107" d="M21.652 25.316c-1.735-0.177-2.985-1.761-2.985-3.505 0-5.048 0-17.811 0-17.811h6.667v18c0 1.953-1.688 3.519-3.681 3.316z"></path>
<path fill="#4d4d4d" d="M13.333 5.333h-6.667c-0.736 0-1.333-0.597-1.333-1.333s0.597-1.333 1.333-1.333h6.667c0.736 0 1.333 0.597 1.333 1.333s-0.597 1.333-1.333 1.333z"></path>
<path fill="#4d4d4d" d="M25.333 5.333h-6.667c-0.736 0-1.333-0.597-1.333-1.333s0.597-1.333 1.333-1.333h6.667c0.736 0 1.333 0.597 1.333 1.333s-0.597 1.333-1.333 1.333z"></path>
<path fill="#fff" d="M16.954 29.759c-3.23-1.594-5.418-4.914-5.418-8.757 0-1.509 0.338-2.938 0.94-4.212l-0.025 0.058c1.559-3.303 4.812-5.541 8.576-5.541 1.475 0 2.871 0.344 4.117 0.957l-0.057-0.025c3.237 1.591 5.432 4.915 5.432 8.763 0 1.504-0.335 2.928-0.934 4.198l0.025-0.058c-1.557 3.31-4.813 5.555-8.583 5.555-1.47 0-2.861-0.341-4.103-0.95l0.057 0.025 4.046-8.77z"></path>
<path fill="#8c8c8c" d="M21.033 10.437c-5.835 0-10.562 4.695-10.562 10.49s4.727 10.49 10.562 10.49c5.835 0 10.562-4.694 10.562-10.49s-4.727-10.49-10.562-10.49zM20.281 12.776h1.54c0.296 0.008 0.536 0.209 0.583 0.494l0.249 1.506c0.607 0.147 1.174 0.386 1.695 0.695l1.267-0.888c0.233-0.17 0.552-0.139 0.754 0.062l1.073 1.081c0.202 0.201 0.226 0.517 0.062 0.749l-0.902 1.251c0.303 0.51 0.529 1.058 0.676 1.645l1.532 0.262c0.28 0.046 0.482 0.294 0.498 0.564v1.529c-0.008 0.293-0.21 0.533-0.498 0.579l-1.532 0.247c-0.156 0.579-0.389 1.128-0.692 1.637l0.879 1.259c0.171 0.232 0.14 0.548-0.062 0.749l-1.089 1.066c-0.202 0.201-0.521 0.224-0.754 0.062l-1.26-0.896c-0.513 0.301-1.065 0.525-1.656 0.672l-0.265 1.521c-0.047 0.286-0.295 0.487-0.583 0.487h-1.54c-0.296-0.008-0.536-0.209-0.583-0.494l-0.249-1.521c-0.568-0.147-1.112-0.371-1.61-0.664l-1.275 0.896c-0.233 0.17-0.552 0.139-0.754-0.062l-1.073-1.081c-0.202-0.201-0.225-0.517-0.062-0.749l0.902-1.243c-0.296-0.502-0.537-1.050-0.684-1.637l-1.54-0.27c-0.288-0.046-0.49-0.293-0.49-0.579v-1.529c0.008-0.293 0.21-0.533 0.498-0.579l1.516-0.247c0.148-0.579 0.373-1.128 0.676-1.637l-0.902-1.267c-0.171-0.232-0.14-0.548 0.062-0.749l1.088-1.066c0.202-0.201 0.521-0.224 0.754-0.062l1.244 0.903c0.505-0.293 1.057-0.533 1.648-0.679l0.272-1.529c0.047-0.286 0.295-0.486 0.583-0.486zM21.085 16.993v0c-0.296-0.001-0.596 0.032-0.897 0.1-2.138 0.486-3.476 2.602-2.986 4.726s2.62 3.452 4.759 2.966c2.138-0.494 3.468-2.61 2.986-4.726-0.421-1.825-2.054-3.063-3.862-3.066z"></path>
</svg>
