<!-- Generated by IcoMoon.io -->
<svg version="1.1" xmlns="http://www.w3.org/2000/svg" width="32" height="32" viewBox="0 0 32 32">
<title>visure_in_iter</title>
<path fill="#464545" d="M12.647 0l-12.647 9.682v3.948l12.647-9.683 9.275 7.101c0.029-0.024 0.055-0.044 0.064-0.019 0.010 0.026 0.015 0.054 0.018 0.082l0.164 0.126c0.176-0.040 0.353-0.079 0.53-0.114 0.145-0.029 0.292-0.056 0.439-0.071 0.049-0.005 0.145-0.040 0.147 0.009 0.004 0.111-0.044 0.215-0.087 0.32 0.014 0.027 0.028 0.054 0.041 0.082 0.005 0.012-0.024-0.013-0.037-0.012-0.011 0.001-0.022 0.003-0.033 0.005-0.006 0.015-0.011 0.031-0.015 0.046-0.167 0.029-0.332 0.067-0.497 0.108l0.065 0.050c0.356-0.033 0.712-0.054 1.069-0.052 0.078 0.001 0.212-0.054 0.234 0.022 0.015 0.055 0.024 0.101 0.029 0.144 0.038-0.001 0.076-0.001 0.114-0.002 0.267-0.003 0.535 0.003 0.802 0.013 0.107 0.004 0.224-0.023 0.325 0.006v-2.108zM12.647 6.262l-9.486 7.017v9.356h6.324v-6.237h3.627c0.003-0.008 0.004-0.016 0.008-0.023 0.029-0.066 0.133-0.057 0.198-0.088 0.073-0.035 0.148-0.067 0.214-0.113 0.257-0.175 0.592-0.513 0.805-0.687 0.264-0.216 0.541-0.416 0.811-0.624 0.186-0.121 0.315-0.206 0.452-0.296-0-0.25 0.007-0.5 0.023-0.748 0.006-0.098 0.026-0.195 0.039-0.292 0.108-0.045 0.219-0.184 0.325-0.135 0.091 0.043 0.095 0.171 0.105 0.281 0.022 0.080 0.024 0.128 0.012 0.155-0.001 0.045-0.004 0.091-0.008 0.136 0.007-0.001 0.014-0.002 0.021-0.004-0.003 0.014-0.004 0.018-0.006 0.030 0.007 0.006 0.014 0.010 0.021 0.017 0.050 0.050 0.025 0.13 0.010 0.208 0.202-0.129 0.406-0.255 0.672-0.413-0.018-0.008-0.034-0.019-0.045-0.037-0.109-0.185 0.030-0.375 0.176-0.523-0.050 0.019-0.1 0.035-0.152 0.043-0.302 0.049-0.273-0.164-0.081-0.4-0.022 0.008-0.019 0.006-0.046 0.016-0.018 0.006 0.022-0.016 0.050-0.020 0.035-0.043 0.075-0.086 0.12-0.129 0.073-0.070 0.414-0.203 0.746-0.322-0.019-0.036-0.034-0.063-0.061-0.112-0.016-0.028 0.046-0.045 0.072-0.064 0.055-0.040 0.111-0.078 0.168-0.115 0.052-0.072 0.11-0.103 0.163-0.101 0.092-0.055 0.185-0.109 0.277-0.163 0.006-0.081 0.015-0.162 0.019-0.242 0.063-0.054 0.129-0.105 0.189-0.161 0.066-0.061 0.124-0.129 0.189-0.19 0.143-0.134 0.25-0.229 0.392-0.323zM16.717 12.879c-0.001 0.002-0.003 0.003-0.004 0.005 0.007-0.003 0.009-0.003 0.015-0.005-0.003-0-0.007-0-0.011 0.001zM16.105 13.826c0.001-0.033-0-0.065-0.006-0.097-0.003-0.018-0.005-0.038-0.006-0.058-0.007-0.027-0.017-0.056-0.029-0.090-0.012 0.084-0.030 0.166-0.036 0.251-0 0.006-0.001 0.013-0.001 0.019 0.036 0.008 0.065 0.004 0.078-0.024zM19.645 11.438c-0.088 0.064-0.178 0.127-0.269 0.187 0.018-0.001 0.036-0 0.053-0.001 0.073-0.026 0.172-0.062 0.217-0.077 0.034-0.011 0.068-0.022 0.102-0.033zM18.287 11.669c-0.006 0-0.010 0.002-0.007 0.002 0.007 0 0.014 0 0.021 0.001-0.003-0.002-0.009-0.003-0.014-0.002zM25.148 12.237c-0.015 0.004-0.030 0.007-0.046 0.010-0.065 0.011-0.131 0.010-0.198 0.006 0.012 0.002 0.020 0.007 0.019 0.020-0.016 0.149-0.037 0.246-0.066 0.31 0.005 0.030 0.009 0.056 0.014 0.092 0.004 0.025-0.049-0.008-0.076-0.011-0 0-0 0-0.001 0 0.018 0.012 0.036 0.024 0.053 0.038 0.041 0.035 0.078 0.075 0.12 0.11 0.073 0.061 0.154 0.113 0.227 0.175 0.067 0.070 0.054 0.051 0.081 0.125 0.007 0.006 0.014 0.013 0.020 0.020v-0.893c-0.039 0.023-0.091 0.014-0.146-0.002zM24.703 12.244c-0.073 0.001-0.146 0.002-0.22 0.005 0.108 0.002 0.215 0.005 0.323 0.011 0.021 0.001 0.055-0.006 0.081-0.007-0.061-0.004-0.123-0.009-0.184-0.008zM19.969 12.84c0.001 0.002 0.002 0.005 0.003 0.008 0.010-0.002 0.020-0.005 0.029-0.008-0.011-0-0.022 0-0.032 0zM24.695 13.113c0.012 0.024 0.033 0.050 0.051 0.075 0.066 0.048 0.131 0.098 0.195 0.148-0.009-0.012-0.018-0.025-0.027-0.039s-0.013-0.021-0.018-0.030c-0.066-0.053-0.136-0.1-0.201-0.154zM16.438 14.505c-0.088 0.056-0.182 0.117-0.276 0.178 0 0.001 0 0.001 0 0.001 0.089-0.057 0.152-0.098 0.235-0.151 0.014-0.010 0.028-0.019 0.042-0.029z"></path>
<path fill="#219db0" d="M21.18 10.379c-5.868 0-10.624 4.84-10.624 10.811s4.757 10.811 10.624 10.811c5.868 0 10.624-4.84 10.624-10.811s-4.757-10.811-10.624-10.811zM20.034 13.847c3.058 0.001 5.536 2.644 5.537 5.908-0.001 1.119-0.298 2.162-0.805 3.054l3.764 4.015-1.867 1.993-3.765-4.015c-0.836 0.541-1.814 0.858-2.864 0.858-3.059 0-5.538-2.643-5.538-5.905 0-3.263 2.479-5.906 5.538-5.907zM20.034 16.101c-1.892 0.005-3.422 1.636-3.425 3.654 0.003 2.017 1.533 3.648 3.425 3.653 1.89-0.005 3.421-1.636 3.425-3.653-0.003-2.018-1.534-3.65-3.425-3.654z"></path>
</svg>
