<!-- Generated by IcoMoon.io -->
<svg version="1.1" xmlns="http://www.w3.org/2000/svg" width="32" height="32" viewBox="0 0 32 32">
<title>visure_personali</title>
<path fill="#464545" d="M12.647 0l-12.647 9.682v3.948l12.647-9.683 10.454 8.004c0.012-0.003 0.024-0.004 0.034-0.004 0.028-0.021 0.065-0.063 0.074-0.037 0.003 0.009 0.005 0.015 0.008 0.024 0.071-0.023 0.142-0.045 0.213-0.066 0.048-0.014 0.119-0.060 0.163-0.057 0.015 0.001 0.026 0.008 0.033 0.023 0.037 0.083 0.023 0.177 0.006 0.27 0.027 0.040 0.049 0.082 0.061 0.129 0.007 0.030-0.038 0.023-0.082 0.019-0 0.005-0.001 0.011-0.001 0.016-0.024 0.006-0.048 0.011-0.073 0.016l1.758 1.346v-3.948zM12.647 6.262l-9.486 7.017v9.356h6.324v-6.237h3.627c0.003-0.008 0.004-0.016 0.008-0.023 0.029-0.066 0.133-0.057 0.198-0.088 0.073-0.035 0.148-0.067 0.214-0.113 0.257-0.175 0.592-0.513 0.805-0.687 0.264-0.216 0.541-0.416 0.811-0.624 0.186-0.121 0.315-0.206 0.452-0.296-0-0.25 0.007-0.5 0.023-0.748 0.006-0.098 0.026-0.195 0.039-0.292 0.108-0.045 0.219-0.184 0.325-0.135 0.091 0.043 0.095 0.171 0.105 0.281 0.022 0.080 0.024 0.128 0.012 0.155-0.001 0.045-0.004 0.091-0.008 0.136 0.007-0.001 0.014-0.002 0.021-0.004-0.003 0.014-0.004 0.018-0.006 0.030 0.007 0.006 0.014 0.010 0.021 0.017 0.050 0.050 0.025 0.13 0.010 0.208 0.328-0.21 0.639-0.399 1.267-0.761 0.38-0.219 0.761-0.438 1.152-0.638 0.407-0.208 0.829-0.388 1.249-0.571 0.106-0.071 0.217-0.138 0.36-0.21 0.050-0.025 0.104-0.072 0.157-0.089zM16.105 13.826c0.001-0.033-0-0.065-0.006-0.097-0.003-0.018-0.005-0.038-0.006-0.058-0.007-0.027-0.017-0.056-0.029-0.090-0.012 0.084-0.030 0.166-0.036 0.251-0 0.006-0.001 0.013-0.001 0.019 0.036 0.008 0.065 0.004 0.078-0.024zM20.649 12.181c0.019 0.029 0.037 0.058 0.054 0.086 0.001 0.001 0.001 0.002 0.001 0.004 0.018-0.003 0.037-0.005 0.056-0.008zM20.471 12.395c-0.159 0.074-0.034 0.015-0.471 0.209-0.044 0.030-0.088 0.060-0.132 0.091 0.052 0.061 0.1 0.123 0.121 0.199 0.013 0.047-0.086 0.044-0.128 0.067-0.106 0.059-0.21 0.121-0.316 0.181 0.246-0.070 0.381-0.080 0.645-0.115 0.052 0.003 0.111 0.004 0.165 0.012 0.006-0.007 0.008-0.009 0.017-0.017 0.002-0.002 0.002-0.002 0.004-0.004 0.002-0.003 0.004-0.007 0.006-0.010-0.025 0.002-0.048-0.001-0.068-0.015-0.015-0.011-0.257-0.293-0.108-0.381 0.016-0.010-0.011 0.036-0.017 0.054 0.042-0.053 0.082-0.107 0.126-0.158 0.009-0.010 0.027-0.004 0.037-0.012 0.052-0.038 0.084-0.070 0.119-0.101zM16.438 14.505c-0.088 0.056-0.182 0.117-0.276 0.178 0 0.001 0 0.001 0 0.001 0.089-0.057 0.152-0.098 0.235-0.151 0.014-0.010 0.028-0.019 0.042-0.029z"></path>
<path fill="#f2641d" d="M21.211 10.769c-5.985 0-10.836 4.773-10.836 10.66s4.851 10.66 10.836 10.66c5.985 0 10.836-4.773 10.836-10.66s-4.852-10.66-10.836-10.66zM21.69 12.672c0.518 0 1.092 0.209 1.218 0.61 0.191 0.603 0.492 1.558 0.843 2.672-0.255 0.508-1.125 0.836-2.061 0.836s-1.807-0.328-2.062-0.836c0.352-1.114 0.653-2.069 0.843-2.672 0.127-0.402 0.701-0.61 1.218-0.61zM24.515 18.373c0.317 1.006 0.641 2.030 0.937 2.969-0.101 0.998-1.769 1.763-3.762 1.763h-0c-1.993 0-3.66-0.765-3.761-1.763 0.296-0.939 0.619-1.963 0.937-2.969 0.221 0.717 1.438 1.224 2.825 1.224s2.604-0.506 2.825-1.224zM17.5 22.611l-0.36 1.136c0.018 1.204 2.088 2.164 4.55 2.164s4.532-0.96 4.55-2.164l-0.36-1.136 3.131 1.424c0.878 0.399 0.915 1.139 0.082 1.644l-5.888 3.566c-0.833 0.504-2.196 0.504-3.028 0l-5.888-3.566c-0.833-0.504-0.796-1.244 0.082-1.644z"></path>
</svg>
