<!-- Generated by IcoMoon.io -->
<svg version="1.1" xmlns="http://www.w3.org/2000/svg" width="32" height="32" viewBox="0 0 32 32">
<title>vocabolario</title>
<path fill="#464545" d="M18.158 17.228c-0.444 0-0.843 0.341-0.95 0.812l-0.001 1.6c0.113 0.465 0.496 0.777 0.951 0.777 0.737 0 1.16-0.586 1.16-1.608 0-0.371-0.084-1.581-1.16-1.581z"></path>
<path fill="#464545" d="M8.875 18.003h1.321l-0.682-2.369z"></path>
<path fill="#464545" d="M5.43 0l-2.782 4.090-0.002 25.793 0.002 0v2.117h22.493v-0.029l0.070 0.006 4.144-3.17v-28.808h-23.924zM11.356 22.423l-0.705-2.346h-2.221l-0.651 2.346h-2.7l2.955-9.669h3.102l2.998 9.669h-2.778zM20.926 21.595c-0.601 0.63-1.411 0.977-2.28 0.977-0.736 0-1.352-0.234-1.814-0.684l-0.047 0.534h-2.204l0.003-10.158h2.589v3.412c0.46-0.367 1.069-0.563 1.771-0.563 0.777 0 1.47 0.284 2.004 0.821 0.652 0.657 1.008 1.649 1 2.794 0 1.173-0.354 2.165-1.022 2.866zM27.094 27.691l-1.953 1.494v-25.095h-19.746l1.236-1.829h20.463v25.43z"></path>
</svg>
