<!-- Generated by IcoMoon.io -->
<svg version="1.1" xmlns="http://www.w3.org/2000/svg" width="30" height="32" viewBox="0 0 30 32">
<title>wizard</title>
<path fill="#464545" d="M22.901 5.088c0.312 0 0.565-0.253 0.565-0.565v-3.958c0-0.313-0.253-0.565-0.565-0.565s-0.565 0.253-0.565 0.565v3.958c0 0.313 0.253 0.565 0.565 0.565zM22.901 13.004c-0.312 0-0.565 0.253-0.565 0.565v3.958c0 0.313 0.253 0.565 0.565 0.565s0.565-0.253 0.565-0.565v-3.958c0-0.313-0.253-0.565-0.565-0.565zM31.381 8.481h-3.958c-0.312 0-0.565 0.253-0.565 0.565s0.253 0.565 0.565 0.565h3.958c0.312 0 0.565-0.253 0.565-0.565s-0.253-0.565-0.565-0.565zM14.42 9.611h3.958c0.312 0 0.565-0.253 0.565-0.565s-0.253-0.565-0.565-0.565h-3.958c-0.312 0-0.565 0.253-0.565 0.565s0.253 0.565 0.565 0.565zM26.293 6.219c0.145 0 0.29-0.055 0.4-0.166l2.799-2.799c0.221-0.221 0.221-0.578 0-0.799s-0.578-0.221-0.799 0l-2.799 2.799c-0.221 0.221-0.221 0.578 0 0.799 0.11 0.11 0.255 0.166 0.4 0.166zM26.693 12.039c-0.221-0.221-0.578-0.221-0.799 0s-0.221 0.578 0 0.799l2.799 2.799c0.11 0.11 0.255 0.166 0.4 0.166s0.29-0.055 0.4-0.166c0.221-0.221 0.221-0.578 0-0.799l-2.799-2.799zM19.109 6.053c0.11 0.11 0.255 0.166 0.4 0.166s0.29-0.055 0.4-0.166c0.221-0.221 0.221-0.578 0-0.799l-2.799-2.799c-0.221-0.221-0.578-0.221-0.799 0s-0.221 0.578 0 0.799l2.799 2.799zM20.312 14.138l-2.398-2.398 4.947-4.947 2.398 2.398-4.947 4.947zM2.451 32l-2.399-2.399 17.061-17.061 2.399 2.399-17.061 17.061z"></path>
</svg>
